<?xml version="1.0" encoding="utf-8"?>
<!-- Generator: Adobe Illustrator 19.0.0, SVG Export Plug-In . SVG Version: 6.00 Build 0)  -->
<svg version="1.1" id="Layer_1" xmlns="http://www.w3.org/2000/svg" xmlns:xlink="http://www.w3.org/1999/xlink" x="0px" y="0px"
	 viewBox="0 0 489.1 434.4" style="enable-background:new 0 0 489.1 434.4;" xml:space="preserve">
<style type="text/css">
	.st0{fill:#FFFFFF;}
	.st1{fill:#F6EB16;}
	.st2{fill:#E4477E;}
	.st3{fill:#ED237A;}
	.st4{fill:none;stroke:#FFFFFF;stroke-width:10;stroke-linecap:round;stroke-linejoin:round;stroke-miterlimit:10;}
	.st5{fill:none;stroke:#F6EB16;stroke-width:10;stroke-linecap:round;stroke-linejoin:round;stroke-miterlimit:10;}
</style>
<path id="XMLID_47_" class="st0" d="M391.9,74.2c0.7-1.2,0.1-2.3-1.3-2.3l-7.2-0.1c-1.4,0-2.3-1.2-1.9-2.5l3.3-12.3
	c0.4-1.4-0.1-1.6-1.1-0.6l-21.1,22.4c-1,1-0.6,1.9,0.8,1.9l4.1,0.1c1.4,0,1.9,1,1.2,2.2l-10.2,15.7c-0.8,1.2-0.2,2.2,1.2,2.2
	l6.5,0.1c1.4,0,2.3,1.2,1.9,2.5l-2.8,10.6c-0.4,1.4,0.2,1.7,1.2,0.7l24.1-22.6c1-1,0.7-1.8-0.7-1.8l-4.4-0.1c-1.4,0-2-1.1-1.3-2.3
	L391.9,74.2z M367.5,94c-0.4,0-0.7-0.3-0.7-0.7c0-0.4,0.3-0.7,0.7-0.7c0.4,0,0.7,0.3,0.7,0.7C368.2,93.7,367.9,94,367.5,94z
	 M379,96.8c-1,0.9-2.8,1.4-4.8,1.4c-2,0-3.9-0.6-4.8-1.6c-0.1-0.1-0.1-0.4,0-0.5c0.1-0.1,0.4-0.1,0.5,0c0.8,0.8,2.5,1.3,4.3,1.4
	c1.8,0,3.5-0.4,4.3-1.2c0.2-0.1,0.4-0.1,0.5,0C379.2,96.4,379.2,96.7,379,96.8z M381.5,94.3c-0.4,0-0.7-0.3-0.7-0.7
	c0-0.4,0.3-0.7,0.7-0.7c0.4,0,0.7,0.3,0.7,0.7C382.2,94,381.9,94.3,381.5,94.3z"/>
<path id="XMLID_42_" class="st0" d="M361,219.4c-0.1-0.9-0.7-1.6-1.6-2.1l-6.8-3.4c-1.4-0.7-3-2.4-3.7-3.8l-3.2-7
	c-0.4-0.9-1.2-1.6-2-1.7c-0.9-0.2-1.8,0.2-2.5,0.9l-5.4,5.5c-1.1,1.1-3.2,2.1-4.7,2.3l-7.6,0.8c-1,0.1-1.8,0.6-2.2,1.4
	c-0.4,0.8-0.4,1.7,0.1,2.6l3.5,6.8c0.7,1.3,1,3.7,0.7,5.2l-1.5,7.5c-0.2,0.8,0,1.6,0.4,2.2c0.6,0.8,1.6,1.2,2.8,1l7.5-1.3
	c0.7-0.1,1.7-0.1,2.7,0.1c1,0.2,1.9,0.5,2.5,0.8l6.6,3.8c0.4,0.2,0.7,0.3,1.1,0.4c0.7,0.1,1.4,0,1.9-0.4c0.6-0.4,1-1.1,1.1-2
	l1.1-7.6c0.2-1.5,1.4-3.6,2.5-4.7l5.7-5.2C360.7,221.2,361.1,220.3,361,219.4z M333.6,215.7c0.6,0.1,1,0.7,0.9,1.3s-0.7,1-1.3,0.9
	c-0.6-0.1-1-0.7-0.9-1.3C332.3,216,332.9,215.6,333.6,215.7z M347.1,224.4c-1.8,1.2-4.9,1.5-8.1,1c-3.2-0.6-6-2-7.3-3.7
	c-0.2-0.3-0.1-0.6,0.1-0.8c0.3-0.2,0.6-0.1,0.8,0.1c1.1,1.5,3.6,2.7,6.5,3.3c2.9,0.5,5.7,0.2,7.2-0.8c0.3-0.2,0.6-0.1,0.8,0.2
	C347.5,223.8,347.4,224.2,347.1,224.4z M348,220.6c-0.6-0.1-1-0.7-0.9-1.3c0.1-0.6,0.7-1,1.3-0.9c0.6,0.1,1,0.7,0.9,1.3
	S348.6,220.7,348,220.6z"/>
<path id="XMLID_41_" class="st1" d="M379,174.2c0.2-1.8,0.3-3.2-2.2-3.5l-17.3-2.2c-2.7-0.3-3,1.1-3.3,2.9
	c-0.1,0.4-1.6,12.6-1.6,12.6c-0.7-0.2-1.4-0.3-2.1-0.3c-3.1,0-5.6,2-5.6,4.5c0,2.4,2.6,4.4,5.7,4.4c2.7,0,4.9-1.6,5.5-3.6
	c0.2-0.3,1.9-13.9,1.9-13.9l14.6,1.8l-0.9,7.1c-0.7-0.2-1.4-0.3-2.2-0.3c-3.1,0-5.6,2-5.6,4.5c0,2.4,2.6,4.4,5.7,4.4
	c2.8,0,5-1.6,5.5-3.7C377.4,188.6,379,174.3,379,174.2z"/>
<path id="XMLID_40_" class="st0" d="M363.3,136.1l-6.9-0.1c-2.5,0-2.7,1.4-2.7,2.9c0,0.4,0.3,0.7,0.3,1c0,0.1,0.3,0.3,0.2,0.4
	l-0.2,8.6c-0.8-0.1-1.4-0.1-1.9,0c-1.3,0.1-2.6,0.7-3.4,1.5c-0.8,0.8-1.3,1.9-1.2,2.9c0.2,1.9,2.1,3.3,4.4,3.3c0.3,0,0.5,0,0.8,0
	c2.2-0.3,3.7-1.6,4.1-3.3c0.2-0.4,0.2-0.8,0.2-1.3l0.2-10.4l5.8,0.1c2.7,0.1,2.7-1.4,2.7-2.7C365.9,137.5,365.6,136.2,363.3,136.1z"
	/>
<circle id="XMLID_39_" class="st2" cx="296.8" cy="277.3" r="2.8"/>
<circle id="XMLID_31_" class="st2" cx="315.8" cy="287.3" r="2.8"/>
<circle id="XMLID_30_" class="st2" cx="324.5" cy="270.9" r="2.8"/>
<circle id="XMLID_28_" class="st2" cx="303.1" cy="297.6" r="2.8"/>
<circle id="XMLID_27_" class="st2" cx="316.1" cy="306.6" r="2.8"/>
<circle id="XMLID_26_" class="st2" cx="299.8" cy="320.3" r="2.8"/>
<circle id="XMLID_25_" class="st2" cx="324.6" cy="248.1" r="1.6"/>
<circle id="XMLID_24_" class="st2" cx="330.6" cy="197.1" r="1.6"/>
<circle id="XMLID_23_" class="st2" cx="313.3" cy="236.1" r="1.6"/>
<path id="XMLID_22_" class="st0" d="M428.3,183c-0.1-0.2-0.3-0.3-0.5-0.3l-1.8-0.2c-0.4,0-0.9-0.3-1.1-0.5l-1.3-1.3
	c-0.2-0.2-0.4-0.2-0.6-0.2s-0.4,0.2-0.5,0.4l-0.7,1.7c-0.1,0.3-0.5,0.7-0.8,0.9l-1.6,0.8c-0.2,0.1-0.4,0.3-0.4,0.5
	c0,0.2,0.1,0.4,0.2,0.6l1.4,1.2c0.3,0.2,0.5,0.7,0.6,1.1l0.3,1.8c0,0.2,0.1,0.4,0.3,0.5c0.2,0.1,0.5,0.1,0.7,0l1.6-0.9
	c0.1-0.1,0.4-0.2,0.6-0.2c0.2,0,0.5-0.1,0.6,0l1.8,0.3c0.1,0,0.2,0,0.3,0c0.2,0,0.3-0.1,0.4-0.3c0.1-0.1,0.1-0.3,0.1-0.5l-0.4-1.8
	c-0.1-0.3,0-0.9,0.1-1.2l0.8-1.6C428.4,183.4,428.4,183.2,428.3,183z"/>
<circle id="XMLID_21_" class="st0" cx="333.5" cy="101" r="2.5"/>
<circle id="XMLID_20_" class="st0" cx="486.5" cy="101" r="2.5"/>
<path id="XMLID_19_" class="st0" d="M435.6,68.6c-0.1-0.2-0.3-0.3-0.6-0.3l-1.9-0.2c-0.4,0-0.9-0.3-1.2-0.5l-1.4-1.3
	c-0.2-0.2-0.4-0.3-0.6-0.2c-0.2,0-0.4,0.2-0.5,0.4l-0.7,1.7c-0.1,0.3-0.6,0.8-0.9,1l-1.7,0.9c-0.2,0.1-0.4,0.3-0.4,0.5
	c0,0.2,0.1,0.4,0.3,0.6l1.4,1.2c0.3,0.2,0.6,0.8,0.6,1.1l0.3,1.9c0,0.2,0.1,0.4,0.3,0.5c0.2,0.1,0.5,0.1,0.7,0l1.6-1
	c0.2-0.1,0.4-0.2,0.6-0.2c0.2,0,0.5-0.1,0.7,0l1.9,0.3c0.1,0,0.2,0,0.3,0c0.2,0,0.3-0.1,0.4-0.3c0.1-0.2,0.1-0.4,0.1-0.6l-0.4-1.9
	c-0.1-0.4,0-1,0.2-1.3l0.8-1.7C435.7,69,435.7,68.8,435.6,68.6z"/>
<circle id="XMLID_18_" class="st0" cx="444.4" cy="238" r="2.5"/>
<circle id="XMLID_17_" class="st0" cx="441.4" cy="117" r="2.5"/>
<path id="XMLID_14_" class="st3" d="M393.3,201c-0.2-0.1-0.5-0.1-0.7,0l-11.5,6.2c-0.2,0.1-0.4,0.4-0.4,0.6c0,0.3,0.1,0.5,0.3,0.6
	l11.2,6.9c0.1,0.1,0.2,0.1,0.4,0.1c0.1,0,0.3,0,0.4-0.1c0.2-0.1,0.4-0.4,0.4-0.6l0.2-13.1C393.7,201.4,393.5,201.1,393.3,201z
	 M378.6,200.7c-0.2-0.1-0.5-0.1-0.7,0l-11.5,6.2c-0.2,0.1-0.4,0.4-0.4,0.6c0,0.3,0.1,0.5,0.3,0.6l11.2,6.9c0.1,0.1,0.2,0.1,0.4,0.1
	c0.1,0,0.3,0,0.4-0.1c0.2-0.1,0.4-0.4,0.4-0.6l0.2-13.1C378.9,201.1,378.8,200.8,378.6,200.7z"/>
<path id="XMLID_9_" class="st3" d="M419.5,128.2c-0.1-0.2-0.3-0.3-0.6-0.3l-6.4,1.5l0.2-3.9c0-0.2-0.1-0.3-0.2-0.4
	c-0.1-0.1-0.3-0.1-0.5-0.1l-4.1,1.4l-0.2-5.7c0-0.2-0.1-0.3-0.2-0.4c-0.1-0.1-0.3-0.1-0.5-0.1l-5.3,1.9l0.3-4.2
	c0-0.2-0.1-0.4-0.2-0.5c-0.1-0.1-0.3-0.1-0.5,0l-4,1.8l-1.1-6.4c0-0.2-0.2-0.4-0.5-0.4c-0.2,0-0.5,0.1-0.5,0.4l-3.8,12.8
	c0,0,0,0,0,0.1c-6.9,2.6-11.7,10.4-13.7,16.7c-2.7,8.7,2.6,16.5,11.3,19.2c8.7,2.7,17.5-0.7,20.2-9.4c1.3-4.2,1.7-9.9,0.5-15
	l9.6-8.3C419.5,128.7,419.6,128.4,419.5,128.2z M379.5,147.3c-0.4-0.1-0.6-0.6-0.5-1c0.1-0.4,0.6-0.6,1-0.5c0.4,0.1,0.6,0.6,0.5,1
	C380.3,147.3,379.9,147.5,379.5,147.3z M394.1,155.5c-1.6,0.7-4.2,0.5-6.8-0.4c-2.6-1-4.6-2.5-5.4-4.2c-0.1-0.2,0-0.5,0.2-0.7
	c0.2-0.1,0.5,0,0.7,0.2c0.7,1.4,2.6,2.8,4.9,3.7c2.3,0.8,4.6,1,6,0.4c0.3-0.1,0.5,0,0.6,0.3C394.5,155.1,394.4,155.4,394.1,155.5z
	 M398.1,154.3c-0.4-0.1-0.6-0.6-0.5-1c0.1-0.4,0.6-0.6,1-0.5c0.4,0.1,0.6,0.6,0.5,1C399,154.2,398.5,154.4,398.1,154.3z"/>
<line id="XMLID_8_" class="st4" x1="143.9" y1="77.4" x2="144.4" y2="52.4"/>
<line id="XMLID_4_" class="st5" x1="173" y1="170.4" x2="155.4" y2="140.4"/>
<line id="XMLID_3_" class="st5" x1="120" y1="85.4" x2="103.3" y2="54.1"/>
<line id="XMLID_2_" class="st4" x1="126" y1="184.4" x2="132" y2="144.4"/>
</svg>
