<?xml version="1.0" encoding="utf-8"?>
<!-- Generator: Adobe Illustrator 19.0.0, SVG Export Plug-In . SVG Version: 6.00 Build 0)  -->
<svg version="1.1" id="Layer_1" xmlns="http://www.w3.org/2000/svg" xmlns:xlink="http://www.w3.org/1999/xlink" x="0px" y="0px"
	 viewBox="0 0 747.9 591" style="enable-background:new 0 0 747.9 591;" xml:space="preserve">
<style type="text/css">
	.st0{fill:#FFFFFF;}
	.st1{fill:#53C6D8;}
	.st2{fill:#ED237A;}
	.st3{fill:#F6EB16;}
	.st4{fill:none;stroke:#FFFFFF;stroke-width:9.57;stroke-linecap:round;stroke-linejoin:round;stroke-miterlimit:10;}
</style>
<path id="XMLID_44_" class="st0" d="M717.3,30.4c-0.2-0.1-0.5-0.1-0.7,0l-11.2,6.3c-0.2,0.1-0.4,0.4-0.4,0.6c0,0.3,0.1,0.5,0.4,0.6
	l11.2,6.5c0.1,0.1,0.2,0.1,0.4,0.1c0.1,0,0.2,0,0.4-0.1c0.2-0.1,0.4-0.4,0.4-0.6V31C717.6,30.7,717.5,30.5,717.3,30.4z M702.8,30.4
	c-0.2-0.1-0.5-0.1-0.7,0L691,36.7c-0.2,0.1-0.4,0.4-0.4,0.6s0.1,0.5,0.4,0.6l11.2,6.5c0.1,0.1,0.2,0.1,0.4,0.1c0.1,0,0.2,0,0.4-0.1
	c0.2-0.1,0.4-0.4,0.4-0.6V31C703.2,30.7,703.1,30.5,702.8,30.4z"/>
<path class="st1" d="M677.9,516.2c0-9.2-5.8-18.6-17-18.6c-12.5,0-17,9.6-17,18.6c0,5.1,2.2,9.4,6.3,12.3c-0.1,0.1-0.1,0.3-0.2,0.4
	c-0.6,2,0.1,4,1.6,4.4c0.2,0.1,0.4,0.1,0.6,0.1c0.9,0,1.8-0.5,2.4-1.4c0.1,0.8,0.4,1.4,0.8,2c0.4,0.5,1,0.8,1.6,0.9
	c1.4,0.1,2.3-1.1,2.9-2.2c0.5,1.1,1.3,2.3,2.9,2.3c0.1,0,0.1,0,0.2,0c0.6,0,1.1-0.3,1.5-0.8c0.4-0.4,0.6-1,0.7-1.7
	c0.7,0.8,1.6,1.3,2.5,1.3h0c0.2,0,0.3,0,0.5-0.1c1.5-0.4,2.3-2.2,1.9-4.3C675,526.7,677.9,521.9,677.9,516.2z M650.2,522.8
	c-0.5,0-1-0.4-1-1c0-0.5,0.4-1,1-1c0.5,0,1,0.4,1,1C651.1,522.4,650.7,522.8,650.2,522.8z M671.2,522.8c-0.5,0-1-0.4-1-1
	c0-0.5,0.4-1,1-1s1,0.4,1,1C672.1,522.4,671.7,522.8,671.2,522.8z M667.9,525.1c-1.4,1.3-4.1,2.2-7.1,2.2c-3,0-5.7-0.8-7.1-2.2
	c-0.2-0.2-0.2-0.5,0-0.8c0.2-0.2,0.5-0.2,0.8,0c1.2,1.1,3.7,1.9,6.4,1.9c2.7,0,5.1-0.7,6.4-1.9c0.2-0.2,0.6-0.2,0.8,0
	C668.1,524.5,668.1,524.9,667.9,525.1z"/>
<path id="XMLID_39_" class="st2" d="M723.5,93.6c-3.4-6.3-8.1-7.6-11.5-7.6c-1.3,0-2.4,0.2-3.1,0.4c-0.6-1.7-2.1-4.8-4.7-8
	c-3.4-4.6-10-10.1-21.5-10.1l-0.1,0c0,0-0.1,0-0.1,0c-11.6,0-18.1,5.5-21.5,10.1c-2.6,3.2-4.1,6.4-4.7,8.1c-0.8-0.2-1.9-0.4-3.1-0.4
	c-3.3,0-8,1.3-11.5,7.6c-1.7,3.1-2,6-1,8.8c1.3,3.6,4.7,5.9,6.8,6.9c-2.3,3-4.2,8.3,0.3,13.4c2.1,2.4,5,3.6,8.4,3.6
	c3.4,0,6.5-1.2,8.2-1.9c1.5,3.2,6.4,11.3,17.4,11.3c0.2,0,0.4,0,0.6,0l0.2,0l0.2,0c0.2,0,0.4,0,0.6,0c11.1,0,15.9-8.1,17.4-11.3
	c1.7,0.8,4.8,1.9,8.2,1.9c3.5,0,6.3-1.2,8.4-3.6c4.5-5.1,2.6-10.4,0.3-13.4c2-1.1,5.4-3.3,6.8-6.9C725.5,99.6,725.2,96.6,723.5,93.6
	z M662.4,113.1c-0.8,0-1.5-0.7-1.5-1.5s0.7-1.5,1.5-1.5s1.5,0.7,1.5,1.5S663.2,113.1,662.4,113.1z M682.4,122.4
	c-1.3,0-2.5-0.5-3.4-1.4c-2-2-2.2-5.6-2.2-6.4c-0.1-0.4,0-0.9,0.3-1.3c0.3-0.4,0.8-0.8,1.8-0.8l6.4,0c1.1,0.1,2.3,0.9,2.3,2.2
	C687.6,119.4,685.6,122.4,682.4,122.4z M705,113.1c-0.8,0-1.5-0.7-1.5-1.5s0.7-1.5,1.5-1.5c0.8,0,1.5,0.7,1.5,1.5
	S705.8,113.1,705,113.1z"/>
<path id="XMLID_55_" class="st3" d="M86.2,411.5c-0.1-0.8-0.7-1.4-1.5-1.8l-6.3-2.9c-1.2-0.6-2.8-2.1-3.4-3.3l-3-6.2
	c-0.4-0.8-1.1-1.4-1.9-1.5c-0.8-0.1-1.6,0.2-2.2,0.9l-4.7,5.1c-0.9,1-2.9,2-4.2,2.2l-6.9,1c-0.9,0.1-1.6,0.6-2,1.3
	c-0.3,0.7-0.3,1.6,0.2,2.4l3.4,6.1c0.7,1.2,1,3.4,0.8,4.7l-1.2,6.8c-0.1,0.8,0,1.5,0.4,2c0.5,0.7,1.5,1.1,2.6,0.9l6.8-1.3
	c0.6-0.1,1.5-0.1,2.4,0c0.9,0.1,1.7,0.4,2.3,0.7l6.1,3.3c0.3,0.2,0.7,0.3,1,0.3c0.6,0.1,1.2-0.1,1.7-0.4c0.5-0.4,0.9-1,1-1.8
	l0.8-6.9c0.2-1.4,1.1-3.3,2.1-4.3l5-4.8C86,413.1,86.4,412.3,86.2,411.5z M61.3,408.9c0.6,0.1,1,0.6,0.9,1.2c-0.1,0.6-0.6,1-1.2,0.9
	s-1-0.6-0.9-1.2C60.2,409.2,60.8,408.8,61.3,408.9z M73.8,416.4c-1.6,1.1-4.4,1.5-7.3,1.1c-2.9-0.4-5.5-1.7-6.7-3.2
	c-0.2-0.2-0.1-0.6,0.1-0.8c0.2-0.2,0.6-0.1,0.8,0.1c1,1.3,3.4,2.4,6,2.8c2.6,0.4,5.2,0,6.5-0.9c0.2-0.2,0.6-0.1,0.7,0.1
	C74.1,415.9,74.1,416.2,73.8,416.4z M74.5,412.9c-0.6-0.1-1-0.6-0.9-1.2s0.6-1,1.2-0.9c0.6,0.1,1,0.6,0.9,1.2S75,413,74.5,412.9z"/>
<path id="XMLID_38_" class="st0" d="M619.4,117.1c0.3-1.4,0.5-2.6-1.5-3.1l-14-3.3c-2.2-0.5-2.6,0.6-2.9,2
	c-0.1,0.4-2.4,10.2-2.4,10.2c-0.5-0.2-1.1-0.4-1.7-0.4c-2.5-0.3-4.8,1.2-5,3.2c-0.2,2,1.7,3.8,4.3,4.1c2.2,0.2,4.2-0.8,4.8-2.4
	c0.2-0.2,2.8-11.2,2.8-11.2l11.8,2.8l-1.4,5.8c-0.5-0.2-1.1-0.4-1.8-0.5c-2.5-0.3-4.8,1.2-5,3.2c-0.2,2,1.7,3.8,4.3,4.1
	c2.3,0.2,4.3-0.9,4.8-2.5C616.8,128.8,619.4,117.3,619.4,117.1z"/>
<path class="st0" d="M692.7,447.4l-29.3-5.7c-0.3-0.1-0.6,0.1-0.8,0.4c-0.1,0.1-1.3,3.3,0.3,6.1c1.2,2.1,3.6,3.3,7.2,3.7
	c0.7,0.1,1.5,0.1,2.2,0.2c-0.2,0.9-0.3,2.5,0.5,3.9c1.1,2,3.6,3.1,7.5,3.3c-0.4,0.9-0.7,2.3-0.1,3.6c0.6,1.2,1.9,2,3.9,2.2
	c0.2,0,0.5,0,0.7,0.1c4.8,0.3,7.5-2.1,7.6-2.2c0.1-0.1,0.2-0.3,0.2-0.5l0.6-14.3C693.3,447.8,693.1,447.5,692.7,447.4z M714.8,440.1
	l0.9-7.3c0.7-6.2-2.4-10.2-8.6-10.9l-2.8-0.3c-6.2-0.7-10.2,2.4-10.9,8.6l-0.9,7.3c-0.5,4.1,0.7,7.2,3.4,9.1l-2.1,36l0,0.4
	c-0.1,2.1,0.9,3.5,2.5,3.6l3.5,0.4l0,0c1.6,0.2,2.8-0.9,3.3-3l6.3-35.8C712.4,447,714.3,444.2,714.8,440.1z M696.2,437.8
	c-0.4-0.1-0.8-0.5-0.7-0.9c0.1-0.4,0.5-0.8,0.9-0.7s0.8,0.5,0.7,0.9C697,437.5,696.6,437.9,696.2,437.8z M709.9,442.6
	c-1.8,1.3-4.1,1.9-6.7,1.6c-2.9-0.4-5.4-1.9-6.4-3.2c-0.2-0.2-0.1-0.5,0.1-0.7c0.2-0.2,0.5-0.1,0.7,0.1c0.9,1.2,3.2,2.5,5.8,2.8
	c2.3,0.3,4.3-0.2,5.9-1.4c0.2-0.2,0.5-0.1,0.7,0.1C710.1,442.1,710.1,442.5,709.9,442.6z M711.1,439.6c-0.4-0.1-0.8-0.5-0.7-0.9
	c0.1-0.4,0.5-0.8,0.9-0.7c0.4,0.1,0.8,0.5,0.7,0.9C712,439.3,711.6,439.6,711.1,439.6z M742.8,451.8c0-0.3-0.3-0.6-0.6-0.6
	l-29.8-1.4c-0.3,0-0.6,0.2-0.7,0.5l-2.8,14c0,0.2,0,0.4,0.1,0.5c0.1,0.1,2.2,3.1,6.9,4c0.2,0,0.5,0.1,0.7,0.1c2,0.2,3.4-0.2,4.3-1.2
	c0.9-1.1,0.9-2.5,0.8-3.5c3.8,0.7,6.5,0.2,8-1.4c1.1-1.2,1.3-2.7,1.4-3.6c0.8,0.2,1.5,0.3,2.2,0.4l0,0c3.5,0.4,6.2-0.2,7.8-1.9
	C743.3,455.3,742.8,451.9,742.8,451.8z"/>
<path id="XMLID_33_" class="st0" d="M663,178.1c0.9-1.5,0.1-2.8-1.6-2.9l-9-0.2c-1.8,0-2.8-1.5-2.4-3.2l4.1-15.3
	c0.5-1.7-0.2-2.1-1.4-0.8l-26.4,28c-1.2,1.3-0.8,2.4,1,2.4l5.1,0.1c1.8,0,2.4,1.3,1.5,2.8l-12.8,19.6c-1,1.5-0.3,2.7,1.5,2.8
	l8.1,0.2c1.8,0,2.8,1.5,2.4,3.2l-3.5,13.2c-0.5,1.7,0.2,2.1,1.5,0.9l30.1-28.2c1.3-1.2,0.9-2.2-0.9-2.3l-5.5-0.1
	c-1.8,0-2.5-1.3-1.6-2.9L663,178.1z M632.6,202.8c-0.5,0-0.9-0.4-0.9-0.9c0-0.5,0.4-0.9,0.9-0.9c0.5,0,0.9,0.4,0.9,0.9
	C633.5,202.4,633.1,202.8,632.6,202.8z M647,206.3c-1.2,1.1-3.5,1.8-6,1.7c-2.5,0-4.8-0.8-6-2c-0.2-0.2-0.2-0.5,0-0.6
	c0.2-0.2,0.5-0.2,0.6,0c1,1,3.1,1.7,5.4,1.7c2.2,0,4.4-0.5,5.4-1.5c0.2-0.2,0.5-0.2,0.6,0C647.2,205.9,647.2,206.1,647,206.3z
	 M650.1,203.2c-0.5,0-0.9-0.4-0.9-0.9c0-0.5,0.4-0.9,0.9-0.9c0.5,0,0.9,0.4,0.9,0.9C651,202.8,650.6,203.2,650.1,203.2z"/>
<path class="st0" d="M709.8,555.4c-0.1-0.2-0.3-0.3-0.5-0.3l-1.7-0.2c-0.3,0-0.8-0.3-1.1-0.5l-1.2-1.2c-0.2-0.2-0.4-0.2-0.6-0.2
	c-0.2,0-0.4,0.2-0.4,0.4l-0.7,1.6c-0.1,0.3-0.5,0.7-0.8,0.9l-1.5,0.8c-0.2,0.1-0.3,0.3-0.4,0.5c0,0.2,0.1,0.4,0.2,0.5l1.3,1.1
	c0.3,0.2,0.5,0.7,0.6,1l0.3,1.7c0,0.2,0.1,0.3,0.3,0.4c0.2,0.1,0.4,0.1,0.7,0l1.5-0.9c0.1-0.1,0.3-0.2,0.6-0.2c0.2,0,0.4-0.1,0.6,0
	l1.7,0.3c0.1,0,0.2,0,0.3,0c0.2,0,0.3-0.1,0.4-0.2c0.1-0.1,0.1-0.3,0.1-0.5l-0.4-1.7c-0.1-0.3,0-0.9,0.1-1.2l0.8-1.6
	C709.9,555.8,709.9,555.5,709.8,555.4z"/>
<path class="st0" d="M686.8,377.4c-0.1-0.2-0.3-0.3-0.5-0.3l-1.7-0.2c-0.3,0-0.8-0.3-1.1-0.5l-1.2-1.2c-0.2-0.2-0.4-0.2-0.6-0.2
	c-0.2,0-0.4,0.2-0.4,0.4l-0.7,1.6c-0.1,0.3-0.5,0.7-0.8,0.9l-1.5,0.8c-0.2,0.1-0.3,0.3-0.4,0.5c0,0.2,0.1,0.4,0.2,0.5l1.3,1.1
	c0.3,0.2,0.5,0.7,0.6,1l0.3,1.7c0,0.2,0.1,0.3,0.3,0.4c0.2,0.1,0.4,0.1,0.7,0l1.5-0.9c0.1-0.1,0.3-0.2,0.6-0.2c0.2,0,0.4-0.1,0.6,0
	l1.7,0.3c0.1,0,0.2,0,0.3,0c0.2,0,0.3-0.1,0.4-0.2c0.1-0.1,0.1-0.3,0.1-0.5l-0.4-1.7c-0.1-0.3,0-0.9,0.1-1.2l0.8-1.6
	C686.9,377.8,686.9,377.5,686.8,377.4z"/>
<path id="XMLID_32_" class="st0" d="M729.6,66.9c-0.1-0.2-0.3-0.3-0.5-0.3l-1.7-0.2c-0.3,0-0.8-0.3-1.1-0.5l-1.2-1.2
	c-0.2-0.2-0.4-0.2-0.6-0.2c-0.2,0-0.4,0.2-0.4,0.4l-0.7,1.6c-0.1,0.3-0.5,0.7-0.8,0.9l-1.5,0.8c-0.2,0.1-0.3,0.3-0.4,0.5
	c0,0.2,0.1,0.4,0.2,0.5l1.3,1.1c0.3,0.2,0.5,0.7,0.6,1l0.3,1.7c0,0.2,0.1,0.3,0.3,0.4c0.2,0.1,0.4,0.1,0.7,0l1.5-0.9
	c0.1-0.1,0.3-0.2,0.6-0.2c0.2,0,0.4-0.1,0.6,0l1.7,0.3c0.1,0,0.2,0,0.3,0c0.2,0,0.3-0.1,0.4-0.2c0.1-0.1,0.1-0.3,0.1-0.5l-0.4-1.7
	c-0.1-0.3,0-0.9,0.1-1.2l0.8-1.6C729.7,67.3,729.7,67.1,729.6,66.9z"/>
<path id="XMLID_47_" class="st0" d="M67.7,174.5l-5.8,1.5c-2.1,0.5-1.9,1.8-1.6,3c0.1,0.3,0.4,0.5,0.5,0.8c0,0.1,0.3,0.2,0.3,0.3
	l1.9,7.2c-0.7,0.1-1.1,0.2-1.6,0.4c-1,0.4-2,1.2-2.5,2c-0.5,0.9-0.7,1.9-0.3,2.7c0.6,1.5,2.5,2.3,4.5,1.8c0.2-0.1,0.4-0.1,0.7-0.2
	c1.7-0.7,2.7-2.2,2.7-3.7c0.1-0.4,0-0.7-0.1-1.1l-2.2-8.7l4.9-1.3c2.2-0.6,1.9-1.8,1.6-2.9C70.2,175,69.7,174,67.7,174.5z"/>
<circle id="XMLID_31_" class="st0" cx="699.2" cy="8.1" r="2.5"/>
<circle id="XMLID_30_" class="st0" cx="677.7" cy="155.4" r="2.4"/>
<circle class="st0" cx="717.1" cy="340.2" r="2.4"/>
<circle id="XMLID_54_" class="st0" cx="4.4" cy="383.4" r="2.4"/>
<path id="XMLID_53_" class="st0" d="M16.8,343.4c-0.1-0.2-0.3-0.3-0.5-0.3l-1.7-0.2c-0.3,0-0.8-0.3-1.1-0.5l-1.2-1.2
	c-0.2-0.2-0.4-0.2-0.6-0.2c-0.2,0-0.4,0.2-0.4,0.4l-0.7,1.6c-0.1,0.3-0.5,0.7-0.8,0.9l-1.5,0.8c-0.2,0.1-0.3,0.3-0.4,0.5
	c0,0.2,0.1,0.4,0.2,0.5l1.3,1.1c0.3,0.2,0.5,0.7,0.6,1l0.3,1.7c0,0.2,0.1,0.3,0.3,0.4c0.2,0.1,0.4,0.1,0.7,0l1.5-0.9
	c0.1-0.1,0.3-0.2,0.6-0.2c0.2,0,0.4-0.1,0.6,0l1.7,0.3c0.1,0,0.2,0,0.3,0c0.2,0,0.3-0.1,0.4-0.2c0.1-0.1,0.1-0.3,0.1-0.5l-0.4-1.7
	c-0.1-0.3,0-0.9,0.1-1.2l0.8-1.6C16.9,343.8,16.9,343.5,16.8,343.4z"/>
<circle id="XMLID_52_" class="st0" cx="42.4" cy="348" r="2.4"/>
<circle id="XMLID_7_" class="st0" cx="596.7" cy="69.6" r="1.9"/>
<circle id="XMLID_6_" class="st0" cx="642.2" cy="40.1" r="2.4"/>
<line id="XMLID_51_" class="st4" x1="89.9" y1="346" x2="99.4" y2="306.2"/>
<line id="XMLID_50_" class="st4" x1="55.9" y1="301" x2="73.6" y2="291.8"/>
<line id="XMLID_49_" class="st4" x1="74.5" y1="257.2" x2="40.9" y2="246"/>
<line id="XMLID_48_" class="st4" x1="101.6" y1="235.1" x2="102.6" y2="198.8"/>
</svg>
