<?xml version="1.0" encoding="utf-8"?>
<!-- Generator: Adobe Illustrator 19.0.0, SVG Export Plug-In . SVG Version: 6.00 Build 0)  -->
<svg version="1.1" id="Layer_1" xmlns="http://www.w3.org/2000/svg" xmlns:xlink="http://www.w3.org/1999/xlink" x="0px" y="0px"
	 viewBox="0 0 220.2 33" style="enable-background:new 0 0 220.2 33;" xml:space="preserve">
<style type="text/css">
	.st0{fill:#FFFFFF;}
</style>
<g>
	<path class="st0" d="M177.1,0h-4c-7.5,0-11.8,4.3-11.8,11.8v9.3c0,7.5,4.3,11.8,11.8,11.8h4c7.5,0,11.8-4.3,11.8-11.8v-9.3
		C188.9,4.3,184.6,0,177.1,0z M180.6,20.6c0,2.4-1.8,4.2-4.2,4.2h-2.8c-2.3,0-4.2-1.9-4.2-4.2v-8.3c0-2.3,1.9-4.2,4.2-4.2h2.8
		c2.3,0,4.2,1.9,4.2,4.2V20.6z"/>
	<path class="st0" d="M45.5,0h-4c-7.5,0-11.8,4.3-11.8,11.8v9.3c0,7.5,4.3,11.8,11.8,11.8h4c7.5,0,11.8-4.3,11.8-11.8v-9.3
		C57.3,4.3,53,0,45.5,0z M49,20.6c0,2.4-1.8,4.2-4.2,4.2h-2.8c-2.3,0-4.2-1.9-4.2-4.2v-8.3c0-2.3,1.9-4.2,4.2-4.2h2.8
		c2.3,0,4.2,1.9,4.2,4.2V20.6z"/>
	<path class="st0" d="M72.8,33c-7.6,0-11.9-4.3-11.9-11.9v-9.1C60.9,4.3,65.2,0,72.8,0h9.8c2.4,0,4.4,1.9,4.4,4.4
		c0,2.4-1.9,4.4-4.4,4.4h-9.1c-2.2,0-3.9,1.8-3.9,3.9v7.7c0,2.2,1.8,3.9,3.9,3.9h9.1c2.4,0,4.4,1.9,4.4,4.4c0,2.4-1.9,4.4-4.4,4.4
		H72.8z"/>
	<path class="st0" d="M105.6,15.8l10.1-7.9c1.9-1.5,2.3-4.3,0.8-6.2c-1.5-1.9-4.3-2.3-6.2-0.8L100,9V4.4C100,2,98,0,95.5,0
		c-2.4,0-4.4,2-4.4,4.4v24.1c0,2.4,2,4.4,4.4,4.4c2.4,0,4.4-2,4.4-4.4v-5.9l10,9.2c1.8,1.6,4.6,1.5,6.3-0.3c1.6-1.8,1.5-4.6-0.3-6.3
		L105.6,15.8z"/>
	<path class="st0" d="M18.9,19.9c2.3-0.5,4-1.5,5.2-3.1c1.4-1.7,2-4,2-6.7C26.2,3.6,22.6,0,16.1,0h-6C3.7,0,0,3.8,0,10.2l0,18.7h0
		C0,31.2,1.8,33,4.1,33s4.1-1.8,4.1-4.1h0c0-1.9,0-7.2,0-7.2l10.6,10c0.9,0.9,1.9,1.3,3.1,1.3c2.3,0,4.3-2,4.3-4.4
		c0-1.2-0.4-2.2-1.3-3L18.9,19.9z M15.7,13.6l-7.6,0v-2.9c0-1.6,1.4-3,3-3h4.6c1.6,0,2.9,1.4,2.9,3.1C18.8,12.3,17.4,13.6,15.7,13.6
		z"/>
	<path class="st0" d="M154.3,16.5c0,0,3.2-2.3,3.2-6.2c0-2.7-1.1-5.4-3-7.3c-1.9-1.9-4.6-3-7.3-3h-6.8c-6.4,0-10.1,3.5-10.1,9.9V23
		c0,6.4,3.7,9.9,10.1,9.9v0h6.8c2.7,0,5.4-1.1,7.3-3c1.9-1.9,3-4.6,3-7.3C157.6,18.8,154.3,16.5,154.3,16.5z M144.9,19.6h0.9
		c1.8,0,3.2,0.7,3.2,2.6c0,1.8-1.5,2.7-3.2,2.7h-4.2c-1.7,0-3.2-1.2-3.2-3V11.2c0-1.8,1.4-3.1,3.2-3.1h4.2c1.8,0,3.2,0.7,3.2,2.5
		c0,1.8-1.5,2.7-3.2,2.7h-0.9c-1.8,0-3.2,0.7-3.2,3.1C141.7,18.7,143.1,19.6,144.9,19.6z"/>
	<path class="st0" d="M192.2,28.8c0-0.2,0-0.4,0-0.6l0,0c0-1,0.3-2,1-2.9l0,0l7.1-8.9l-0.3-0.4l-6.8-8.5c-0.7-0.8-1-1.8-1-2.9l0,0
		c0-0.2,0-0.4,0-0.5l0,0c0.2-2.3,2.2-4.2,4.6-4.2l0,0c0.2,0,0.3,0,0.5,0l0,0c1.2,0.1,2.3,0.7,3.1,1.7l0,0l5.9,7.4l5.9-7.4
		c0.8-1,1.8-1.6,3.1-1.7l0,0c0.2,0,0.3,0,0.5,0l0,0c2.4,0,4.3,1.8,4.6,4.2l0,0c0,0.2,0,0.4,0,0.5l0,0c0,1-0.3,2-1,2.8l0,0l-6.8,8.5
		l-0.3,0.4l7.1,8.9c0.7,0.8,1,1.8,1,2.9l0,0c0,0.2,0,0.4,0,0.5l0,0c-0.2,2.3-2.2,4.2-4.6,4.2l0,0c-0.2,0-0.3,0-0.5,0l0,0
		c-1.2-0.1-2.3-0.7-3.1-1.7l0,0l-5.9-7.4l-5.9,7.4c-0.8,1-1.8,1.6-3.1,1.7l0,0c-0.2,0-0.3,0-0.5,0l0,0
		C194.4,33,192.4,31.1,192.2,28.8L192.2,28.8z"/>
</g>
</svg>
