<?xml version="1.0" encoding="utf-8"?>
<!-- Generator: Adobe Illustrator 19.0.0, SVG Export Plug-In . SVG Version: 6.00 Build 0)  -->
<svg version="1.1" id="Layer_1" xmlns="http://www.w3.org/2000/svg" xmlns:xlink="http://www.w3.org/1999/xlink" x="0px" y="0px"
	 viewBox="0 0 148.4 152.8" style="enable-background:new 0 0 148.4 152.8;" xml:space="preserve">
<style type="text/css">
	.st0{fill:#F6EB16;}
</style>
<path class="st0" d="M148.4,73.3c-0.2-3.3-2.2-6.3-5.4-8.3l-24.6-15c-4.9-3-10.6-10.1-12.5-15.4L96.2,7.4c-1.3-3.6-3.8-6.2-7-7.1
	c-3.2-0.8-6.6,0.1-9.6,2.6L57.7,21.7c-4.3,3.7-12.8,7-18.6,7.1l-28.8,0.7c-3.9,0.1-7.1,1.7-8.9,4.5c-1.8,2.7-2,6.4-0.5,9.9
	l11.1,26.6c2.2,5.3,2.7,14.4,1,19.9l-8.2,27.6c-0.9,3.1-0.7,6.1,0.7,8.5c1.8,3.3,5.7,5.1,10.1,4.8l28.7-2.3c2.7-0.2,6.4,0.2,10,1.2
	c3.6,1,7,2.4,9.2,4l23.8,16.4c1.3,0.9,2.6,1.5,3.9,1.8c2.6,0.7,5.1,0.4,7.3-0.9c2.4-1.4,4.1-3.9,4.8-7.1l6.7-28.1
	c1.3-5.6,6.3-13.2,10.8-16.7l22.9-17.5C146.9,79.8,148.5,76.6,148.4,73.3z M46.6,50.4c2.3,0.6,3.7,3,3.1,5.3c-0.6,2.3-3,3.7-5.3,3.1
	c-2.3-0.6-3.7-3-3.1-5.3C41.9,51.2,44.3,49.8,46.6,50.4z M94.7,87.5c-7.1,3.8-18.8,4.2-30.6,1C52.2,85.3,42.2,79.1,38,72.2
	c-0.6-1.1-0.3-2.4,0.8-3.1c1.1-0.6,2.4-0.3,3.1,0.8c3.5,5.9,12.7,11.5,23.4,14.4c10.6,2.8,21.3,2.6,27.3-0.6c1.1-0.6,2.4-0.2,3,0.9
	C96.2,85.6,95.8,86.9,94.7,87.5z M99.1,73.5c-2.3-0.6-3.7-3-3.1-5.3c0.6-2.3,3-3.7,5.3-3.1c2.3,0.6,3.7,3,3.1,5.3
	C103.8,72.8,101.4,74.1,99.1,73.5z"/>
</svg>
