<?xml version="1.0" encoding="utf-8"?>
<!-- Generator: Adobe Illustrator 19.0.0, SVG Export Plug-In . SVG Version: 6.00 Build 0)  -->
<svg version="1.1" id="Layer_1" xmlns="http://www.w3.org/2000/svg" xmlns:xlink="http://www.w3.org/1999/xlink" x="0px" y="0px"
	 viewBox="0 0 37.5 37.5" style="enable-background:new 0 0 37.5 37.5;" xml:space="preserve">
<style type="text/css">
	.st0{fill:#FFFFFF;}
</style>
<path id="XMLID_54_" class="st0" d="M18.7,0C8.4,0,0,8.4,0,18.7c0,10.4,8.4,18.8,18.8,18.8c10.4,0,18.8-8.4,18.8-18.8
	C37.5,8.4,29.1,0,18.7,0z M28.5,19.1c-2,8-15.3,11.4-21.4,3.1c2.3,2.2,6.4,2.4,9-0.2c-1.5,0.2-2.6-1.3-0.8-2.1
	c-1.7,0.2-2.6-0.7-3-1.5c0.4-0.4,0.8-0.6,1.7-0.7c-1.8-0.4-2.5-1.3-2.7-2.4c0.5-0.1,1.1-0.2,1.5-0.2c-1.6-0.8-2.2-2.1-2.1-3.1
	c2.9,1.1,4.7,1.9,6.2,2.7c0.5,0.3,1.2,0.8,1.8,1.5c0.9-2.3,2-4.7,3.8-5.9c0,0.3-0.2,0.5-0.4,0.7c0.5-0.5,1.2-0.8,1.9-0.9
	c-0.1,0.5-0.8,0.8-1.3,1c0.3-0.1,2.2-0.9,2.4-0.5c0.2,0.5-1.3,0.8-1.5,0.9c-0.2,0.1-0.4,0.1-0.6,0.2c2.3-0.2,4.5,1.7,5.1,4
	c0,0.2,0.1,0.4,0.1,0.6c0.8,0.3,2.4,0,2.9-0.3c-0.4,0.8-1.3,1.5-2.6,1.6c0.7,0.3,1.9,0.4,2.7,0.3C30.8,18.5,29.9,19.1,28.5,19.1z"/>
</svg>
