<?xml version="1.0" encoding="utf-8"?>
<!-- Generator: Adobe Illustrator 19.0.0, SVG Export Plug-In . SVG Version: 6.00 Build 0)  -->
<svg version="1.1" id="Layer_1" xmlns="http://www.w3.org/2000/svg" xmlns:xlink="http://www.w3.org/1999/xlink" x="0px" y="0px"
	 viewBox="0 0 116 232.2" style="enable-background:new 0 0 116 232.2;" xml:space="preserve">
<style type="text/css">
	.st0{fill:#FFFFFF;}
	.st1{fill:#F6EB16;}
	.st2{fill:#E4477E;}
	.st3{fill:#ED237A;}
</style>
<path id="XMLID_47_" class="st0" d="M60.9,18.5c0.7-1.2,0.1-2.3-1.3-2.3l-7.2-0.1c-1.4,0-2.3-1.2-1.9-2.5l3.3-12.3
	c0.4-1.4-0.1-1.6-1.1-0.6L31.5,23c-1,1-0.6,1.9,0.8,1.9l4.1,0.1c1.4,0,1.9,1,1.2,2.2L27.4,43c-0.8,1.2-0.2,2.2,1.2,2.2l6.5,0.1
	c1.4,0,2.3,1.2,1.9,2.5l-2.8,10.6c-0.4,1.4,0.2,1.7,1.2,0.7l24.1-22.6c1-1,0.7-1.8-0.7-1.8l-4.4-0.1c-1.4,0-2-1.1-1.3-2.3L60.9,18.5
	z M36.5,38.3c-0.4,0-0.7-0.3-0.7-0.7c0-0.4,0.3-0.7,0.7-0.7c0.4,0,0.7,0.3,0.7,0.7C37.2,38,36.9,38.3,36.5,38.3z M48,41.1
	c-1,0.9-2.8,1.4-4.8,1.4c-2,0-3.9-0.6-4.8-1.6c-0.1-0.1-0.1-0.4,0-0.5c0.1-0.1,0.4-0.1,0.5,0c0.8,0.8,2.5,1.3,4.3,1.4
	c1.8,0,3.5-0.4,4.3-1.2c0.2-0.1,0.4-0.1,0.5,0C48.2,40.7,48.2,41,48,41.1z M50.5,38.6c-0.4,0-0.7-0.3-0.7-0.7c0-0.4,0.3-0.7,0.7-0.7
	c0.4,0,0.7,0.3,0.7,0.7C51.2,38.3,50.9,38.6,50.5,38.6z"/>
<path id="XMLID_42_" class="st0" d="M74.2,209.9c-0.1-0.9-0.7-1.6-1.6-2.1l-6.8-3.4c-1.4-0.7-3-2.4-3.7-3.8l-3.2-7
	c-0.4-0.9-1.2-1.6-2-1.7c-0.9-0.2-1.8,0.2-2.5,0.9l-5.4,5.5c-1.1,1.1-3.2,2.1-4.7,2.3l-7.6,0.8c-1,0.1-1.8,0.6-2.2,1.4
	c-0.4,0.8-0.4,1.7,0.1,2.6l3.5,6.8c0.7,1.3,1,3.7,0.7,5.2l-1.5,7.5c-0.2,0.8,0,1.6,0.4,2.2c0.6,0.8,1.6,1.2,2.8,1L48,227
	c0.7-0.1,1.7-0.1,2.7,0.1c1,0.2,1.9,0.5,2.5,0.8l6.6,3.8c0.4,0.2,0.7,0.3,1.1,0.4c0.7,0.1,1.4,0,1.9-0.4c0.6-0.4,1-1.1,1.1-2
	l1.1-7.6c0.2-1.5,1.4-3.6,2.5-4.7l5.7-5.2C73.9,211.7,74.3,210.8,74.2,209.9z M46.8,206.2c0.6,0.1,1,0.7,0.9,1.3
	c-0.1,0.6-0.7,1-1.3,0.9c-0.6-0.1-1-0.7-0.9-1.3C45.5,206.5,46.1,206.1,46.8,206.2z M60.3,214.9c-1.8,1.2-4.9,1.5-8.1,1
	c-3.2-0.6-6-2-7.3-3.7c-0.2-0.3-0.1-0.6,0.1-0.8c0.3-0.2,0.6-0.1,0.8,0.1c1.1,1.5,3.6,2.7,6.5,3.3c2.9,0.5,5.7,0.2,7.2-0.8
	c0.3-0.2,0.6-0.1,0.8,0.2C60.7,214.3,60.6,214.7,60.3,214.9z M61.2,211.1c-0.6-0.1-1-0.7-0.9-1.3c0.1-0.6,0.7-1,1.3-0.9
	c0.6,0.1,1,0.7,0.9,1.3S61.8,211.2,61.2,211.1z"/>
<path id="XMLID_41_" class="st1" d="M48.1,118.4c0.2-1.8,0.3-3.2-2.2-3.5l-17.3-2.2c-2.7-0.3-3,1.1-3.3,2.9
	c-0.1,0.4-1.6,12.6-1.6,12.6c-0.7-0.2-1.4-0.3-2.1-0.3c-3.1,0-5.6,2-5.6,4.5c0,2.4,2.6,4.4,5.7,4.4c2.7,0,4.9-1.6,5.5-3.6
	c0.2-0.3,1.9-13.9,1.9-13.9l14.6,1.8l-0.9,7.1c-0.7-0.2-1.4-0.3-2.2-0.3c-3.1,0-5.6,2-5.6,4.5c0,2.4,2.6,4.4,5.7,4.4
	c2.8,0,5-1.6,5.5-3.7C46.4,132.9,48,118.6,48.1,118.4z"/>
<path id="XMLID_40_" class="st0" d="M32.3,80.4l-6.9-0.1c-2.5,0-2.7,1.4-2.7,2.9c0,0.4,0.3,0.7,0.3,1c0,0.1,0.3,0.3,0.2,0.4
	l-0.2,8.6c-0.8-0.1-1.4-0.1-1.9,0c-1.3,0.1-2.6,0.7-3.4,1.5c-0.8,0.8-1.3,1.9-1.2,2.9c0.2,1.9,2.1,3.3,4.4,3.3c0.3,0,0.5,0,0.8,0
	c2.2-0.3,3.7-1.6,4.1-3.3c0.2-0.4,0.2-0.8,0.2-1.3l0.2-10.4l5.8,0.1c2.7,0.1,2.7-1.4,2.7-2.7C34.9,81.8,34.6,80.5,32.3,80.4z"/>
<circle id="XMLID_24_" class="st2" cx="43.8" cy="187.6" r="1.6"/>
<circle id="XMLID_23_" class="st2" cx="26.5" cy="226.6" r="1.6"/>
<path id="XMLID_22_" class="st0" d="M97.4,127.3c-0.1-0.2-0.3-0.3-0.5-0.3l-1.8-0.2c-0.4,0-0.9-0.3-1.1-0.5l-1.3-1.3
	c-0.2-0.2-0.4-0.2-0.6-0.2c-0.2,0-0.4,0.2-0.5,0.4l-0.7,1.7c-0.1,0.3-0.5,0.7-0.8,0.9l-1.6,0.8c-0.2,0.1-0.4,0.3-0.4,0.5
	c0,0.2,0.1,0.4,0.2,0.6l1.4,1.2c0.3,0.2,0.5,0.7,0.6,1.1l0.3,1.8c0,0.2,0.1,0.4,0.3,0.5c0.2,0.1,0.5,0.1,0.7,0l1.6-0.9
	c0.1-0.1,0.4-0.2,0.6-0.2s0.5-0.1,0.6,0l1.8,0.3c0.1,0,0.2,0,0.3,0c0.2,0,0.3-0.1,0.4-0.3c0.1-0.1,0.1-0.3,0.1-0.5l-0.4-1.8
	c-0.1-0.3,0-0.9,0.1-1.2l0.8-1.6C97.5,127.7,97.5,127.5,97.4,127.3z"/>
<circle id="XMLID_21_" class="st0" cx="2.5" cy="45.3" r="2.5"/>
<path id="XMLID_19_" class="st0" d="M104.6,12.9c-0.1-0.2-0.3-0.3-0.6-0.3l-1.9-0.2c-0.4,0-0.9-0.3-1.2-0.5l-1.4-1.3
	c-0.2-0.2-0.4-0.3-0.6-0.2c-0.2,0-0.4,0.2-0.5,0.4l-0.7,1.7c-0.1,0.3-0.6,0.8-0.9,1l-1.7,0.9c-0.2,0.1-0.4,0.3-0.4,0.5
	c0,0.2,0.1,0.4,0.3,0.6l1.4,1.2c0.3,0.2,0.6,0.8,0.6,1.1l0.3,1.9c0,0.2,0.1,0.4,0.3,0.5c0.2,0.1,0.5,0.1,0.7,0l1.6-1
	c0.2-0.1,0.4-0.2,0.6-0.2c0.2,0,0.5-0.1,0.7,0l1.9,0.3c0.1,0,0.2,0,0.3,0c0.2,0,0.3-0.1,0.4-0.3c0.1-0.2,0.1-0.4,0.1-0.6l-0.4-1.9
	c-0.1-0.4,0-1,0.2-1.3l0.8-1.7C104.7,13.3,104.7,13,104.6,12.9z"/>
<circle id="XMLID_18_" class="st0" cx="113.5" cy="182.3" r="2.5"/>
<circle id="XMLID_17_" class="st0" cx="110.5" cy="61.3" r="2.5"/>
<path id="XMLID_14_" class="st3" d="M62.3,145.3c-0.2-0.1-0.5-0.1-0.7,0l-11.5,6.2c-0.2,0.1-0.4,0.4-0.4,0.6s0.1,0.5,0.3,0.6
	l11.2,6.9c0.1,0.1,0.2,0.1,0.4,0.1c0.1,0,0.3,0,0.4-0.1c0.2-0.1,0.4-0.4,0.4-0.6l0.2-13.1C62.7,145.6,62.5,145.4,62.3,145.3z
	 M47.6,145c-0.2-0.1-0.5-0.1-0.7,0l-11.5,6.2c-0.2,0.1-0.4,0.4-0.4,0.6c0,0.3,0.1,0.5,0.3,0.6l11.2,6.9c0.1,0.1,0.2,0.1,0.4,0.1
	c0.1,0,0.3,0,0.4-0.1c0.2-0.1,0.4-0.4,0.4-0.6l0.2-13.1C48,145.4,47.8,145.1,47.6,145z"/>
<path id="XMLID_9_" class="st3" d="M88.5,72.5c-0.1-0.2-0.3-0.3-0.6-0.3l-6.4,1.5l0.2-3.9c0-0.2-0.1-0.3-0.2-0.4
	c-0.1-0.1-0.3-0.1-0.5-0.1L77,70.6L76.7,65c0-0.2-0.1-0.3-0.2-0.4c-0.1-0.1-0.3-0.1-0.5-0.1l-5.3,1.9l0.3-4.2c0-0.2-0.1-0.4-0.2-0.5
	c-0.1-0.1-0.3-0.1-0.5,0l-4,1.8l-1.1-6.4c0-0.2-0.2-0.4-0.5-0.4c-0.2,0-0.5,0.1-0.5,0.4l-3.8,12.8c0,0,0,0,0,0.1
	c-6.9,2.6-11.7,10.4-13.7,16.7c-2.7,8.7,2.6,16.5,11.3,19.2c8.7,2.7,17.5-0.7,20.2-9.4c1.3-4.2,1.7-9.9,0.5-15l9.6-8.3
	C88.5,72.9,88.6,72.7,88.5,72.5z M48.5,91.6c-0.4-0.1-0.6-0.6-0.5-1c0.1-0.4,0.6-0.6,1-0.5c0.4,0.1,0.6,0.6,0.5,1
	C49.3,91.5,48.9,91.7,48.5,91.6z M63.1,99.8c-1.6,0.7-4.2,0.5-6.8-0.4c-2.6-1-4.6-2.5-5.4-4.2c-0.1-0.2,0-0.5,0.2-0.7
	c0.2-0.1,0.5,0,0.7,0.2c0.7,1.4,2.6,2.8,4.9,3.7c2.3,0.8,4.6,1,6,0.4c0.3-0.1,0.5,0,0.6,0.3C63.5,99.4,63.4,99.6,63.1,99.8z
	 M67.1,98.6c-0.4-0.1-0.6-0.6-0.5-1c0.1-0.4,0.6-0.6,1-0.5c0.4,0.1,0.6,0.6,0.5,1S67.5,98.7,67.1,98.6z"/>
</svg>
