<?xml version="1.0" encoding="utf-8"?>
<!-- Generator: Adobe Illustrator 19.0.0, SVG Export Plug-In . SVG Version: 6.00 Build 0)  -->
<svg version="1.1" id="Layer_1" xmlns="http://www.w3.org/2000/svg" xmlns:xlink="http://www.w3.org/1999/xlink" x="0px" y="0px"
	 viewBox="0 0 1033.6 321.5" style="enable-background:new 0 0 1033.6 321.5;" xml:space="preserve">
<style type="text/css">
	.st0{fill:none;}
	.st1{fill:#414142;}
	.st2{opacity:0.7;fill:url(#SVGID_1_);}
</style>
<pattern  x="17" y="-339.9" width="268.8" height="266.2" patternUnits="userSpaceOnUse" id="New_Pattern_3" viewBox="0 -266.2 268.8 266.2" style="overflow:visible;">
	<g>
		<polygon class="st0" points="0,-266.2 268.8,-266.2 268.8,0 0,0 		"/>
		<path class="st1" d="M152.9-95.6c-0.5,1.5-1.9,2.4-2.8,2.8c0.9,1.2,1.7,3.4-0.1,5.5c-0.9,1-2,1.5-3.5,1.5c-1.4,0-2.7-0.5-3.4-0.8
			c-0.6,1.3-2.6,4.6-7.1,4.6c-0.1,0-0.2,0-0.2,0l-0.1,0l-0.1,0c-0.1,0-0.2,0-0.2,0c-4.5,0-6.5-3.3-7.1-4.6c-0.7,0.3-2,0.8-3.4,0.8
			c-1.4,0-2.6-0.5-3.5-1.5c-1.8-2.1-1-4.3-0.1-5.5c-0.8-0.4-2.2-1.4-2.8-2.8c-0.4-1.1-0.3-2.3,0.4-3.6c1.4-2.6,3.3-3.1,4.7-3.1
			c0.5,0,1,0.1,1.3,0.2c0.3-0.7,0.9-2,1.9-3.3c1.4-1.9,4.1-4.1,8.8-4.1c0,0,0,0,0,0l0,0c4.7,0,7.4,2.3,8.8,4.1
			c1.1,1.3,1.7,2.6,1.9,3.3c0.3-0.1,0.8-0.2,1.3-0.2c1.4,0,3.3,0.5,4.7,3.1C153.2-97.9,153.3-96.7,152.9-95.6z M128.2-91.8
			c0-0.3-0.3-0.6-0.6-0.6s-0.6,0.3-0.6,0.6s0.3,0.6,0.6,0.6S128.2-91.4,128.2-91.8z M137.8-90.5c0-0.5-0.5-0.9-0.9-0.9l-2.6,0
			c-0.4,0-0.6,0.2-0.8,0.3c-0.1,0.2-0.1,0.4-0.1,0.5c0,0.4,0.1,1.8,0.9,2.6c0.4,0.4,0.9,0.6,1.4,0.6C137-87.4,137.8-88.6,137.8-90.5
			z M145.6-91.8c0-0.3-0.3-0.6-0.6-0.6c-0.3,0-0.6,0.3-0.6,0.6s0.3,0.6,0.6,0.6C145.3-91.1,145.6-91.4,145.6-91.8z"/>
		<path class="st1" d="M118.3-252.2c-0.5,1.5-1.9,2.4-2.8,2.8c0.9,1.2,1.7,3.4-0.1,5.5c-0.9,1-2,1.5-3.5,1.5c-1.4,0-2.7-0.5-3.4-0.8
			c-0.6,1.3-2.6,4.6-7.1,4.6c-0.1,0-0.2,0-0.2,0l-0.1,0l-0.1,0c-0.1,0-0.2,0-0.2,0c-4.5,0-6.5-3.3-7.1-4.6c-0.7,0.3-2,0.8-3.4,0.8
			c-1.4,0-2.6-0.5-3.5-1.5c-1.8-2.1-1-4.3-0.1-5.5c-0.8-0.4-2.2-1.4-2.8-2.8c-0.4-1.1-0.3-2.3,0.4-3.6c1.4-2.6,3.3-3.1,4.7-3.1
			c0.5,0,1,0.1,1.3,0.2c0.3-0.7,0.9-2,1.9-3.3c1.4-1.9,4.1-4.1,8.8-4.1c0,0,0,0,0,0l0,0c4.7,0,7.4,2.3,8.8,4.1
			c1.1,1.3,1.7,2.6,1.9,3.3c0.3-0.1,0.8-0.2,1.3-0.2c1.4,0,3.3,0.5,4.7,3.1C118.5-254.5,118.7-253.3,118.3-252.2z M93.5-248.4
			c0-0.3-0.3-0.6-0.6-0.6c-0.3,0-0.6,0.3-0.6,0.6s0.3,0.6,0.6,0.6C93.2-247.8,93.5-248.1,93.5-248.4z M103.2-247.2
			c0-0.5-0.5-0.9-0.9-0.9l-2.6,0c-0.4,0-0.6,0.2-0.8,0.3c-0.1,0.2-0.1,0.4-0.1,0.5c0,0.4,0.1,1.8,0.9,2.6c0.4,0.4,0.9,0.6,1.4,0.6
			C102.3-244,103.2-245.2,103.2-247.2z M110.9-248.4c0-0.3-0.3-0.6-0.6-0.6c-0.3,0-0.6,0.3-0.6,0.6s0.3,0.6,0.6,0.6
			C110.6-247.8,110.9-248.1,110.9-248.4z"/>
		<path class="st1" d="M153.1-137v2.7c0,4.2-0.6,9.1-1.7,12.9c-1.3,4.8-3.1,7.2-5.2,7.2h0c-2.5,0-4.8-3.4-7.2-10.4
			c-0.1-0.1-0.6-1.2-2.2-1.2c-1,0-1.7,1.1-1.8,1.3c-2.9,6.9-5.4,10.1-7.9,10.1c-2.3,0-4-2.7-5.2-8.1c-0.9-4.1-1.3-8.8-1.3-11.7v-2.7
			c0-8.3,4.8-13.1,13.1-13.1h6.3C148.4-150.2,153.1-145.4,153.1-137z M147.8-137.9c0-3.7-3-6.6-6.6-6.6h-9c-3.7,0-6.6,3-6.6,6.6
			s3,6.6,6.6,6.6h9C144.8-131.3,147.8-134.2,147.8-137.9z M129.2-138.8c0,0.5-0.4,0.9-0.9,0.9c-0.5,0-0.9-0.4-0.9-0.9
			c0-0.5,0.4-0.9,0.9-0.9C128.9-139.7,129.2-139.3,129.2-138.8z M145.4-139.7c0.5,0,0.9,0.4,0.9,0.9c0,0.5-0.4,0.9-0.9,0.9
			c-0.5,0-0.9-0.4-0.9-0.9C144.5-139.3,144.9-139.7,145.4-139.7z M142.4-135.4c0.2,0.2,0.2,0.5,0,0.6c-1.2,1.1-3.4,1.8-5.8,1.8
			c-2.5,0-4.7-0.7-5.9-1.8c-0.2-0.2-0.2-0.5,0-0.6c0.2-0.2,0.5-0.2,0.6,0c1,0.9,3.1,1.6,5.3,1.6c2.2,0,4.2-0.6,5.2-1.5
			C142-135.6,142.3-135.6,142.4-135.4z"/>
		<path class="st1" d="M59.6-254.9v2.3c0,3.6-0.5,7.8-1.4,10.9c-1.1,4.1-2.6,6.1-4.4,6.1h0c-2.1,0-4.1-2.9-6.1-8.8
			c-0.1-0.1-0.5-1-1.8-1c-0.8,0-1.4,0.9-1.5,1.1c-2.5,5.8-4.6,8.6-6.7,8.6c-1.9,0-3.4-2.3-4.4-6.9c-0.8-3.5-1.1-7.5-1.1-10v-2.3
			c0-7.1,4.1-11.2,11.2-11.2h5.3C55.6-266,59.6-262,59.6-254.9z M55.1-255.6c0-3.1-2.5-5.6-5.6-5.6h-7.6c-3.1,0-5.6,2.5-5.6,5.6
			c0,3.1,2.5,5.6,5.6,5.6h7.6C52.5-250,55.1-252.5,55.1-255.6z M39.3-256.4c0,0.4-0.3,0.7-0.7,0.7s-0.7-0.3-0.7-0.7
			c0-0.4,0.3-0.7,0.7-0.7S39.3-256.8,39.3-256.4z M53-257.1c0.4,0,0.7,0.3,0.7,0.7c0,0.4-0.3,0.7-0.7,0.7s-0.7-0.3-0.7-0.7
			C52.3-256.8,52.6-257.1,53-257.1z M50.5-253.5c0.1,0.2,0.1,0.4,0,0.5c-1,0.9-2.9,1.5-5,1.5c-2.1,0-4-0.6-5-1.5
			c-0.2-0.1-0.2-0.4,0-0.5c0.1-0.2,0.4-0.2,0.5,0c0.8,0.8,2.6,1.3,4.5,1.3c1.9,0,3.6-0.5,4.5-1.3C50.1-253.7,50.4-253.7,50.5-253.5z
			"/>
		<path class="st1" d="M118.2-41.5l-0.9,0.6c-0.1,0.1-0.2,0.1-0.3,0.2c-0.1,2-0.5,4.1-0.9,5.7c-0.8,2.8-1.8,4.2-3.1,4.2
			c-1.5,0-2.8-2-4.3-6.1c0-0.1-0.4-0.7-1.3-0.7c-0.6,0-1,0.6-1.1,0.8c-1.7,4-3.2,5.9-4.6,5.9c-1.3,0-2.4-1.6-3.1-4.7
			c-0.4-1.7-0.6-3.7-0.7-5.3c-0.1-0.1-0.2-0.1-0.3-0.2l-0.9-0.6c-2.1-1.4-6.1-4.8-5.6-6.5c0.2-0.6,0.8-0.9,1.8-0.9
			c0.9,0,2,0.2,3.5,0.6l0,0c0,0,1,0.4,1.8,0.4c0.1,0,0.2,0,0.3,0l0.1,0c1.2-2.3,3.5-3.6,6.8-3.6h3.7c3.4,0,5.8,1.4,7,3.9
			c0.1,0,0.2,0,0.3,0h0c0.8,0,1.8-0.4,1.8-0.4l0,0c1.5-0.4,2.7-0.6,3.5-0.6c1,0,1.6,0.3,1.8,0.9C124.4-46.3,120.3-42.9,118.2-41.5z
			 M114.4-44.7c0-2.4-1.9-4.4-4.4-4.4h-5.3c-2.4,0-4.4,1.9-4.4,4.4s1.9,4.4,4.4,4.4h5.3C112.5-40.3,114.4-42.3,114.4-44.7z
			 M103.1-45.2c0,0.3-0.2,0.5-0.5,0.5c-0.3,0-0.5-0.2-0.5-0.5c0-0.3,0.2-0.5,0.5-0.5C102.8-45.7,103.1-45.5,103.1-45.2z M113.1-45.2
			c0,0.3-0.2,0.5-0.5,0.5c-0.3,0-0.5-0.2-0.5-0.5c0-0.3,0.2-0.5,0.5-0.5C112.8-45.7,113.1-45.5,113.1-45.2z M110.8-43.2
			c0.1,0.1,0.1,0.3,0,0.4c-0.7,0.6-2,1-3.4,1c-1.5,0-2.8-0.4-3.5-1.1c-0.1-0.1-0.1-0.3,0-0.4c0.1-0.1,0.3-0.1,0.4,0
			c0.6,0.6,1.8,0.9,3.1,0.9c1.3,0,2.5-0.4,3.1-0.9C110.6-43.3,110.7-43.3,110.8-43.2z"/>
		<path class="st1" d="M237.4-196.9l-0.8,0.6c-0.1,0.1-0.2,0.1-0.2,0.2c-0.1,1.8-0.4,3.7-0.8,5.3c-0.7,2.6-1.7,3.9-2.8,3.9
			c-1.3,0-2.6-1.8-3.9-5.6c0-0.1-0.3-0.7-1.2-0.7c-0.5,0-0.9,0.6-1,0.7c-1.6,3.7-2.9,5.4-4.3,5.4c-1.2,0-2.2-1.5-2.8-4.4
			c-0.4-1.6-0.6-3.4-0.7-4.9c-0.1-0.1-0.2-0.1-0.2-0.2l-0.8-0.6c-1.9-1.3-5.6-4.4-5.2-6c0.2-0.5,0.7-0.8,1.6-0.8
			c0.8,0,1.9,0.2,3.3,0.6l0,0c0,0,1,0.3,1.7,0.3c0.1,0,0.2,0,0.3,0l0.1,0c1.1-2.1,3.2-3.3,6.3-3.3h3.4c3.1,0,5.4,1.3,6.4,3.6
			c0.1,0,0.2,0,0.3,0h0c0.7,0,1.7-0.3,1.7-0.3l0,0c1.4-0.4,2.5-0.6,3.3-0.6c0.9,0,1.5,0.3,1.6,0.8
			C243.1-201.3,239.3-198.2,237.4-196.9z M233.9-199.8c0-2.2-1.8-4-4-4h-4.8c-2.2,0-4,1.8-4,4c0,2.2,1.8,4,4,4h4.8
			C232.1-195.8,233.9-197.6,233.9-199.8z M223.5-200.3c0,0.3-0.2,0.5-0.5,0.5c-0.3,0-0.5-0.2-0.5-0.5c0-0.3,0.2-0.5,0.5-0.5
			C223.3-200.7,223.5-200.5,223.5-200.3z M232.7-200.3c0,0.3-0.2,0.5-0.5,0.5s-0.5-0.2-0.5-0.5c0-0.3,0.2-0.5,0.5-0.5
			S232.7-200.5,232.7-200.3z M230.6-198.4c0.1,0.1,0.1,0.2,0,0.3c-0.6,0.6-1.8,1-3.2,1c-1.3,0-2.6-0.4-3.2-1c-0.1-0.1-0.1-0.2,0-0.3
			c0.1-0.1,0.2-0.1,0.3,0c0.5,0.5,1.6,0.8,2.8,0.8c1.2,0,2.3-0.3,2.8-0.8C230.4-198.5,230.5-198.5,230.6-198.4z"/>
		<path class="st1" d="M77-49.8c-0.5,0.9-0.1,1.6,1,1.6h3.2c1,0,1.3,0.6,0.5,1.3L64.6-30.2c-0.7,0.7-1.1,0.5-0.9-0.5l1.9-7.7
			c0.2-1-0.4-1.8-1.4-1.8h-4.7c-1,0-1.4-0.7-0.9-1.6l7.2-11.5c0.5-0.9,0.1-1.6-0.9-1.6h-3c-1,0-1.3-0.6-0.6-1.4l15-16.5
			c0.7-0.8,1.1-0.6,0.8,0.4l-2.2,8.9c-0.2,1,0.4,1.8,1.4,1.8h5.2c1,0,1.5,0.7,1,1.6L77-49.8z M65.7-45.8c0-0.3-0.2-0.5-0.5-0.5
			c-0.3,0-0.5,0.2-0.5,0.5c0,0.3,0.2,0.5,0.5,0.5C65.5-45.3,65.7-45.5,65.7-45.8z M73.6-43.8c-0.1-0.1-0.3-0.1-0.4,0
			c-0.6,0.6-1.8,0.9-3.1,0.9c-1.3,0-2.6-0.4-3.1-0.9c-0.1-0.1-0.3-0.1-0.4,0c-0.1,0.1-0.1,0.3,0,0.4c0.7,0.7,2,1.1,3.5,1.1
			c1.5,0,2.8-0.4,3.5-1.1C73.6-43.5,73.7-43.7,73.6-43.8z M75.8-45.8c0-0.3-0.2-0.5-0.5-0.5s-0.5,0.2-0.5,0.5c0,0.3,0.2,0.5,0.5,0.5
			S75.8-45.5,75.8-45.8z"/>
		<path class="st1" d="M27.9-208.6c-0.7,1.2-0.1,2.3,1.3,2.3h4.4c1.4,0,1.7,0.8,0.7,1.8l-23.5,22.8c-1,1-1.6,0.7-1.2-0.7l2.6-10.5
			c0.3-1.4-0.5-2.5-1.9-2.5H3.9c-1.4,0-2-1-1.2-2.2l9.9-15.8c0.7-1.2,0.2-2.2-1.2-2.2H7.3c-1.4,0-1.8-0.9-0.8-1.9L27-240.1
			c0.9-1,1.4-0.8,1.1,0.6l-3,12.2c-0.3,1.4,0.5,2.5,1.9,2.5h7.1c1.4,0,2,1,1.3,2.3L27.9-208.6z M12.4-203.2c0-0.4-0.3-0.7-0.7-0.7
			c-0.4,0-0.7,0.3-0.7,0.7c0,0.4,0.3,0.7,0.7,0.7C12.1-202.5,12.4-202.8,12.4-203.2z M23.2-200.4c-0.1-0.1-0.4-0.2-0.5,0
			c-0.8,0.8-2.5,1.3-4.3,1.3c-1.8,0-3.5-0.5-4.3-1.3c-0.1-0.1-0.4-0.1-0.5,0c-0.1,0.1-0.1,0.4,0,0.5c0.9,0.9,2.8,1.5,4.8,1.5
			c2,0,3.8-0.6,4.8-1.5C23.3-200,23.3-200.3,23.2-200.4z M26.3-203.2c0-0.4-0.3-0.7-0.7-0.7s-0.7,0.3-0.7,0.7c0,0.4,0.3,0.7,0.7,0.7
			S26.3-202.8,26.3-203.2z"/>
		<path class="st1" d="M99.9-130.1v2c0,6.3-3.6,9.9-9.9,9.9h-4.8c-6.3,0-9.9-3.6-9.9-9.9v-2c0-3.3,1-5.8,2.8-7.5
			c0-3.8-0.3-13.7,2.3-13.7c2.6,0,2.4,7.8,2.4,11.5c0.8-0.1,1.6-0.2,2.5-0.2H90c0.7,0,1.3,0,2,0.1c0-3.9-0.2-11.9,2.3-11.9
			c2.6,0,2.4,10.2,2.4,13.7C98.7-136.3,99.9-133.6,99.9-130.1z M79.9-126.9c0.5,0,0.8-0.4,0.8-0.8c0-0.5-0.4-0.8-0.8-0.8
			c-0.5,0-0.8,0.4-0.8,0.8C79.1-127.3,79.5-126.9,79.9-126.9z M95.4-124.1c-0.2-0.2-0.4-0.2-0.6,0c-1.4,1.3-4.2,2.1-7.2,2.1h0
			c-3,0-5.9-0.8-7.2-2.2c-0.2-0.2-0.4-0.2-0.6,0c-0.2,0.2-0.2,0.4,0,0.6c1.5,1.5,4.5,2.4,7.8,2.4h0c3.2,0,6.2-0.9,7.8-2.3
			C95.5-123.7,95.5-123.9,95.4-124.1z M96.3-127.8c0-0.5-0.4-0.8-0.8-0.8c-0.5,0-0.8,0.4-0.8,0.8c0,0.5,0.4,0.8,0.8,0.8
			C96-126.9,96.3-127.3,96.3-127.8z"/>
		<path class="st1" d="M248.6-157.5v2.1c0,6.6-3.8,10.4-10.4,10.4h-5c-6.6,0-10.4-3.8-10.4-10.4v-2.1c0-3.4,1-6.1,2.9-7.9
			c0-4-0.3-14.4,2.4-14.4c2.7,0,2.5,8.2,2.5,12.1c0.8-0.1,1.7-0.2,2.6-0.2h5c0.7,0,1.4,0,2.1,0.1c0-4.1-0.2-12.5,2.4-12.5
			c2.7,0,2.5,10.7,2.5,14.5C247.4-164.1,248.6-161.2,248.6-157.5z M227.6-154.2c0.5,0,0.9-0.4,0.9-0.9s-0.4-0.9-0.9-0.9
			c-0.5,0-0.9,0.4-0.9,0.9S227.1-154.2,227.6-154.2z M243.9-151.2c-0.2-0.2-0.4-0.2-0.6,0c-1.5,1.4-4.4,2.2-7.6,2.2h0
			c-3.2,0-6.2-0.9-7.6-2.3c-0.2-0.2-0.5-0.2-0.6,0c-0.2,0.2-0.2,0.5,0,0.6c1.6,1.5,4.8,2.5,8.2,2.5h0c3.4,0,6.5-0.9,8.2-2.5
			C244-150.8,244-151,243.9-151.2z M244.9-155.1c0-0.5-0.4-0.9-0.9-0.9c-0.5,0-0.9,0.4-0.9,0.9s0.4,0.9,0.9,0.9
			C244.5-154.2,244.9-154.6,244.9-155.1z"/>
		<path class="st1" d="M117.2-143.4c0-0.1-0.1-0.1-0.2-0.1l-0.6,0c-0.1,0-0.3-0.1-0.4-0.2l-0.4-0.4c-0.1-0.1-0.1-0.1-0.2-0.1
			c-0.1,0-0.1,0.1-0.2,0.1l-0.2,0.6c0,0.1-0.2,0.3-0.3,0.3l-0.5,0.3c-0.1,0-0.1,0.1-0.1,0.2c0,0.1,0,0.1,0.1,0.2l0.5,0.4
			c0.1,0.1,0.2,0.2,0.2,0.4l0.1,0.6c0,0.1,0,0.1,0.1,0.2c0.1,0,0.2,0,0.2,0l0.5-0.3c0,0,0.1-0.1,0.2-0.1s0.2,0,0.2,0l0.6,0.1
			c0,0,0.1,0,0.1,0c0.1,0,0.1,0,0.1-0.1c0,0,0-0.1,0-0.2l-0.1-0.6c0-0.1,0-0.3,0-0.4l0.3-0.6C117.3-143.2,117.3-143.3,117.2-143.4z"
			/>
		<path class="st1" d="M75.5-112.3c0-0.1-0.1-0.1-0.2-0.1l-0.6,0c-0.1,0-0.3-0.1-0.4-0.2l-0.4-0.4c-0.1-0.1-0.1-0.1-0.2-0.1
			s-0.1,0.1-0.2,0.1l-0.2,0.6c0,0.1-0.2,0.3-0.3,0.3l-0.5,0.3c-0.1,0-0.1,0.1-0.1,0.2c0,0.1,0,0.1,0.1,0.2l0.5,0.4
			c0.1,0.1,0.2,0.2,0.2,0.4l0.1,0.6c0,0.1,0,0.1,0.1,0.2c0.1,0,0.2,0,0.2,0l0.5-0.3c0,0,0.1-0.1,0.2-0.1s0.2,0,0.2,0l0.6,0.1
			c0,0,0.1,0,0.1,0c0.1,0,0.1,0,0.1-0.1c0,0,0-0.1,0-0.2l-0.1-0.6c0-0.1,0-0.3,0-0.4l0.3-0.6C75.6-112.2,75.6-112.2,75.5-112.3z"/>
		<path class="st1" d="M10.8-122.4c0-0.1-0.1-0.1-0.2-0.1l-0.6,0c-0.1,0-0.3-0.1-0.4-0.2l-0.4-0.4c-0.1-0.1-0.1-0.1-0.2-0.1
			s-0.1,0.1-0.2,0.1l-0.2,0.6c0,0.1-0.2,0.3-0.3,0.3l-0.5,0.3c-0.1,0-0.1,0.1-0.1,0.2c0,0.1,0,0.1,0.1,0.2l0.5,0.4
			c0.1,0.1,0.2,0.2,0.2,0.4l0.1,0.6c0,0.1,0,0.1,0.1,0.2c0.1,0,0.2,0,0.2,0l0.5-0.3c0,0,0.1-0.1,0.2-0.1s0.2,0,0.2,0l0.6,0.1
			c0,0,0.1,0,0.1,0c0.1,0,0.1,0,0.1-0.1c0,0,0-0.1,0-0.2l-0.1-0.6c0-0.1,0-0.3,0-0.4l0.3-0.6C10.8-122.2,10.8-122.3,10.8-122.4z"/>
		<path class="st1" d="M108.6-181c0-0.1-0.1-0.1-0.2-0.1l-0.6,0c-0.1,0-0.3-0.1-0.4-0.2l-0.4-0.4c-0.1-0.1-0.1-0.1-0.2-0.1
			c-0.1,0-0.1,0.1-0.2,0.1l-0.2,0.6c0,0.1-0.2,0.3-0.3,0.3l-0.5,0.3c-0.1,0-0.1,0.1-0.1,0.2c0,0.1,0,0.1,0.1,0.2l0.5,0.4
			c0.1,0.1,0.2,0.2,0.2,0.4l0.1,0.6c0,0.1,0,0.1,0.1,0.2c0.1,0,0.2,0,0.2,0l0.5-0.3c0,0,0.1-0.1,0.2-0.1s0.2,0,0.2,0l0.6,0.1
			c0,0,0.1,0,0.1,0c0.1,0,0.1,0,0.1-0.1c0,0,0-0.1,0-0.2l-0.1-0.6c0-0.1,0-0.3,0-0.4l0.3-0.6C108.6-180.9,108.6-181,108.6-181z"/>
		<path class="st1" d="M60.5-224.7c0-0.1-0.1-0.1-0.2-0.1l-0.6,0c-0.1,0-0.3-0.1-0.4-0.2l-0.4-0.4c-0.1-0.1-0.1-0.1-0.2-0.1
			c-0.1,0-0.1,0.1-0.2,0.1l-0.2,0.6c0,0.1-0.2,0.3-0.3,0.3l-0.5,0.3c-0.1,0-0.1,0.1-0.1,0.2c0,0.1,0,0.1,0.1,0.2l0.5,0.4
			c0.1,0.1,0.2,0.2,0.2,0.4l0.1,0.6c0,0.1,0,0.1,0.1,0.2c0.1,0,0.2,0,0.2,0l0.5-0.3c0,0,0.1-0.1,0.2-0.1s0.2,0,0.2,0l0.6,0.1
			c0,0,0.1,0,0.1,0c0.1,0,0.1,0,0.1-0.1c0,0,0-0.1,0-0.2l-0.1-0.6c0-0.1,0-0.3,0-0.4l0.3-0.6C60.5-224.6,60.5-224.6,60.5-224.7z"/>
		<path class="st1" d="M7.7-232.3c0-0.1-0.1-0.1-0.2-0.1l-0.6,0c-0.1,0-0.3-0.1-0.4-0.2L6.1-233c-0.1-0.1-0.1-0.1-0.2-0.1
			c-0.1,0-0.1,0.1-0.2,0.1l-0.2,0.6c0,0.1-0.2,0.3-0.3,0.3l-0.5,0.3c-0.1,0-0.1,0.1-0.1,0.2c0,0.1,0,0.1,0.1,0.2l0.5,0.4
			c0.1,0.1,0.2,0.2,0.2,0.4l0.1,0.6c0,0.1,0,0.1,0.1,0.2c0.1,0,0.2,0,0.2,0l0.5-0.3c0,0,0.1-0.1,0.2-0.1s0.2,0,0.2,0l0.6,0.1
			c0,0,0.1,0,0.1,0c0.1,0,0.1,0,0.1-0.1c0,0,0-0.1,0-0.2l-0.1-0.6c0-0.1,0-0.3,0-0.4l0.3-0.6C7.8-232.1,7.8-232.2,7.7-232.3z"/>
		<path class="st1" d="M102.1-226.3c0-0.1-0.1-0.1-0.2-0.1l-0.6,0c-0.1,0-0.3-0.1-0.4-0.2l-0.4-0.4c-0.1-0.1-0.1-0.1-0.2-0.1
			c-0.1,0-0.1,0.1-0.2,0.1l-0.2,0.6c0,0.1-0.2,0.3-0.3,0.3l-0.5,0.3c-0.1,0-0.1,0.1-0.1,0.2c0,0.1,0,0.1,0.1,0.2l0.5,0.4
			c0.1,0.1,0.2,0.2,0.2,0.4l0.1,0.6c0,0.1,0,0.1,0.1,0.2c0.1,0,0.2,0,0.2,0l0.5-0.3c0,0,0.1-0.1,0.2-0.1s0.2,0,0.2,0l0.6,0.1
			c0,0,0.1,0,0.1,0c0.1,0,0.1,0,0.1-0.1c0,0,0-0.1,0-0.2l-0.1-0.6c0-0.1,0-0.3,0-0.4l0.3-0.6C102.1-226.1,102.1-226.2,102.1-226.3z"
			/>
		<path class="st1" d="M239.4-218.5c0-0.1-0.1-0.1-0.2-0.1l-0.6,0c-0.1,0-0.3-0.1-0.4-0.2l-0.4-0.4c-0.1-0.1-0.1-0.1-0.2-0.1
			c-0.1,0-0.1,0.1-0.2,0.1l-0.2,0.6c0,0.1-0.2,0.3-0.3,0.3l-0.5,0.3c-0.1,0-0.1,0.1-0.1,0.2c0,0.1,0,0.1,0.1,0.2l0.5,0.4
			c0.1,0.1,0.2,0.2,0.2,0.4l0.1,0.6c0,0.1,0,0.1,0.1,0.2c0.1,0,0.2,0,0.2,0l0.5-0.3c0,0,0.1-0.1,0.2-0.1s0.2,0,0.2,0l0.6,0.1
			c0,0,0.1,0,0.1,0c0.1,0,0.1,0,0.1-0.1c0,0,0-0.1,0-0.2l-0.1-0.6c0-0.1,0-0.3,0-0.4l0.3-0.6C239.4-218.4,239.4-218.4,239.4-218.5z"
			/>
		<path class="st1" d="M239.4-259.8c0-0.1-0.1-0.1-0.2-0.1l-0.6,0c-0.1,0-0.3-0.1-0.4-0.2l-0.4-0.4c-0.1-0.1-0.1-0.1-0.2-0.1
			s-0.1,0.1-0.2,0.1l-0.2,0.6c0,0.1-0.2,0.3-0.3,0.3l-0.5,0.3c-0.1,0-0.1,0.1-0.1,0.2c0,0.1,0,0.1,0.1,0.2l0.5,0.4
			c0.1,0.1,0.2,0.2,0.2,0.4l0.1,0.6c0,0.1,0,0.1,0.1,0.2c0.1,0,0.2,0,0.2,0l0.5-0.3c0,0,0.1-0.1,0.2-0.1c0.1,0,0.2,0,0.2,0l0.6,0.1
			c0,0,0.1,0,0.1,0c0.1,0,0.1,0,0.1-0.1c0,0,0-0.1,0-0.2l-0.1-0.6c0-0.1,0-0.3,0-0.4l0.3-0.6C239.4-259.7,239.4-259.8,239.4-259.8z"
			/>
		<path class="st1" d="M175.1-213.7c0-0.1-0.1-0.1-0.2-0.1l-0.6,0c-0.1,0-0.3-0.1-0.4-0.2l-0.4-0.4c-0.1-0.1-0.1-0.1-0.2-0.1
			c-0.1,0-0.1,0.1-0.2,0.1l-0.2,0.6c0,0.1-0.2,0.3-0.3,0.3l-0.5,0.3c-0.1,0-0.1,0.1-0.1,0.2c0,0.1,0,0.1,0.1,0.2l0.5,0.4
			c0.1,0.1,0.2,0.2,0.2,0.4l0.1,0.6c0,0.1,0,0.1,0.1,0.2c0.1,0,0.2,0,0.2,0l0.5-0.3c0,0,0.1-0.1,0.2-0.1c0.1,0,0.2,0,0.2,0l0.6,0.1
			c0,0,0.1,0,0.1,0c0.1,0,0.1,0,0.1-0.1c0,0,0-0.1,0-0.2l-0.1-0.6c0-0.1,0-0.3,0-0.4l0.3-0.6C175.2-213.6,175.2-213.6,175.1-213.7z"
			/>
		<path class="st1" d="M87.4-156.1c0-0.1-0.1-0.1-0.2-0.1l-0.6,0c-0.1,0-0.3-0.1-0.4-0.2l-0.4-0.4c-0.1-0.1-0.1-0.1-0.2-0.1
			c-0.1,0-0.1,0.1-0.2,0.1l-0.2,0.6c0,0.1-0.2,0.3-0.3,0.3l-0.5,0.3c-0.1,0-0.1,0.1-0.1,0.2c0,0.1,0,0.1,0.1,0.2l0.5,0.4
			c0.1,0.1,0.2,0.2,0.2,0.4l0.1,0.6c0,0.1,0,0.1,0.1,0.2c0.1,0,0.2,0,0.2,0l0.5-0.3c0,0,0.1-0.1,0.2-0.1c0.1,0,0.2,0,0.2,0l0.6,0.1
			c0,0,0.1,0,0.1,0c0.1,0,0.1,0,0.1-0.1c0,0,0-0.1,0-0.2l-0.1-0.6c0-0.1,0-0.3,0-0.4l0.3-0.6C87.5-156,87.5-156.1,87.4-156.1z"/>
		<path class="st1" d="M82.3-38c-0.1,0-0.1,0.1-0.2,0.1l-0.3,0.6c-0.1,0.1-0.2,0.2-0.3,0.3l-0.5,0.3c-0.1,0-0.1,0.1-0.1,0.2
			c0,0.1,0,0.1,0.1,0.2l0.4,0.4c0.1,0.1,0.2,0.3,0.2,0.4l0.1,0.6c0,0.1,0.1,0.1,0.1,0.2c0.1,0,0.1,0,0.2,0l0.5-0.3
			c0.1-0.1,0.3-0.1,0.4-0.1l0.6,0.1c0.1,0,0.1,0,0.2,0c0.1,0,0.1-0.1,0.1-0.2L83.7-36c0-0.1,0-0.1,0-0.2c0-0.1,0-0.2,0.1-0.2
			l0.3-0.5c0,0,0-0.1,0-0.1c0-0.1,0-0.1,0-0.2c0,0-0.1-0.1-0.2-0.1l-0.6-0.1c-0.1,0-0.3-0.1-0.4-0.2l-0.4-0.4
			C82.5-38,82.4-38,82.3-38z"/>
		<path class="st1" d="M41.3-21.9c-0.1,0-0.1,0.1-0.2,0.1l-0.3,0.6c-0.1,0.1-0.2,0.2-0.3,0.3L40-20.7c-0.1,0-0.1,0.1-0.1,0.2
			s0,0.1,0.1,0.2l0.4,0.4c0.1,0.1,0.2,0.3,0.2,0.4l0.1,0.6c0,0.1,0.1,0.1,0.1,0.2c0.1,0,0.1,0,0.2,0l0.5-0.3
			c0.1-0.1,0.3-0.1,0.4-0.1l0.6,0.1c0.1,0,0.1,0,0.2,0c0.1,0,0.1-0.1,0.1-0.2l-0.1-0.6c0-0.1,0-0.1,0-0.2c0-0.1,0-0.2,0.1-0.2
			l0.3-0.5c0,0,0-0.1,0-0.1c0-0.1,0-0.1,0-0.2c0,0-0.1-0.1-0.2-0.1l-0.6-0.1c-0.1,0-0.3-0.1-0.4-0.2l-0.4-0.4
			C41.4-21.9,41.3-21.9,41.3-21.9z"/>
		<path class="st1" d="M80.4-68.7c-0.1,0-0.1,0.1-0.2,0.1L80-68c-0.1,0.1-0.2,0.2-0.3,0.3l-0.5,0.3c-0.1,0-0.1,0.1-0.1,0.2
			c0,0.1,0,0.1,0.1,0.2l0.4,0.4c0.1,0.1,0.2,0.3,0.2,0.4l0.1,0.6c0,0.1,0.1,0.1,0.1,0.2c0.1,0,0.1,0,0.2,0l0.5-0.3
			c0.1-0.1,0.3-0.1,0.4-0.1l0.6,0.1c0.1,0,0.1,0,0.2,0c0.1,0,0.1-0.1,0.1-0.2l-0.1-0.6c0-0.1,0-0.1,0-0.2s0-0.2,0.1-0.2l0.3-0.5
			c0,0,0-0.1,0-0.1c0-0.1,0-0.1,0-0.2c0,0-0.1-0.1-0.2-0.1L81.4-68c-0.1,0-0.3-0.1-0.4-0.2l-0.4-0.4C80.6-68.7,80.5-68.7,80.4-68.7z
			"/>
		<path class="st1" d="M59-167.2c-0.1,0-0.1,0.1-0.2,0.1l-0.3,0.6c-0.1,0.1-0.2,0.2-0.3,0.3l-0.5,0.3c-0.1,0-0.1,0.1-0.1,0.2
			s0,0.1,0.1,0.2l0.4,0.4c0.1,0.1,0.2,0.3,0.2,0.4l0.1,0.6c0,0.1,0.1,0.1,0.1,0.2c0.1,0,0.1,0,0.2,0l0.5-0.3
			c0.1-0.1,0.3-0.1,0.4-0.1l0.6,0.1c0.1,0,0.1,0,0.2,0c0.1,0,0.1-0.1,0.1-0.2l-0.1-0.6c0-0.1,0-0.1,0-0.2c0-0.1,0-0.2,0.1-0.2
			l0.3-0.5c0,0,0-0.1,0-0.1c0-0.1,0-0.1,0-0.2c0,0-0.1-0.1-0.2-0.1l-0.6-0.1c-0.1,0-0.3-0.1-0.4-0.2l-0.4-0.4
			C59.1-167.2,59-167.3,59-167.2z"/>
		<path class="st1" d="M19.9-168.7c-0.1,0-0.1,0.1-0.2,0.1l-0.3,0.6c-0.1,0.1-0.2,0.2-0.3,0.3l-0.5,0.3c-0.1,0-0.1,0.1-0.1,0.2
			s0,0.1,0.1,0.2l0.4,0.4c0.1,0.1,0.2,0.3,0.2,0.4l0.1,0.6c0,0.1,0.1,0.1,0.1,0.2c0.1,0,0.1,0,0.2,0l0.5-0.3
			c0.1-0.1,0.3-0.1,0.4-0.1l0.6,0.1c0.1,0,0.1,0,0.2,0c0.1,0,0.1-0.1,0.1-0.2l-0.1-0.6c0-0.1,0-0.1,0-0.2c0-0.1,0-0.2,0.1-0.2
			l0.3-0.5c0,0,0-0.1,0-0.1c0-0.1,0-0.1,0-0.2c0,0-0.1-0.1-0.2-0.1l-0.6-0.1c-0.1,0-0.3-0.1-0.4-0.2l-0.4-0.4
			C20-168.7,19.9-168.7,19.9-168.7z"/>
		<path class="st1" d="M108.6-106.7c-0.1,0-0.2,0.1-0.3,0.2l-0.4,0.9c-0.1,0.2-0.3,0.4-0.5,0.5l-0.9,0.4c-0.1,0.1-0.2,0.2-0.2,0.3
			c0,0.1,0,0.2,0.1,0.3l0.7,0.7c0.1,0.1,0.3,0.4,0.3,0.6l0.1,1c0,0.1,0.1,0.2,0.2,0.3c0.1,0.1,0.2,0,0.3,0l0.9-0.5
			c0.2-0.1,0.5-0.1,0.7-0.1l1,0.2c0.1,0,0.2,0,0.3-0.1c0.1-0.1,0.2-0.2,0.1-0.4l-0.2-1c0-0.1,0-0.2,0-0.3c0-0.1,0.1-0.2,0.1-0.3
			l0.5-0.9c0,0,0-0.1,0-0.1c0-0.1,0-0.2-0.1-0.2c-0.1-0.1-0.2-0.1-0.3-0.1l-1-0.1c-0.2,0-0.5-0.2-0.6-0.3l-0.7-0.7
			C108.9-106.7,108.7-106.7,108.6-106.7z"/>
		<path class="st1" d="M128.7-57.9c-0.1,0-0.2,0.1-0.3,0.2l-0.4,0.9c-0.1,0.2-0.3,0.4-0.5,0.5l-0.9,0.4c-0.1,0.1-0.2,0.2-0.2,0.3
			c0,0.1,0,0.2,0.1,0.3l0.7,0.7c0.1,0.1,0.3,0.4,0.3,0.6l0.1,1c0,0.1,0.1,0.2,0.2,0.3c0.1,0.1,0.2,0,0.3,0l0.9-0.5
			c0.2-0.1,0.5-0.1,0.7-0.1l1,0.2c0.1,0,0.2,0,0.3-0.1c0.1-0.1,0.2-0.2,0.1-0.4l-0.2-1c0-0.1,0-0.2,0-0.3s0.1-0.2,0.1-0.3l0.5-0.9
			c0,0,0-0.1,0-0.1c0-0.1,0-0.2-0.1-0.2c-0.1-0.1-0.2-0.1-0.3-0.1l-1-0.1c-0.2,0-0.5-0.2-0.6-0.3l-0.7-0.7
			C128.9-57.9,128.8-57.9,128.7-57.9z"/>
		<path class="st1" d="M98.4-177.8c0.1,0.8,0.2,1.6,0.2,2.4v3.6c0,7.1-4.1,11.2-11.2,11.2h-8.4c-7.1,0-11.2-4.1-11.2-11.2v-3.6
			c0-0.8,0-1.5,0.1-2.2c-2.4-0.8-4-3-4-5.5c0-3.2,2.6-5.8,5.8-5.8c2.1,0,4,1.1,5,2.9c1.3-0.4,2.7-0.6,4.3-0.6h8.4
			c1.3,0,2.6,0.1,3.7,0.4c1-1.7,2.9-2.8,4.9-2.8c3.2,0,5.8,2.6,5.8,5.8C101.8-180.8,100.4-178.7,98.4-177.8z M69.3-180.5
			c0.6-1.5,1.6-2.7,2.8-3.6c-0.3-1.2-1.4-2-2.7-2c-1.6,0-2.8,1.3-2.8,2.8C66.6-181.8,67.8-180.6,69.3-180.5z M78.5-174.3l-0.3-0.7
			c-0.8-2.1-2.5-2.8-4.6-2l-1.7,0.7c-2.1,0.8-2.8,2.5-2,4.6l0.3,0.7c0.8,2.1,2.5,2.8,4.6,2l1.7-0.7
			C78.6-170.6,79.3-172.2,78.5-174.3z M87.1-169.4c-0.4-0.1-0.7,0.2-0.8,0.6c0,0-0.3,1.8-3.1,1.8l-0.1,0c-0.1,0-2.7,0.3-3.4-1.9
			c-0.1-0.4-0.5-0.6-0.8-0.5c-0.4,0.1-0.6,0.5-0.5,0.8c0.7,2.3,2.8,2.9,4.2,2.9c0.2,0,0.4,0,0.5,0c3.1,0,4.2-1.9,4.4-2.9
			C87.7-169,87.5-169.4,87.1-169.4z M94-176.7l-1.8-0.6c-2.2-0.7-3.9,0.1-4.6,2.3l-0.2,0.7c-0.7,2.2,0.1,3.9,2.3,4.6l1.8,0.6
			c2.2,0.7,3.9-0.1,4.6-2.3l0.2-0.7C97.1-174.3,96.2-176,94-176.7z M98.9-183.3c0-1.6-1.3-2.8-2.8-2.8c-1.3,0-2.4,0.9-2.7,2
			c1.2,0.9,2.2,2.1,2.8,3.6C97.7-180.6,98.9-181.8,98.9-183.3z M74.8-171.7c0,0.5-0.4,1-1,1c-0.5,0-1-0.4-1-1s0.4-1,1-1
			C74.4-172.7,74.8-172.3,74.8-171.7z M93.1-171.7c0,0.5-0.4,1-1,1c-0.5,0-1-0.4-1-1s0.4-1,1-1C92.7-172.7,93.1-172.3,93.1-171.7z"
			/>
		<path class="st1" d="M29.6-13.4c0,0.6-0.1,1.2-0.2,1.9l-0.5,2.7c-1,5.3-4.7,7.8-10,6.8l-6.3-1.2c-5.3-1-7.8-4.7-6.8-10L6.2-16
			c0.1-0.6,0.3-1.1,0.4-1.6c-1.7-0.9-2.6-2.8-2.2-4.7c0.5-2.4,2.8-4,5.2-3.5c1.6,0.3,2.8,1.4,3.4,2.9c1-0.1,2.1-0.1,3.3,0.2l6.3,1.2
			c1,0.2,1.9,0.5,2.7,0.9c1-1.1,2.6-1.7,4.1-1.4c2.4,0.5,4,2.8,3.5,5.2C32.6-15.1,31.3-13.8,29.6-13.4z M8.2-19.7
			c0.7-1,1.6-1.8,2.7-2.3c-0.1-0.9-0.8-1.7-1.7-1.9c-1.2-0.2-2.3,0.5-2.5,1.7C6.3-21.1,7.1-20,8.2-19.7z M14.2-13.7l-0.1-0.6
			c-0.3-1.7-1.5-2.5-3.2-2.2l-1.3,0.3c-1.7,0.3-2.5,1.5-2.2,3.2l0.1,0.6c0.3,1.7,1.5,2.5,3.2,2.2l1.3-0.3
			C13.7-10.9,14.5-12,14.2-13.7z M19.9-8.8c-0.3-0.1-0.6,0-0.7,0.3c0,0-0.5,1.3-2.6,0.9l-0.1,0c-0.1,0-2.1-0.2-2.2-1.9
			c0-0.3-0.3-0.5-0.6-0.5c-0.3,0-0.5,0.3-0.5,0.6c0.2,1.8,1.7,2.6,2.8,2.8c0.1,0,0.3,0,0.4,0.1c2.3,0.4,3.4-0.8,3.7-1.5
			C20.3-8.4,20.2-8.7,19.9-8.8z M26.2-13.2l-1.2-0.7c-1.6-0.9-2.9-0.5-3.8,1.1l-0.3,0.5c-0.9,1.6-0.5,2.9,1.1,3.8l1.2,0.7
			C24.7-7,26.1-7.4,27-8.9l0.3-0.5C28.1-11,27.7-12.4,26.2-13.2z M30.8-17.5c0.2-1.2-0.5-2.3-1.7-2.5c-1-0.2-1.9,0.3-2.3,1.1
			c0.8,0.9,1.3,1.9,1.6,3.1C29.5-15.6,30.6-16.3,30.8-17.5z M11-12.3c-0.1,0.4-0.5,0.7-0.9,0.6c-0.4-0.1-0.7-0.5-0.6-0.9
			c0.1-0.4,0.5-0.7,0.9-0.6C10.8-13.1,11.1-12.7,11-12.3z M24.8-9.6c-0.1,0.4-0.5,0.7-0.9,0.6c-0.4-0.1-0.7-0.5-0.6-0.9
			c0.1-0.4,0.5-0.7,0.9-0.6C24.6-10.4,24.9-10,24.8-9.6z"/>
		<path class="st1" d="M66.4-101.8c0,5.1-4.1,8.8-9.7,8.8c-5.6,0-9.7-3.7-9.7-8.8c0-2.7,1.1-6,2.9-8.7c2-3.1,4.5-4.8,7-4.8
			c2.5,0,4.9,1.7,6.8,4.8C65.4-107.8,66.4-104.5,66.4-101.8z M62.4-100.5c0-3.3-2.7-7.5-6.1-7.5c-3.4,0-6.1,4.2-6.1,7.5
			S53-95,56.3-95C59.7-95,62.4-97.2,62.4-100.5z M52.5-99.9c0,0.2-0.2,0.4-0.4,0.4c-0.2,0-0.4-0.2-0.4-0.4c0-0.2,0.2-0.4,0.4-0.4
			C52.3-100.3,52.5-100.1,52.5-99.9z M60.3-99.9c0-0.2,0.2-0.4,0.4-0.4c0.2,0,0.4,0.2,0.4,0.4c0,0.2-0.2,0.4-0.4,0.4
			C60.5-99.4,60.3-99.6,60.3-99.9z M59.3-98.1c0.1,0.1,0.1,0.2,0,0.3c-0.6,0.6-1.7,0.9-3,0.9c-1.3,0-2.4-0.4-3-0.9
			c-0.1-0.1-0.1-0.2,0-0.3c0.1-0.1,0.2-0.1,0.3,0c0.5,0.5,1.6,0.8,2.7,0.8c1.1,0,2.2-0.3,2.7-0.8C59-98.2,59.2-98.2,59.3-98.1z"/>
		<path class="st1" d="M264.7-108.4c2.1,3.8,0.6,8.1-3.5,10.4c-4.1,2.3-8.6,1.2-10.7-2.5c-1.1-2-1.6-4.9-1.4-7.6
			c0.2-3.1,1.4-5.4,3.2-6.4c1.8-1,4.3-0.7,7,0.8C261.5-112.4,263.7-110.4,264.7-108.4z M262.3-105.9c-1.4-2.4-5-4.4-7.5-3
			c-2.5,1.4-2.8,5.5-1.4,8c1.4,2.4,4.2,2.9,6.7,1.5S263.7-103.4,262.3-105.9z M255.4-101.4c0.1,0.2,0,0.4-0.1,0.5
			c-0.2,0.1-0.4,0-0.5-0.1c-0.1-0.2,0-0.4,0.1-0.5C255.1-101.6,255.3-101.6,255.4-101.4z M261.1-104.6c-0.1-0.2,0-0.4,0.1-0.5
			c0.2-0.1,0.4,0,0.5,0.1c0.1,0.2,0,0.4-0.1,0.5C261.4-104.3,261.2-104.4,261.1-104.6z M261-102.9c0.1,0,0.2,0.1,0.1,0.2
			c-0.2,0.7-0.9,1.4-1.8,1.9c-0.9,0.5-1.9,0.7-2.6,0.5c-0.1,0-0.2-0.1-0.1-0.2c0-0.1,0.1-0.2,0.2-0.1c0.6,0.1,1.5,0,2.3-0.5
			c0.8-0.5,1.5-1.1,1.6-1.7C260.8-102.9,260.9-102.9,261-102.9z"/>
		<path class="st1" d="M115.2-206.2c0,0.4,0,0.7,0,1.1v1.9c0,5.9-3.4,9.4-9.4,9.4h-4.5c-5.9,0-9.4-3.4-9.4-9.4v-1.9
			c0-3.4,0.2-6.7,0.6-9.1c0.5-3.6,1.4-5.2,2.6-5.2c0.9,0,2.3,0.8,4.4,7.1h8.2c2.6-6.1,4-6.9,4.9-6.9c0.4,0,0.7,0.1,1,0.4
			C115.2-217.4,115.3-211.8,115.2-206.2z M96.1-202.1c0.4,0,0.8-0.3,0.8-0.8c0-0.4-0.3-0.8-0.8-0.8c-0.4,0-0.8,0.3-0.8,0.8
			C95.4-202.5,95.7-202.1,96.1-202.1z M110.3-199.5c-0.1-0.2-0.4-0.2-0.5,0c-1.3,1.2-3.8,2-6.6,2h0c-2.8,0-5.4-0.8-6.6-2
			c-0.2-0.1-0.4-0.1-0.5,0c-0.1,0.2-0.1,0.4,0,0.5c1.4,1.4,4.2,2.2,7.2,2.2h0c3,0,5.7-0.8,7.1-2.2
			C110.5-199.1,110.5-199.4,110.3-199.5z M112.7-202.2c0-0.2-0.2-0.4-0.4-0.4l-1.8,0l1.8-1.4c0.2-0.1,0.2-0.4,0.1-0.6
			c-0.1-0.2-0.4-0.2-0.6-0.1l-2.7,2.2c-0.1,0.1-0.2,0.3-0.1,0.5s0.2,0.3,0.4,0.3l2.9,0h0C112.5-201.8,112.7-202,112.7-202.2z"/>
		<path class="st1" d="M184-140.1c0,0.4,0,0.7,0,1.1v1.9c0,5.9-3.4,9.4-9.4,9.4h-4.5c-5.9,0-9.4-3.4-9.4-9.4v-1.9
			c0-3.4,0.2-6.7,0.6-9.1c0.5-3.6,1.4-5.2,2.6-5.2c0.9,0,2.3,0.8,4.4,7.1h8.2c2.6-6.1,4-6.9,4.9-6.9c0.4,0,0.7,0.1,1,0.4
			C183.9-151.3,184-145.7,184-140.1z M164.9-136c0.4,0,0.8-0.3,0.8-0.8s-0.3-0.8-0.8-0.8c-0.4,0-0.8,0.3-0.8,0.8
			S164.5-136,164.9-136z M179.1-133.4c-0.1-0.2-0.4-0.2-0.5,0c-1.3,1.2-3.8,2-6.6,2h0c-2.8,0-5.4-0.8-6.6-2c-0.2-0.1-0.4-0.1-0.5,0
			c-0.1,0.2-0.1,0.4,0,0.5c1.4,1.4,4.2,2.2,7.2,2.2h0c3,0,5.7-0.8,7.1-2.2C179.2-133,179.2-133.3,179.1-133.4z M181.4-136.2
			c0-0.2-0.2-0.4-0.4-0.4l-1.8,0l1.8-1.4c0.2-0.1,0.2-0.4,0.1-0.6c-0.1-0.2-0.4-0.2-0.6-0.1l-2.7,2.2c-0.1,0.1-0.2,0.3-0.1,0.5
			c0.1,0.2,0.2,0.3,0.4,0.3l2.9,0h0C181.3-135.8,181.4-135.9,181.4-136.2z"/>
		<path class="st1" d="M143-2.1c-1.8,1.8-4.1,2.1-5.3,2.1c-0.7,0-1.1-0.1-1.1-0.1c-0.2,0-0.3-0.2-0.3-0.4c0-0.2,0.1-0.3,0.3-0.3
			c0.8-0.1,1.3-0.7,1.5-1.7c0.1-0.5,0.1-1,0.1-1.3h-2.9c-4.3,0-6.8-2.5-6.8-6.8v-1.4c0-4.3,2.5-6.8,6.8-6.8h3.3
			c4.3,0,6.8,2.5,6.8,6.8v1.4C145.5-6.8,144.7-3.9,143-2.1z M132-10.4c0-0.3-0.3-0.6-0.6-0.6c-0.3,0-0.6,0.3-0.6,0.6
			s0.3,0.6,0.6,0.6C131.7-9.8,132-10.1,132-10.4z M141-10.4c0-0.3-0.3-0.6-0.6-0.6s-0.6,0.3-0.6,0.6s0.3,0.6,0.6,0.6
			S141-10.1,141-10.4z M139.7-8.6c-0.1-0.1-0.3-0.1-0.4,0c-0.7,0.6-2,1-3.5,1c-1.5,0-2.8-0.4-3.5-1c-0.1-0.1-0.3-0.1-0.4,0
			c-0.1,0.1-0.1,0.3,0,0.4c0.8,0.7,2.3,1.2,3.9,1.2c1.6,0,3.1-0.5,3.9-1.2C139.8-8.3,139.8-8.5,139.7-8.6z"/>
		<path class="st1" d="M44-68.6v-1.3c0-3.9,2.2-6.1,6.1-6.1H53c3.9,0,6.1,2.2,6.1,6.1v1.3c0,3.9-2.2,6.1-6.1,6.1h-2.7
			c0,0.3,0,0.7,0.1,1.2c0.2,0.9,0.7,1.4,1.4,1.6c0.2,0,0.3,0.2,0.3,0.3c0,0.2-0.1,0.3-0.3,0.3c0,0-0.4,0.1-1,0.1
			c-1.1,0-3.2-0.2-4.8-1.9C44.5-62.6,43.8-65.2,44-68.6z M57.5-67.7c0.3,0,0.6-0.3,0.6-0.6c0-0.3-0.3-0.6-0.6-0.6
			c-0.3,0-0.6,0.3-0.6,0.6C56.9-67.9,57.1-67.7,57.5-67.7z M47.9-67.7c0.3,0,0.6-0.3,0.6-0.6c0-0.3-0.3-0.6-0.6-0.6
			c-0.3,0-0.6,0.3-0.6,0.6C47.3-67.9,47.6-67.7,47.9-67.7z M49-66.5c0.7,0.7,2,1.1,3.5,1.1c1.5,0,2.8-0.4,3.5-1.1
			c0.1-0.1,0.1-0.3,0-0.4c-0.1-0.1-0.3-0.1-0.4,0c-0.6,0.6-1.8,0.9-3.1,0.9c-1.3,0-2.5-0.4-3.1-0.9c-0.1-0.1-0.3-0.1-0.4,0
			C48.9-66.8,48.9-66.6,49-66.5z"/>
		<path class="st1" d="M202.8-169.2v-1.3c0-3.9,2.2-6.1,6.1-6.1h2.9c3.9,0,6.1,2.2,6.1,6.1v1.3c0,3.9-2.2,6.1-6.1,6.1h-2.7
			c0,0.3,0,0.7,0.1,1.2c0.2,0.9,0.7,1.4,1.4,1.6c0.2,0,0.3,0.2,0.3,0.3c0,0.2-0.1,0.3-0.3,0.3c0,0-0.4,0.1-1,0.1
			c-1.1,0-3.2-0.2-4.8-1.9C203.3-163.2,202.6-165.8,202.8-169.2z M216.3-168.2c0.3,0,0.6-0.3,0.6-0.6s-0.3-0.6-0.6-0.6
			c-0.3,0-0.6,0.3-0.6,0.6S216-168.2,216.3-168.2z M206.7-168.2c0.3,0,0.6-0.3,0.6-0.6s-0.3-0.6-0.6-0.6c-0.3,0-0.6,0.3-0.6,0.6
			S206.4-168.2,206.7-168.2z M207.9-167c0.7,0.7,2,1.1,3.5,1.1c1.5,0,2.8-0.4,3.5-1.1c0.1-0.1,0.1-0.3,0-0.4c-0.1-0.1-0.3-0.1-0.4,0
			c-0.6,0.6-1.8,0.9-3.1,0.9c-1.3,0-2.5-0.4-3.1-0.9c-0.1-0.1-0.3-0.1-0.4,0C207.8-167.3,207.8-167.2,207.9-167z"/>
		<path class="st1" d="M116.1-162.7c0-1.1-0.1-1.9-1.5-1.9h-10.3c-1.6,0-1.7,0.9-1.7,1.9c0,0.3,0,7.5,0,7.5c-0.4-0.1-0.8-0.1-1.3,0
			c-1.8,0.2-3.1,1.6-3,3c0.2,1.4,1.8,2.4,3.7,2.1c1.6-0.2,2.8-1.3,3-2.5c0.1-0.2,0.1-8.3,0.1-8.3h8.7v4.3c-0.4-0.1-0.9-0.1-1.3,0
			c-1.8,0.2-3.1,1.6-3,3s1.8,2.4,3.7,2.1c1.6-0.2,2.8-1.3,3-2.6C116.2-154.1,116.1-162.6,116.1-162.7z"/>
		<path class="st1" d="M267.4-152.9c0-1-0.1-1.7-1.4-1.7h-9.4c-1.5,0-1.6,0.8-1.6,1.7c0,0.2,0,6.8,0,6.8c-0.4-0.1-0.8-0.1-1.2,0
			c-1.7,0.2-2.9,1.5-2.7,2.8c0.2,1.3,1.7,2.2,3.3,1.9c1.4-0.2,2.5-1.2,2.7-2.3c0.1-0.2,0.1-7.5,0.1-7.5h7.9v3.9
			c-0.4-0.1-0.8-0.1-1.2,0c-1.7,0.2-2.9,1.5-2.7,2.8c0.2,1.3,1.7,2.2,3.3,1.9c1.5-0.2,2.6-1.2,2.7-2.3
			C267.5-145.1,267.4-152.8,267.4-152.9z"/>
		<path class="st1" d="M131.3-212.4h-4c-1.4,0-1.5,0.8-1.5,1.6c0,0.2,0,0.4,0,0.6c0,0.1,0,0.2,0,0.2v5c-0.3,0-0.6-0.1-1,0
			c-1.5,0.2-2.6,1.3-2.4,2.5c0.1,1.1,1.2,1.8,2.5,1.8c0.2,0,0.3,0,0.5,0c1.2-0.2,2.2-1,2.4-1.9c0.1-0.2,0.2-0.5,0.2-0.7v-5.8h3.2
			c1.5,0,1.5-0.9,1.5-1.6C132.7-211.6,132.6-212.4,131.3-212.4z"/>
		<path class="st1" d="M15.1-43.5h-4c-1.4,0-1.5,0.8-1.5,1.6c0,0.2,0,0.4,0,0.6c0,0.1,0,0.2,0,0.2v5c-0.3,0-0.6-0.1-1,0
			c-1.5,0.2-2.6,1.3-2.4,2.5c0.1,1.1,1.2,1.8,2.5,1.8c0.2,0,0.3,0,0.5,0c1.2-0.2,2.2-1,2.4-1.9c0.1-0.2,0.2-0.5,0.2-0.7v-5.8h3.2
			c1.5,0,1.5-0.9,1.5-1.6C16.6-42.7,16.4-43.5,15.1-43.5z"/>
		<path class="st1" d="M198.7-154.8h-4c-1.4,0-1.5,0.8-1.5,1.6c0,0.2,0,0.4,0,0.6c0,0.1,0,0.2,0,0.2v5c-0.3,0-0.6-0.1-1,0
			c-1.5,0.2-2.6,1.3-2.4,2.5c0.1,1.1,1.2,1.8,2.5,1.8c0.2,0,0.3,0,0.5,0c1.2-0.2,2.2-1,2.4-1.9c0.1-0.2,0.2-0.5,0.2-0.7v-5.8h3.2
			c1.5,0,1.5-0.9,1.5-1.6C200.1-154,200-154.8,198.7-154.8z"/>
		<path class="st1" d="M226-240.7h-3.7c-1.3,0-1.4,0.7-1.4,1.5c0,0.2,0,0.4,0,0.5c0,0.1,0,0.1,0,0.2v4.7c-0.3,0-0.6,0-0.9,0
			c-1.4,0.2-2.4,1.3-2.3,2.4c0.1,1,1.1,1.7,2.4,1.7c0.1,0,0.3,0,0.4,0c1.1-0.2,2.1-0.9,2.3-1.8c0.1-0.2,0.2-0.4,0.2-0.7v-5.5h3
			c1.4,0,1.4-0.8,1.4-1.5C227.4-239.9,227.2-240.7,226-240.7z"/>
		<path class="st1" d="M161.7-261.3h-4c-1.4,0-1.5,0.8-1.5,1.6c0,0.2,0,0.4,0,0.6c0,0.1,0,0.2,0,0.2v5c-0.3,0-0.6-0.1-1,0
			c-1.5,0.2-2.6,1.3-2.4,2.5c0.1,1.1,1.2,1.8,2.5,1.8c0.2,0,0.3,0,0.5,0c1.2-0.2,2.2-1,2.4-1.9c0.1-0.2,0.2-0.5,0.2-0.7v-5.8h3.2
			c1.5,0,1.5-0.9,1.5-1.6C163.1-260.4,163-261.3,161.7-261.3z"/>
		<path class="st1" d="M113.5-93.6h-4c-1.2,0-1.3,0.7-1.3,1.5c0,0.2,0,0.4,0,0.6c0,0.1,0,0.2,0,0.2v5.2c-0.3-0.1-0.7-0.1-1.1,0
			c-1.4,0.2-2.4,1.3-2.3,2.4c0.2,1.1,1.4,1.9,2.8,1.7c1.2-0.2,2.1-0.9,2.3-1.8c0.1-0.2,0.2-0.4,0.2-0.7v-6h3.4
			c1.3,0,1.3-0.7,1.3-1.5C114.8-93,114.6-93.6,113.5-93.6z"/>
		<path class="st1" d="M160.1-116.8h-4c-1.2,0-1.3,0.7-1.3,1.5c0,0.2,0,0.4,0,0.6c0,0.1,0,0.2,0,0.2v5.2c-0.3-0.1-0.7-0.1-1.1,0
			c-1.4,0.2-2.4,1.3-2.3,2.4c0.2,1.1,1.4,1.9,2.8,1.7c1.2-0.2,2.1-0.9,2.3-1.8c0.1-0.2,0.2-0.4,0.2-0.7v-6h3.4
			c1.3,0,1.3-0.7,1.3-1.5C161.5-116.1,161.3-116.8,160.1-116.8z"/>
		<path class="st1" d="M32.2-137.2l0.9,11.3c0,0.1,0,0.3-0.1,0.4c-0.1,0.1-2,2.2-5.8,2.5c-0.2,0-0.4,0-0.6,0c-1.6,0-2.7-0.5-3.3-1.4
			c-0.6-0.9-0.5-2.1-0.3-2.8c-3,0.2-5.1-0.4-6.2-1.9c-0.8-1-0.8-2.2-0.7-3c-0.6,0.1-1.2,0.1-1.8,0.1c-2.8,0-4.8-0.8-6-2.3
			c-1.6-2-0.9-4.6-0.9-4.8c0.1-0.3,0.3-0.4,0.6-0.4l23.6,1.7C31.9-137.7,32.1-137.5,32.2-137.2z M44.8-138.7l-1.6,28.8
			c-0.2,1.7-1,2.6-2.3,2.6v0h-2.8c-1.3,0-2.1-1-2.3-2.6l0-0.3l-1.7-28.5c-2.3-1.2-3.5-3.6-3.5-6.8v-5.8c0-4.9,2.8-7.8,7.8-7.8h2.2
			c4.9,0,7.8,2.8,7.8,7.8v5.8C48.3-142.3,47.1-139.9,44.8-138.7z M34.1-146.3c0-0.4-0.3-0.6-0.6-0.6c-0.4,0-0.6,0.3-0.6,0.6
			c0,0.4,0.3,0.6,0.6,0.6C33.8-145.6,34.1-145.9,34.1-146.3z M44.7-143.7c-0.2-0.2-0.4-0.2-0.6,0c-1.2,1.1-2.7,1.6-4.5,1.6
			c-2,0-4-0.8-4.8-1.7c-0.2-0.2-0.4-0.1-0.6,0c-0.2,0.2-0.1,0.4,0,0.6c0.9,0.9,3,1.9,5.4,1.9c2.1,0,3.8-0.6,5.1-1.8
			C44.8-143.3,44.8-143.5,44.7-143.7z M46-146.3c0-0.4-0.3-0.6-0.6-0.6c-0.4,0-0.6,0.3-0.6,0.6c0,0.4,0.3,0.6,0.6,0.6
			C45.7-145.6,46-145.9,46-146.3z M70.6-134.3c-1.1,1.5-3.2,2.3-6,2.3h0c-0.6,0-1.2,0-1.8-0.1c0.1,0.8,0,2-0.7,3
			c-1.1,1.4-3.1,2.1-6.2,1.9c0.2,0.8,0.3,1.9-0.3,2.8c-0.6,0.9-1.7,1.4-3.3,1.4c-0.2,0-0.4,0-0.6,0c-3.8-0.2-5.7-2.4-5.8-2.5
			c-0.1-0.1-0.1-0.3-0.1-0.4l0.9-11.3c0-0.3,0.2-0.5,0.5-0.5l23.6-1.7c0.3,0,0.5,0.1,0.6,0.4C71.5-138.9,72.2-136.3,70.6-134.3z"/>
		<path class="st1" d="M198.1-223.1l0.7,9.2c0,0.1,0,0.2-0.1,0.3c-0.1,0.1-1.6,1.8-4.7,2c-0.2,0-0.3,0-0.5,0c-1.3,0-2.2-0.4-2.6-1.1
			c-0.5-0.7-0.4-1.7-0.2-2.3c-2.5,0.2-4.1-0.3-5-1.5c-0.6-0.8-0.7-1.8-0.6-2.4c-0.5,0-1,0.1-1.4,0.1c-2.3,0-3.9-0.6-4.9-1.8
			c-1.3-1.7-0.7-3.8-0.7-3.9c0.1-0.2,0.2-0.3,0.5-0.3l19.2,1.4C197.9-223.5,198.1-223.4,198.1-223.1z M208.4-224.3l-1.3,23.4
			c-0.1,1.3-0.8,2.1-1.9,2.1v0h-2.2c-1,0-1.7-0.8-1.9-2.1l0-0.2l-1.4-23.2c-1.9-1-2.9-2.9-2.9-5.6v-4.7c0-4,2.3-6.3,6.3-6.3h1.8
			c4,0,6.3,2.3,6.3,6.3v4.7C211.2-227.2,210.2-225.3,208.4-224.3z M199.7-230.5c0-0.3-0.2-0.5-0.5-0.5c-0.3,0-0.5,0.2-0.5,0.5
			c0,0.3,0.2,0.5,0.5,0.5C199.4-229.9,199.7-230.2,199.7-230.5z M208.3-228.4c-0.1-0.1-0.3-0.1-0.5,0c-0.9,0.9-2.2,1.3-3.7,1.3
			c-1.6,0-3.2-0.7-3.9-1.3c-0.1-0.1-0.3-0.1-0.5,0c-0.1,0.1-0.1,0.3,0,0.5c0.8,0.7,2.5,1.5,4.4,1.5c1.7,0,3.1-0.5,4.1-1.5
			C208.4-228,208.4-228.2,208.3-228.4z M209.4-230.5c0-0.3-0.2-0.5-0.5-0.5c-0.3,0-0.5,0.2-0.5,0.5c0,0.3,0.2,0.5,0.5,0.5
			C209.1-229.9,209.4-230.2,209.4-230.5z M229.3-220.7c-0.9,1.2-2.6,1.8-4.9,1.8h0c-0.5,0-0.9,0-1.4-0.1c0.1,0.6,0,1.6-0.6,2.4
			c-0.9,1.2-2.5,1.7-5,1.5c0.2,0.6,0.3,1.5-0.2,2.3c-0.5,0.7-1.4,1.1-2.7,1.1c-0.1,0-0.3,0-0.5,0c-3.1-0.2-4.6-1.9-4.7-2
			c-0.1-0.1-0.1-0.2-0.1-0.3l0.7-9.2c0-0.2,0.2-0.4,0.4-0.4l19.1-1.4c0.2,0,0.4,0.1,0.5,0.3C230.1-224.5,230.6-222.4,229.3-220.7z"
			/>
		<path class="st1" d="M248.3-68.8l0.5,5.8c0,0.1,0,0.2-0.1,0.2c0,0-1,1.2-3,1.3c-0.1,0-0.2,0-0.3,0c-0.8,0-1.4-0.2-1.7-0.7
			c-0.3-0.5-0.2-1.1-0.1-1.5c-1.6,0.1-2.6-0.2-3.2-1c-0.4-0.5-0.4-1.2-0.4-1.6c-0.3,0-0.6,0-0.9,0c-1.5,0-2.5-0.4-3.1-1.2
			c-0.8-1.1-0.5-2.4-0.4-2.5c0-0.1,0.2-0.2,0.3-0.2l12.2,0.9C248.2-69.1,248.3-69,248.3-68.8z M254.9-69.6L254-54.7
			c-0.1,0.9-0.5,1.4-1.2,1.4v0h-1.4c-0.7,0-1.1-0.5-1.2-1.4l0-0.1l-0.9-14.8c-1.2-0.6-1.8-1.9-1.8-3.5v-3c0-2.6,1.5-4,4-4h1.2
			c2.6,0,4,1.5,4,4v3C256.7-71.4,256.1-70.2,254.9-69.6z M249.3-73.5c0-0.2-0.1-0.3-0.3-0.3c-0.2,0-0.3,0.1-0.3,0.3
			c0,0.2,0.1,0.3,0.3,0.3C249.2-73.2,249.3-73.3,249.3-73.5z M254.8-72.2c-0.1-0.1-0.2-0.1-0.3,0c-0.6,0.6-1.4,0.8-2.4,0.8
			c-1,0-2-0.4-2.5-0.9c-0.1-0.1-0.2-0.1-0.3,0c-0.1,0.1-0.1,0.2,0,0.3c0.5,0.5,1.6,1,2.8,1c1.1,0,2-0.3,2.6-1
			C254.9-71.9,254.9-72.1,254.8-72.2z M255.5-73.5c0-0.2-0.1-0.3-0.3-0.3s-0.3,0.1-0.3,0.3c0,0.2,0.1,0.3,0.3,0.3
			S255.5-73.3,255.5-73.5z M268.3-67.3c-0.6,0.8-1.6,1.2-3.1,1.2h0c-0.3,0-0.6,0-0.9,0c0,0.4,0,1-0.4,1.6c-0.6,0.7-1.6,1.1-3.2,1
			c0.1,0.4,0.2,1-0.1,1.5c-0.3,0.5-0.9,0.7-1.7,0.7c-0.1,0-0.2,0-0.3,0c-2-0.1-3-1.2-3-1.3c-0.1-0.1-0.1-0.1-0.1-0.2l0.5-5.8
			c0-0.1,0.1-0.2,0.3-0.3l12.2-0.9c0.1,0,0.3,0.1,0.3,0.2C268.7-69.7,269.1-68.3,268.3-67.3z"/>
		<path class="st1" d="M132-23.7c-2.4,1-5.8,1-7.7-0.6c-0.4,1.1-1,3.1-1.1,3.4c-0.1,0.2-0.2,0.3-0.4,0.3c0,0,0,0,0,0
			c-0.2,0-0.3-0.2-0.4-0.4l-0.2-1.7l-1.5,0.3c-0.2,0-0.3,0-0.4-0.2s-0.1-0.3,0-0.5l0.9-1.2l-1.8-0.5c-0.2-0.1-0.3-0.2-0.3-0.4
			c0-0.2,0.2-0.4,0.4-0.4l3.7-0.5c-1-2.4,0.1-5.2,2.3-6.7c11.5-8,15-20.4,8.5-32.5c-1.4-2.6-0.7-5.8,1.8-7.4c-1-0.6-2.6-1.6-2.8-1.7
			c-0.2-0.1-0.2-0.3-0.2-0.5c0.1-0.2,0.2-0.3,0.4-0.3l1.7,0.1l0.1-1.5c0-0.2,0.1-0.3,0.3-0.4c0.2-0.1,0.3,0,0.4,0.1l1,1.1l0.9-1.7
			c0.1-0.2,0.3-0.3,0.5-0.2c0.2,0.1,0.3,0.2,0.3,0.4l-0.3,3.6c2.4-0.3,5.3,0.8,6.5,2.8C156-54,150-31.2,132-23.7z M136.6-71.3
			c-0.1-0.2-0.4-0.2-0.6-0.1c-0.1,0.1-2.3,1.6-1.2,5.3c0.1,0.2,0.2,0.3,0.4,0.3c0,0,0.1,0,0.1,0c0.2-0.1,0.3-0.3,0.3-0.5
			c-1-3.1,0.8-4.3,0.8-4.4C136.7-70.9,136.8-71.1,136.6-71.3z M130.2-25.1c-0.1-0.2-0.3-0.3-0.5-0.3c-3.1,0.8-4.3-0.9-4.3-1
			c-0.1-0.2-0.4-0.3-0.6-0.1c-0.2,0.1-0.3,0.4-0.1,0.6c0,0.1,1,1.6,3.4,1.6c0.5,0,1.1-0.1,1.8-0.3C130.1-24.7,130.2-24.9,130.2-25.1
			z M135.2-36.9c0-0.4-0.3-0.7-0.7-0.7s-0.7,0.3-0.7,0.7s0.3,0.7,0.7,0.7S135.2-36.5,135.2-36.9z M140.5-35.2
			c-0.2-0.1-0.4,0-0.5,0.2c-0.5,1.1-1.6,1-1.7,1l0,0c-0.9,0-1.5-1-1.6-1c-0.1-0.2-0.4-0.3-0.6-0.1c-0.2,0.1-0.3,0.4-0.1,0.6
			c0,0.1,0.8,1.4,2.2,1.4c0,0,0.1,0,0.1,0c0.4,0,1.7-0.1,2.3-1.5C140.8-34.9,140.7-35.1,140.5-35.2z M143.4-36.9
			c0-0.4-0.3-0.7-0.7-0.7c-0.4,0-0.7,0.3-0.7,0.7s0.3,0.7,0.7,0.7C143.1-36.2,143.4-36.5,143.4-36.9z"/>
		<path class="st1" d="M254.2-192.8c-2.1,1.9-5.6,3.2-8.2,2.2c0,1.3,0.1,3.6,0.1,4c0,0.2-0.1,0.4-0.3,0.4c0,0,0,0,0,0
			c-0.2,0.1-0.4,0-0.5-0.2l-0.8-1.6l-1.4,0.8c-0.2,0.1-0.4,0.1-0.5,0c-0.1-0.1-0.2-0.3-0.2-0.5l0.5-1.6l-2.1,0.1
			c-0.2,0-0.4-0.1-0.5-0.3c-0.1-0.2,0-0.4,0.2-0.5l3.7-1.9c-1.9-2.2-1.8-5.4-0.1-7.9c9-12.5,8.1-26.6-3.1-36.9
			c-2.4-2.2-2.8-5.8-0.8-8.3c-1.3-0.3-3.3-0.7-3.6-0.7c-0.2,0-0.4-0.2-0.4-0.4c0-0.2,0.1-0.4,0.3-0.4l1.8-0.5l-0.5-1.6
			c-0.1-0.2,0-0.4,0.1-0.5c0.1-0.1,0.3-0.1,0.5,0l1.4,0.8l0.3-2.1c0-0.2,0.2-0.4,0.4-0.4c0.2,0,0.4,0.1,0.5,0.3l1,3.9
			c2.4-1.2,5.8-1.1,7.7,0.5C267.9-233.1,270-207.3,254.2-192.8z M241.5-244c-0.2-0.2-0.5-0.1-0.6,0.1c-0.1,0.1-1.8,2.5,0.7,5.9
			c0.1,0.2,0.3,0.2,0.5,0.2c0,0,0.1,0,0.1-0.1c0.2-0.1,0.2-0.4,0.1-0.6c-2.1-2.8-0.8-4.7-0.7-4.8C241.7-243.6,241.7-243.8,241.5-244
			z M251.7-193.6c-0.1-0.2-0.4-0.3-0.6-0.1c-2.9,2-4.8,0.6-4.9,0.5c-0.2-0.2-0.5-0.1-0.6,0.1c-0.2,0.2-0.1,0.5,0.1,0.6
			c0.1,0.1,1.7,1.3,4.2,0.4c0.6-0.2,1.1-0.5,1.8-0.9C251.8-193.2,251.8-193.4,251.7-193.6z M252.7-207.7c-0.1-0.4-0.6-0.6-1-0.5
			c-0.4,0.1-0.6,0.6-0.5,1c0.1,0.4,0.6,0.6,1,0.5C252.6-206.8,252.8-207.3,252.7-207.7z M258.7-207.9c-0.2,0-0.5,0.2-0.5,0.4
			c-0.1,1.3-1.3,1.6-1.4,1.6l0,0c-1,0.3-2-0.4-2-0.5c-0.2-0.2-0.5-0.1-0.6,0.1c-0.2,0.2-0.1,0.5,0.1,0.6c0.1,0,1.4,1.1,2.8,0.6
			c0,0,0.1,0,0.1,0c0.4-0.2,1.7-0.7,1.9-2.4C259.1-207.7,258.9-207.9,258.7-207.9z M261.1-210.7c-0.1-0.4-0.6-0.6-1-0.5
			s-0.6,0.6-0.5,1s0.6,0.6,1,0.5S261.3-210.3,261.1-210.7z"/>
		<path class="st1" d="M203.6-101.1c-2.4,1-5.8,1-7.7-0.6c-0.4,1.1-1,3.1-1.1,3.4c-0.1,0.2-0.2,0.3-0.4,0.3c0,0,0,0,0,0
			c-0.2,0-0.3-0.2-0.4-0.4l-0.2-1.7l-1.5,0.3c-0.2,0-0.3,0-0.4-0.2c-0.1-0.1-0.1-0.3,0-0.5l0.9-1.2l-1.8-0.5
			c-0.2-0.1-0.3-0.2-0.3-0.4c0-0.2,0.2-0.4,0.4-0.4l3.7-0.5c-1-2.4,0.1-5.2,2.3-6.7c11.5-8,15-20.4,8.5-32.5
			c-1.4-2.6-0.7-5.8,1.8-7.4c-1-0.6-2.6-1.6-2.8-1.7c-0.2-0.1-0.2-0.3-0.2-0.5c0.1-0.2,0.2-0.3,0.4-0.3l1.7,0.1l0.1-1.5
			c0-0.2,0.1-0.3,0.3-0.4c0.2-0.1,0.3,0,0.4,0.1l1,1.1l0.9-1.7c0.1-0.2,0.3-0.3,0.5-0.2c0.2,0.1,0.3,0.2,0.3,0.4l-0.3,3.6
			c2.4-0.3,5.3,0.8,6.5,2.8C227.5-131.4,221.5-108.6,203.6-101.1z M208.2-148.7c-0.1-0.2-0.4-0.2-0.6-0.1c-0.1,0.1-2.3,1.6-1.2,5.3
			c0.1,0.2,0.2,0.3,0.4,0.3c0,0,0.1,0,0.1,0c0.2-0.1,0.3-0.3,0.3-0.5c-1-3.1,0.8-4.3,0.8-4.4C208.3-148.3,208.3-148.5,208.2-148.7z
			 M201.7-102.5c-0.1-0.2-0.3-0.3-0.5-0.3c-3.1,0.8-4.3-0.9-4.3-1c-0.1-0.2-0.4-0.3-0.6-0.1c-0.2,0.1-0.3,0.4-0.1,0.6
			c0,0.1,1,1.6,3.4,1.6c0.5,0,1.1-0.1,1.8-0.3C201.6-102.1,201.7-102.3,201.7-102.5z M206.8-114.3c0-0.4-0.3-0.7-0.7-0.7
			c-0.4,0-0.7,0.3-0.7,0.7s0.3,0.7,0.7,0.7C206.4-113.5,206.8-113.9,206.8-114.3z M212-112.6c-0.2-0.1-0.4,0-0.5,0.2
			c-0.5,1.1-1.6,1-1.7,1l0,0c-0.9,0-1.5-1-1.6-1c-0.1-0.2-0.4-0.3-0.6-0.1c-0.2,0.1-0.3,0.4-0.1,0.6c0,0.1,0.8,1.4,2.2,1.4
			c0,0,0.1,0,0.1,0c0.4,0,1.7-0.1,2.3-1.5C212.3-112.3,212.2-112.5,212-112.6z M214.9-114.3c0-0.4-0.3-0.7-0.7-0.7
			c-0.4,0-0.7,0.3-0.7,0.7s0.3,0.7,0.7,0.7C214.6-113.5,214.9-113.9,214.9-114.3z"/>
		<path class="st1" d="M73-24.2c0,0,0.2-1,5.3-1.8c3.7-0.6,8.6-1,13.9-1c5.2,0,10.2,0.3,13.9,1c5.1,0.9,5.3,1.8,5.3,1.8
			c0,0-0.2,1-5.3,1.8c-3.7,0.6-8.6,1-13.9,1c-5.2,0-10.2-0.3-13.9-1C73.2-23.3,73-24.2,73-24.2z M82.7-24.6c0,0.9,4.2,1.6,9.5,1.6
			c5.2,0,9.5-0.7,9.5-1.6c0-0.9-4.2-1.6-9.5-1.6C87-26.2,82.7-25.5,82.7-24.6z M112.1-23.3l-0.2,12.5c-1.3,1.7-9.5,4.6-19.6,4.6
			c-10,0-18.4-2.9-19.7-4.6l-0.2-12.4c2.4,2.3,13.6,3,19.9,3C98.5-20.3,109.8-21,112.1-23.3z M77.2-14.8c0-0.5-0.4-1-1-1
			c-0.5,0-1,0.4-1,1c0,0.5,0.4,1,1,1C76.8-13.8,77.2-14.3,77.2-14.8z M97.5-12.2c-0.2-0.2-0.5-0.2-0.7,0c-1.1,1-3.3,1.7-5.7,1.7
			c-2.4,0-4.7-0.7-5.8-1.7c-0.2-0.2-0.5-0.2-0.7,0c-0.2,0.2-0.2,0.5,0,0.7c1.3,1.2,3.7,2,6.4,2c2.7,0,5.1-0.7,6.4-1.9
			C97.7-11.7,97.7-12,97.5-12.2z M108.1-14.2c0-0.5-0.4-1-1-1c-0.5,0-1,0.4-1,1c0,0.5,0.4,1,1,1C107.7-13.3,108.1-13.7,108.1-14.2z"
			/>
		<path class="st1" d="M145-249l-4.9,7.8c1.9,3.2,2.9,7.2,2.9,10.4c0,6.6-5.3,10.8-11.9,10.8c-6.6,0-11.9-4.2-11.9-10.8
			c0-4.7,1.7-11.2,5.8-14.4c0,0,0,0,0,0l-0.1-9.6c0-0.2,0.1-0.3,0.3-0.4c0.2,0,0.3,0,0.4,0.2l2.1,4.2l2.3-2.1
			c0.1-0.1,0.2-0.1,0.4-0.1c0.1,0,0.2,0.1,0.3,0.3l0.7,3l3.3-2.5c0.1-0.1,0.2-0.1,0.3-0.1c0.1,0,0.2,0.1,0.2,0.2l1.4,3.9l2.5-1.8
			c0.1-0.1,0.2-0.1,0.3,0c0.1,0,0.2,0.1,0.2,0.3l0.7,2.8l4.1-2.4c0.1-0.1,0.3-0.1,0.5,0.1C145.1-249.3,145.1-249.1,145-249z
			 M122.1-228.3c0-0.3-0.2-0.6-0.5-0.6c-0.3,0-0.6,0.2-0.6,0.5c0,0.3,0.2,0.6,0.5,0.6C121.8-227.7,122.1-228,122.1-228.3z
			 M133.4-225.8c-0.1-0.2-0.4-0.2-0.5,0c-0.8,0.7-2.5,1.1-4.2,1c-1.8-0.1-3.4-0.7-4.1-1.5c-0.1-0.1-0.4-0.2-0.5,0
			c-0.1,0.1-0.2,0.4,0,0.5c0.9,0.9,2.6,1.6,4.6,1.7c1.9,0.1,3.8-0.3,4.7-1.1C133.5-225.4,133.5-225.6,133.4-225.8z M136.4-227.5
			c0-0.3-0.2-0.6-0.5-0.6c-0.3,0-0.6,0.2-0.6,0.5c0,0.3,0.2,0.6,0.5,0.6C136.1-226.9,136.4-227.2,136.4-227.5z"/>
		<path class="st1" d="M136-155.7c-0.5,0-0.8-0.4-0.8-0.8c0-2.6-2.1-4.7-4.7-4.7c-2.6,0-4.7,2.1-4.7,4.7c0,0.5-0.4,0.8-0.8,0.8
			c-0.5,0-0.8-0.4-0.8-0.8c0-3.5,2.9-6.4,6.4-6.4c3.5,0,6.4,2.9,6.4,6.4C136.8-156.1,136.4-155.7,136-155.7z"/>
		<path class="st1" d="M138.6-155.6c-0.6,0-1-0.4-1-1c0-4-3.2-7.2-7.2-7.2c-4,0-7.2,3.2-7.2,7.2c0,0.6-0.4,1-1,1c-0.6,0-1-0.4-1-1
			c0-5.1,4.1-9.2,9.2-9.2s9.2,4.1,9.2,9.2C139.6-156,139.1-155.6,138.6-155.6z"/>
		<path class="st1" d="M133.5-155.8c-0.4,0-0.8-0.4-0.8-0.8c0-1.3-1-2.3-2.3-2.3c-1.3,0-2.3,1-2.3,2.3c0,0.4-0.4,0.8-0.8,0.8
			c-0.4,0-0.8-0.4-0.8-0.8c0-2.1,1.7-3.8,3.8-3.8c2.1,0,3.8,1.7,3.8,3.8C134.2-156.1,133.9-155.8,133.5-155.8z"/>
		<path class="st1" d="M164.5-80.8c0-0.9-0.1-1.6-1.3-1.6h-8.8c-1.4,0-1.5,0.7-1.5,1.6c0,0.2,0,6.4,0,6.4c-0.3-0.1-0.7-0.1-1.1,0
			c-1.6,0.2-2.7,1.4-2.5,2.6c0.2,1.2,1.6,2,3.1,1.8c1.4-0.2,2.4-1.1,2.5-2.1c0.1-0.2,0.1-7.1,0.1-7.1h7.4v3.6
			c-0.3-0.1-0.7-0.1-1.1,0c-1.6,0.2-2.7,1.4-2.5,2.6c0.2,1.2,1.6,2,3.1,1.8c1.4-0.2,2.4-1.1,2.5-2.2
			C164.5-73.5,164.5-80.7,164.5-80.8z"/>
		<g>
			<path class="st1" d="M172.9-61.5c-0.3,0.3-0.7,0.3-1,0c-1.5-1.6-4.1-1.6-5.7-0.1s-1.6,4.1-0.1,5.7c0.3,0.3,0.3,0.7,0,1
				c-0.3,0.3-0.7,0.3-1,0c-2.1-2.2-2-5.6,0.1-7.7c2.2-2.1,5.6-2,7.7,0.1C173.2-62.3,173.2-61.8,172.9-61.5z"/>
			<path class="st1" d="M174.6-63c-0.3,0.3-0.9,0.3-1.2,0c-2.3-2.4-6.2-2.5-8.6-0.2c-2.4,2.3-2.5,6.2-0.2,8.6c0.3,0.3,0.3,0.9,0,1.2
				s-0.9,0.3-1.2,0c-3-3.1-2.9-8.1,0.2-11c3.1-3,8.1-2.9,11,0.2C175-63.8,174.9-63.3,174.6-63z"/>
			<path class="st1" d="M171.3-60.1c-0.3,0.3-0.7,0.2-0.9,0c-0.7-0.8-2-0.8-2.7-0.1c-0.8,0.7-0.8,2-0.1,2.7c0.3,0.3,0.2,0.7,0,0.9
				c-0.3,0.3-0.7,0.2-0.9,0c-1.2-1.3-1.2-3.4,0.1-4.6c1.3-1.2,3.4-1.2,4.6,0.1C171.6-60.8,171.6-60.3,171.3-60.1z"/>
		</g>
		<g>
			<path class="st1" d="M213.2-190.5c-0.3,0.3-0.7,0.3-1,0c-1.5-1.6-4.1-1.6-5.7-0.1c-1.6,1.5-1.6,4.1-0.1,5.7c0.3,0.3,0.3,0.7,0,1
				c-0.3,0.3-0.7,0.3-1,0c-2.1-2.2-2-5.6,0.1-7.7c2.2-2.1,5.6-2,7.7,0.1C213.5-191.3,213.5-190.8,213.2-190.5z"/>
			<path class="st1" d="M214.9-192c-0.3,0.3-0.9,0.3-1.2,0c-2.3-2.4-6.2-2.5-8.6-0.2c-2.4,2.3-2.5,6.2-0.2,8.6
				c0.3,0.3,0.3,0.9,0,1.2c-0.3,0.3-0.9,0.3-1.2,0c-3-3.1-2.9-8.1,0.2-11s8.1-2.9,11,0.2C215.3-192.8,215.3-192.3,214.9-192z"/>
			<path class="st1" d="M211.7-189.1c-0.3,0.3-0.7,0.2-0.9,0c-0.7-0.8-2-0.8-2.7-0.1c-0.8,0.7-0.8,2-0.1,2.7c0.3,0.3,0.2,0.7,0,0.9
				c-0.3,0.3-0.7,0.2-0.9,0c-1.2-1.3-1.2-3.4,0.1-4.6s3.4-1.2,4.6,0.1C211.9-189.8,211.9-189.3,211.7-189.1z"/>
		</g>
		<path class="st1" d="M78.7-77.4c-0.5,0-0.8-0.4-0.8-0.8c0-2.6-2.1-4.7-4.7-4.7s-4.7,2.1-4.7,4.7c0,0.5-0.4,0.8-0.8,0.8
			c-0.5,0-0.8-0.4-0.8-0.8c0-3.5,2.9-6.4,6.4-6.4s6.4,2.9,6.4,6.4C79.5-77.8,79.1-77.4,78.7-77.4z"/>
		<path class="st1" d="M81.3-77.2c-0.6,0-1-0.4-1-1c0-4-3.2-7.2-7.2-7.2s-7.2,3.2-7.2,7.2c0,0.6-0.4,1-1,1s-1-0.4-1-1
			c0-5.1,4.1-9.2,9.2-9.2s9.2,4.1,9.2,9.2C82.3-77.7,81.9-77.2,81.3-77.2z"/>
		<path class="st1" d="M76.2-77.5c-0.4,0-0.8-0.4-0.8-0.8c0-1.3-1-2.3-2.3-2.3s-2.3,1-2.3,2.3c0,0.4-0.4,0.8-0.8,0.8
			c-0.4,0-0.8-0.4-0.8-0.8c0-2.1,1.7-3.8,3.8-3.8c2.1,0,3.8,1.7,3.8,3.8C77-77.8,76.6-77.5,76.2-77.5z"/>
		<path class="st1" d="M22.2-107.5c-0.4,0.2-1,0.1-1.3-0.4c-1.4-2.5-4.6-3.5-7.2-2.1s-3.5,4.6-2.1,7.2c0.2,0.4,0.1,1-0.4,1.3
			c-0.4,0.2-1,0.1-1.3-0.4c-1.9-3.4-0.6-7.8,2.8-9.7s7.8-0.6,9.7,2.8C22.8-108.3,22.6-107.7,22.2-107.5z"/>
		<path class="st1" d="M24.9-108.7c-0.5,0.3-1.2,0.1-1.5-0.4c-2.1-3.9-7-5.3-10.9-3.2c-3.9,2.1-5.3,7-3.2,10.9
			c0.3,0.5,0.1,1.2-0.4,1.5c-0.5,0.3-1.2,0.1-1.5-0.4c-2.7-4.9-0.9-11.2,4-13.9c4.9-2.7,11.2-0.9,13.9,4
			C25.6-109.7,25.4-109,24.9-108.7z"/>
		<path class="st1" d="M19.7-106.2c-0.4,0.2-1,0.1-1.2-0.3c-0.7-1.2-2.2-1.7-3.4-1s-1.7,2.2-1,3.4c0.2,0.4,0.1,1-0.3,1.2
			c-0.4,0.2-1,0.1-1.2-0.3c-1.1-2.1-0.4-4.7,1.7-5.8c2.1-1.1,4.7-0.4,5.8,1.7C20.3-107,20.2-106.4,19.7-106.2z"/>
		<path class="st1" d="M128.7-187.2c0.4,0.7,0.7,1.5,0.7,2.5v9.2c0,3-1.2,4.7-4.3,4.7h-8.2c-3,0-4.6-1.7-4.6-4.7v-9.2
			c0-1,0.2-1.8,0.7-2.5c-1.1-0.1-1.9-1-1.9-2.1c0-2.3,5.4-4.2,9.6-4.2c4.4-0.1,10,1.9,10,4.2C130.5-188.2,129.7-187.4,128.7-187.2z
			 M114.9-177.5c0-0.3-0.2-0.5-0.5-0.5c-0.3,0-0.5,0.2-0.5,0.5c0,0.3,0.2,0.5,0.5,0.5C114.7-177.1,114.9-177.3,114.9-177.5z
			 M125.8-175.8c-0.1-0.1-0.4-0.2-0.5,0c-0.8,0.8-2.5,1.3-4.3,1.3c-1.8,0-3.5-0.5-4.3-1.3c-0.1-0.1-0.4-0.1-0.5,0
			c-0.1,0.1-0.1,0.4,0,0.5c1,0.9,2.8,1.5,4.9,1.5c2,0,3.9-0.6,4.8-1.5C125.9-175.4,126-175.6,125.8-175.8z M128.2-177.3
			c0-0.3-0.2-0.5-0.5-0.5c-0.3,0-0.5,0.2-0.5,0.5c0,0.3,0.2,0.5,0.5,0.5C128-176.8,128.2-177,128.2-177.3z"/>
		<path class="st1" d="M266.7-179.8c0.4,0.6,0.6,1.4,0.6,2.3v8.5c0,2.8-1.1,4.3-3.9,4.3h-7.6c-2.8,0-4.2-1.6-4.2-4.3v-8.5
			c0-0.9,0.2-1.6,0.6-2.3c-1-0.1-1.7-0.9-1.7-1.9c0-2.2,4.9-3.8,8.8-3.9c4.1-0.1,9.1,1.7,9.1,3.9
			C268.4-180.7,267.6-179.9,266.7-179.8z M254.1-170.9c0-0.2-0.2-0.4-0.4-0.4s-0.4,0.2-0.4,0.4c0,0.2,0.2,0.4,0.4,0.4
			S254.1-170.7,254.1-170.9z M264.1-169.3c-0.1-0.1-0.3-0.1-0.5,0c-0.8,0.7-2.3,1.2-4,1.2c-1.7,0-3.2-0.5-4-1.2
			c-0.1-0.1-0.3-0.1-0.5,0c-0.1,0.1-0.1,0.3,0,0.5c0.9,0.8,2.6,1.4,4.4,1.4c1.8,0,3.5-0.5,4.4-1.3
			C264.2-169,264.2-169.2,264.1-169.3z M266.2-170.7c0-0.2-0.2-0.4-0.4-0.4c-0.2,0-0.4,0.2-0.4,0.4c0,0.2,0.2,0.4,0.4,0.4
			C266-170.2,266.2-170.4,266.2-170.7z"/>
		<path class="st1" d="M148.5-189.7c0.3,1.3-0.2,2.4-1.2,2.6c-0.1,0-0.2,0-0.3,0h0c-0.6,0-1.1-0.3-1.6-0.8c-0.1,0.4-0.2,0.8-0.5,1
			c-0.3,0.3-0.6,0.5-1,0.5c0,0-0.1,0-0.1,0c-0.9,0-1.5-0.7-1.8-1.4c-0.3,0.7-0.9,1.4-1.8,1.4c-0.4,0-0.7-0.2-1-0.6
			c-0.3-0.3-0.4-0.7-0.5-1.2c-0.4,0.5-0.9,0.9-1.5,0.9c-0.1,0-0.3,0-0.4-0.1c-0.9-0.3-1.4-1.5-1-2.7c0-0.1,0.1-0.2,0.1-0.3
			c-2.5-1.8-3.9-4.4-3.9-7.6c0-5.5,2.8-11.5,10.5-11.5c6.9,0,10.5,5.8,10.5,11.5C153.3-194.4,151.6-191.4,148.5-189.7z M136.8-194.4
			c0-0.3-0.3-0.6-0.6-0.6s-0.6,0.3-0.6,0.6c0,0.3,0.3,0.6,0.6,0.6S136.8-194.1,136.8-194.4z M149.8-194.4c0-0.3-0.3-0.6-0.6-0.6
			c-0.3,0-0.6,0.3-0.6,0.6c0,0.3,0.3,0.6,0.6,0.6C149.5-193.8,149.8-194.1,149.8-194.4z M147.2-192.9c-0.1-0.1-0.3-0.1-0.5,0
			c-0.7,0.7-2.3,1.1-3.9,1.1c-1.7,0-3.2-0.5-3.9-1.2c-0.1-0.1-0.3-0.1-0.5,0c-0.1,0.1-0.1,0.3,0,0.5c0.9,0.8,2.6,1.4,4.4,1.4
			c1.8,0,3.5-0.5,4.4-1.3C147.3-192.6,147.3-192.8,147.2-192.9z"/>
		<path class="st1" d="M64-4.7c0.3,1.2-0.2,2.4-1.1,2.6c-0.1,0-0.2,0-0.3,0h0C62-2,61.4-2.3,61-2.8c-0.1,0.4-0.2,0.8-0.5,1
			c-0.3,0.3-0.6,0.5-0.9,0.5c0,0-0.1,0-0.1,0c-0.9,0-1.5-0.7-1.8-1.4c-0.3,0.7-0.9,1.4-1.8,1.3c-0.4,0-0.7-0.2-1-0.5
			c-0.3-0.3-0.4-0.7-0.5-1.2c-0.4,0.5-0.9,0.8-1.5,0.8c-0.1,0-0.3,0-0.4-0.1c-0.9-0.3-1.3-1.5-1-2.7c0-0.1,0.1-0.2,0.1-0.3
			C49.3-7,48-9.6,48-12.7C48-18.2,50.7-24,58.3-24c6.8,0,10.4,5.7,10.4,11.3C68.7-9.2,67-6.3,64-4.7z M52.4-9.3
			c0-0.3-0.3-0.6-0.6-0.6s-0.6,0.3-0.6,0.6c0,0.3,0.3,0.6,0.6,0.6S52.4-9,52.4-9.3z M65.2-9.3c0-0.3-0.3-0.6-0.6-0.6
			c-0.3,0-0.6,0.3-0.6,0.6c0,0.3,0.3,0.6,0.6,0.6C64.9-8.7,65.2-9,65.2-9.3z M62.6-7.8c-0.1-0.1-0.3-0.1-0.5,0
			c-0.7,0.7-2.3,1.1-3.9,1.1c-1.6,0-3.2-0.5-3.9-1.1C54.3-8,54.1-8,54-7.8c-0.1,0.1-0.1,0.3,0,0.5C54.8-6.5,56.5-6,58.3-6
			c1.8,0,3.5-0.5,4.3-1.3C62.8-7.5,62.8-7.7,62.6-7.8z"/>
		<path class="st1" d="M110.3-72.3l-2.9,3.7c-0.6,0.7-1,2.2-1,3.1l0.1,4.7c0,0.5-0.1,1-0.5,1.3c-0.3,0.3-0.7,0.5-1.1,0.5
			c-0.2,0-0.5,0-0.7-0.1l-4.4-1.6c-0.4-0.1-1-0.2-1.6-0.2c-0.6,0-1.2,0.1-1.6,0.2l-4.4,1.6c-0.7,0.2-1.4,0.1-1.8-0.3
			c-0.3-0.3-0.5-0.8-0.5-1.3l0.1-4.7c0-0.9-0.4-2.3-1-3.1l-2.9-3.7c-0.4-0.5-0.5-1.1-0.3-1.6c0.2-0.5,0.6-0.9,1.2-1.1l4.5-1.3
			c0.9-0.3,2.1-1.1,2.6-1.9l2.7-3.9c0.4-0.5,0.9-0.8,1.4-0.8c0.5,0,1,0.3,1.4,0.8l2.7,3.9c0.5,0.8,1.7,1.6,2.6,1.9l4.5,1.3
			c0.6,0.2,1,0.6,1.2,1.1C110.8-73.4,110.7-72.8,110.3-72.3z M92.9-72.5c0,0.4,0.3,0.7,0.7,0.7c0.4,0,0.7-0.3,0.7-0.7
			c0-0.4-0.3-0.7-0.7-0.7C93.2-73.2,92.9-72.9,92.9-72.5z M102.8-69.9c-0.1-0.1-0.4-0.2-0.5,0c-0.8,0.8-2.5,1.3-4.3,1.3
			c-1.8,0-3.5-0.5-4.3-1.3c-0.1-0.1-0.4-0.1-0.5,0c-0.1,0.1-0.1,0.4,0,0.5C94.1-68.5,96-68,98-68c2,0,3.8-0.6,4.8-1.5
			C102.9-69.5,102.9-69.8,102.8-69.9z M103.6-72.5c0-0.4-0.3-0.7-0.7-0.7c-0.4,0-0.7,0.3-0.7,0.7c0,0.4,0.3,0.7,0.7,0.7
			C103.3-71.8,103.6-72.1,103.6-72.5z"/>
		<path class="st1" d="M200.8-248.8l-4.8,3.9c-0.9,0.8-2,2.5-2.2,3.7l-1.2,6.1c-0.1,0.7-0.5,1.2-1,1.6c-0.4,0.3-1,0.4-1.6,0.3
			c-0.3-0.1-0.6-0.2-0.9-0.4L184-237c-0.5-0.3-1.2-0.6-2-0.8c-0.8-0.2-1.6-0.2-2.2-0.2l-6.2,0.7c-1,0.1-1.8-0.3-2.2-0.9
			c-0.3-0.5-0.4-1.2-0.2-1.8l1.6-6c0.3-1.2,0.1-3.1-0.4-4.3l-2.6-5.6c-0.3-0.8-0.3-1.5,0-2.1c0.4-0.6,1-1,1.9-1l6.2-0.4
			c1.2-0.1,3-0.8,3.9-1.7l4.6-4.2c0.6-0.6,1.4-0.8,2-0.6c0.7,0.2,1.3,0.7,1.6,1.5l2.3,5.8c0.5,1.1,1.7,2.6,2.8,3.2l5.4,3
			c0.7,0.4,1.2,1,1.2,1.7C201.7-250.1,201.4-249.3,200.8-248.8z M178.5-254.2c-0.1,0.5,0.2,1,0.7,1.1c0.5,0.1,1-0.2,1.1-0.7
			c0.1-0.5-0.2-1-0.7-1.1C179.2-255,178.6-254.7,178.5-254.2z M190.4-247.9c-0.1-0.2-0.4-0.3-0.7-0.2c-1.3,0.7-3.6,0.9-5.9,0.4
			c-2.3-0.5-4.3-1.7-5.1-2.9c-0.1-0.2-0.4-0.3-0.7-0.1c-0.2,0.1-0.3,0.4-0.1,0.7c0.9,1.4,3.1,2.7,5.7,3.3c2.6,0.6,5.1,0.4,6.6-0.5
			C190.5-247.4,190.6-247.7,190.4-247.9z M192.2-251c0.1-0.5-0.2-1-0.7-1.1c-0.5-0.1-1,0.2-1.1,0.7c-0.1,0.5,0.2,1,0.7,1.1
			C191.6-250.2,192.1-250.5,192.2-251z"/>
		<path class="st1" d="M208.4-87.1l-2,2.6c-0.4,0.5-0.7,1.5-0.7,2.2l0.1,3.3c0,0.4-0.1,0.7-0.3,0.9c-0.2,0.2-0.5,0.3-0.8,0.3
			c-0.2,0-0.3,0-0.5-0.1l-3.1-1.1c-0.3-0.1-0.7-0.2-1.1-0.2c-0.4,0-0.8,0.1-1.1,0.2l-3.1,1.1c-0.5,0.2-1,0.1-1.3-0.2
			c-0.2-0.2-0.3-0.6-0.3-0.9l0.1-3.3c0-0.7-0.3-1.6-0.7-2.2l-2-2.6c-0.3-0.4-0.4-0.8-0.2-1.1c0.1-0.4,0.4-0.6,0.8-0.8l3.2-0.9
			c0.6-0.2,1.5-0.8,1.8-1.3L199-94c0.2-0.4,0.6-0.6,1-0.6c0.4,0,0.7,0.2,1,0.6l1.9,2.7c0.4,0.5,1.2,1.2,1.8,1.3l3.2,0.9
			c0.4,0.1,0.7,0.4,0.8,0.8C208.8-87.9,208.7-87.5,208.4-87.1z M196.2-87.3c0,0.3,0.2,0.5,0.5,0.5c0.3,0,0.5-0.2,0.5-0.5
			s-0.2-0.5-0.5-0.5C196.5-87.8,196.2-87.5,196.2-87.3z M203.2-85.5c-0.1-0.1-0.3-0.1-0.4,0c-0.6,0.5-1.8,0.9-3,0.9
			c-1.3,0-2.5-0.4-3-0.9c-0.1-0.1-0.3-0.1-0.4,0c-0.1,0.1-0.1,0.3,0,0.4c0.7,0.6,2,1,3.4,1c1.4,0,2.7-0.4,3.4-1
			C203.3-85.2,203.3-85.4,203.2-85.5z M203.7-87.3c0-0.3-0.2-0.5-0.5-0.5s-0.5,0.2-0.5,0.5s0.2,0.5,0.5,0.5S203.7-87,203.7-87.3z"/>
		<path class="st1" d="M70.1-94.7c0-0.6,0.5-1,1-1s1,0.5,1,1c0,0.6-0.5,1-1,1S70.1-94.1,70.1-94.7z"/>
		<path class="st1" d="M7.8-91.6c0-0.6,0.5-1,1-1c0.6,0,1,0.5,1,1s-0.5,1-1,1C8.3-90.6,7.8-91.1,7.8-91.6z"/>
		<path class="st1" d="M86.1-82c0-0.6,0.5-1,1-1c0.6,0,1,0.5,1,1s-0.5,1-1,1C86.6-81,86.1-81.4,86.1-82z"/>
		<path class="st1" d="M55.6-85.3c0-0.6,0.5-1,1-1s1,0.5,1,1s-0.5,1-1,1S55.6-84.8,55.6-85.3z"/>
		<path class="st1" d="M146.3-180.7c0-0.6,0.5-1,1-1s1,0.5,1,1s-0.5,1-1,1S146.3-180.1,146.3-180.7z"/>
		<path class="st1" d="M176.8-230.6c0-0.6,0.5-1,1-1s1,0.5,1,1s-0.5,1-1,1S176.8-230,176.8-230.6z"/>
		<path class="st1" d="M140.1-218.6c0-0.6,0.5-1,1-1s1,0.5,1,1s-0.5,1-1,1S140.1-218,140.1-218.6z"/>
		<path class="st1" d="M147.3-158.1c0-0.6,0.5-1,1-1s1,0.5,1,1s-0.5,1-1,1S147.3-157.5,147.3-158.1z"/>
		<path class="st1" d="M216.3-158.1c0-0.6,0.5-1,1-1s1,0.5,1,1s-0.5,1-1,1S216.3-157.5,216.3-158.1z"/>
		<path class="st1" d="M214.5-185.6c0-0.6,0.5-1,1-1s1,0.5,1,1s-0.5,1-1,1S214.5-185,214.5-185.6z"/>
		<path class="st1" d="M156.5-129.6c0-0.6,0.5-1,1-1s1,0.5,1,1s-0.5,1-1,1S156.5-129,156.5-129.6z"/>
		<path class="st1" d="M119-77.7c0-0.6,0.5-1,1-1s1,0.5,1,1c0,0.6-0.5,1-1,1S119-77.2,119-77.7z"/>
		<path class="st1" d="M119-110.9c0-0.6,0.5-1,1-1s1,0.5,1,1s-0.5,1-1,1S119-110.4,119-110.9z"/>
		<path class="st1" d="M101.1-118.5c0-0.6,0.5-1,1-1s1,0.5,1,1c0,0.6-0.5,1-1,1S101.1-117.9,101.1-118.5z"/>
		<path class="st1" d="M53.9-48.3c0-0.6,0.5-1,1-1s1,0.5,1,1c0,0.6-0.5,1-1,1S53.9-47.7,53.9-48.3z"/>
		<path class="st1" d="M72.9-3.3c0-0.6,0.5-1,1-1s1,0.5,1,1s-0.5,1-1,1S72.9-2.7,72.9-3.3z"/>
		<path class="st1" d="M153.5-3.3c0-0.6,0.5-1,1-1c0.6,0,1,0.5,1,1s-0.5,1-1,1C154-2.2,153.5-2.7,153.5-3.3z"/>
		<path class="st1" d="M20.5-51.3c0-0.6,0.5-1,1-1c0.6,0,1,0.5,1,1c0,0.6-0.5,1-1,1C20.9-50.2,20.5-50.7,20.5-51.3z"/>
		<path class="st1" d="M119.9-167.2c0-0.6,0.5-1,1-1s1,0.5,1,1s-0.5,1-1,1S119.9-166.6,119.9-167.2z"/>
		<path class="st1" d="M103.5-187.3c0-0.6,0.5-1,1-1s1,0.5,1,1s-0.5,1-1,1S103.5-186.8,103.5-187.3z"/>
		<path class="st1" d="M83.3-201.5c0-0.6,0.5-1,1-1s1,0.5,1,1s-0.5,1-1,1S83.3-201,83.3-201.5z"/>
		<path class="st1" d="M61.5-203.3c0-0.6,0.5-1,1-1c0.6,0,1,0.5,1,1s-0.5,1-1,1C61.9-202.2,61.5-202.7,61.5-203.3z"/>
		<path class="st1" d="M128.4-260.8c0-0.6,0.5-1,1-1s1,0.5,1,1s-0.5,1-1,1S128.4-260.2,128.4-260.8z"/>
		<path class="st1" d="M2.5-261.3c0-0.6,0.5-1,1-1s1,0.5,1,1s-0.5,1-1,1S2.5-260.7,2.5-261.3z"/>
		<path class="st1" d="M31.4-193.5c0-0.6,0.5-1,1-1c0.6,0,1,0.5,1,1s-0.5,1-1,1C31.9-192.4,31.4-192.9,31.4-193.5z"/>
		<path class="st1" d="M103.3-172.1c0-0.6,0.5-1,1-1s1,0.5,1,1s-0.5,1-1,1S103.3-171.5,103.3-172.1z"/>
		<path class="st1" d="M81.3-193.7c0,0.1-0.1,0.2-0.1,0.2l-4.3,2.4c0,0-0.1,0-0.1,0c0,0-0.1,0-0.1,0c-0.1,0-0.1-0.1-0.1-0.2v-5
			c0-0.1,0.1-0.2,0.1-0.2c0.1,0,0.2,0,0.3,0l4.3,2.5C81.2-193.9,81.3-193.8,81.3-193.7z M86.9-193.7c0,0.1-0.1,0.2-0.1,0.2l-4.3,2.4
			c0,0-0.1,0-0.1,0c0,0-0.1,0-0.1,0c-0.1,0-0.1-0.1-0.1-0.2v-5c0-0.1,0.1-0.2,0.1-0.2c0.1,0,0.2,0,0.3,0l4.3,2.5
			C86.8-193.9,86.9-193.8,86.9-193.7z"/>
		<path class="st1" d="M45.3-231c0,0.1-0.1,0.2-0.1,0.2l-4.3,2.4c0,0-0.1,0-0.1,0c0,0-0.1,0-0.1,0c-0.1,0-0.1-0.1-0.1-0.2v-5
			c0-0.1,0.1-0.2,0.1-0.2c0.1,0,0.2,0,0.3,0l4.3,2.5C45.2-231.2,45.3-231.1,45.3-231z M50.9-231c0,0.1-0.1,0.2-0.1,0.2l-4.3,2.4
			c0,0-0.1,0-0.1,0c0,0-0.1,0-0.1,0c-0.1,0-0.1-0.1-0.1-0.2v-5c0-0.1,0.1-0.2,0.1-0.2c0.1,0,0.2,0,0.3,0l4.3,2.5
			C50.8-231.2,50.9-231.1,50.9-231z"/>
		<path class="st1" d="M6.4-170.8c-0.1,0-0.3-0.1-0.3-0.2l-3.2-5.7c0-0.1,0-0.1,0-0.2c0-0.1,0-0.1,0-0.2c0.1-0.1,0.2-0.2,0.3-0.2
			h6.6c0.1,0,0.3,0.1,0.3,0.2c0.1,0.1,0.1,0.3,0,0.4l-3.3,5.7C6.7-170.8,6.5-170.8,6.4-170.8z M6.4-163.4c-0.1,0-0.3-0.1-0.3-0.2
			l-3.2-5.7c0-0.1,0-0.1,0-0.2c0-0.1,0-0.1,0-0.2c0.1-0.1,0.2-0.2,0.3-0.2h6.6c0.1,0,0.3,0.1,0.3,0.2c0.1,0.1,0.1,0.3,0,0.4
			l-3.3,5.7C6.7-163.4,6.5-163.4,6.4-163.4z"/>
		<path class="st1" d="M188.3-162.7c0,0.1-0.1,0.2-0.1,0.2l-4.3,2.4c0,0-0.1,0-0.1,0c0,0-0.1,0-0.1,0c-0.1,0-0.1-0.1-0.1-0.2v-5
			c0-0.1,0.1-0.2,0.1-0.2c0.1,0,0.2,0,0.3,0l4.3,2.5C188.2-162.9,188.3-162.8,188.3-162.7z M193.9-162.7c0,0.1-0.1,0.2-0.1,0.2
			l-4.3,2.4c0,0-0.1,0-0.1,0c0,0-0.1,0-0.1,0c-0.1,0-0.1-0.1-0.1-0.2v-5c0-0.1,0.1-0.2,0.1-0.2c0.1,0,0.2,0,0.3,0l4.3,2.5
			C193.8-162.9,193.9-162.8,193.9-162.7z"/>
		<path class="st1" d="M125.1-63.4l-6.5-3.8c-0.1-0.1-0.3-0.1-0.4,0c-0.1,0.1-0.2,0.2-0.2,0.4v7.5c0,0.1,0.1,0.3,0.2,0.4
			c0.1,0,0.1,0.1,0.2,0.1c0.1,0,0.1,0,0.2-0.1l6.5-3.7c0.1-0.1,0.2-0.2,0.2-0.4C125.3-63.2,125.2-63.4,125.1-63.4z"/>
		<path class="st1" d="M152-177.1v8.3c0,0.2-0.1,0.3-0.2,0.4c-0.1,0-0.2,0.1-0.2,0.1c-0.1,0-0.2,0-0.2-0.1l-7.2-4.2
			c-0.1-0.1-0.2-0.2-0.2-0.4c0-0.2,0.1-0.3,0.2-0.4l7.2-4.1c0.1-0.1,0.3-0.1,0.5,0C151.9-177.5,152-177.3,152-177.1z M142.7-177.1
			v8.3c0,0.2-0.1,0.3-0.2,0.4c-0.1,0-0.2,0.1-0.2,0.1c-0.1,0-0.2,0-0.2-0.1l-7.2-4.2c-0.1-0.1-0.2-0.2-0.2-0.4s0.1-0.3,0.2-0.4
			l7.2-4.1c0.1-0.1,0.3-0.1,0.5,0C142.6-177.5,142.7-177.3,142.7-177.1z"/>
		<path class="st1" d="M266.1-78.4H260c-0.1,0-0.2-0.1-0.3-0.2c0-0.1,0-0.1,0-0.2c0-0.1,0-0.1,0-0.2l3.1-5.3
			c0.1-0.1,0.2-0.2,0.3-0.2c0.1,0,0.2,0.1,0.3,0.2l3,5.3c0.1,0.1,0.1,0.2,0,0.3C266.3-78.4,266.2-78.4,266.1-78.4z M266.1-85.2H260
			c-0.1,0-0.2-0.1-0.3-0.2c0-0.1,0-0.1,0-0.2c0-0.1,0-0.1,0-0.2l3.1-5.3c0.1-0.1,0.2-0.2,0.3-0.2s0.2,0.1,0.3,0.2l3,5.3
			c0.1,0.1,0.1,0.2,0,0.3C266.3-85.3,266.2-85.2,266.1-85.2z"/>
		<path class="st1" d="M13.8-61.5H3.6c-0.2,0-0.4-0.1-0.5-0.3c0-0.1-0.1-0.2-0.1-0.3c0-0.1,0-0.2,0.1-0.3l5.2-8.8
			c0.1-0.2,0.3-0.3,0.5-0.3c0.2,0,0.4,0.1,0.5,0.3l5,8.8c0.1,0.2,0.1,0.4,0,0.6C14.1-61.6,14-61.5,13.8-61.5z M13.8-72.8H3.6
			c-0.2,0-0.4-0.1-0.5-0.3c0-0.1-0.1-0.2-0.1-0.3c0-0.1,0-0.2,0.1-0.3l5.2-8.8c0.1-0.2,0.3-0.3,0.5-0.3c0.2,0,0.4,0.1,0.5,0.3l5,8.8
			c0.1,0.2,0.1,0.4,0,0.6C14.1-72.9,14-72.8,13.8-72.8z"/>
		<path class="st1" d="M110.3-124c-0.2,0-0.3,0-0.5,0c-3.1,0-6.3-4.2-6.8-7.6c-0.4-3,1.4-4.1,3.8-4.7c-0.3-0.6-0.6-1.2-0.6-1.2
			c-0.1-0.1,0-0.2,0-0.3c0.1-0.1,0.2-0.1,0.3,0l1.1,0.6l0.7-1.8c0-0.1,0.2-0.2,0.3-0.2c0.1,0,0.2,0.1,0.2,0.2l0.2,1.7l1.9-0.4
			c0.1,0,0.2,0,0.3,0.1c0.1,0.1,0,0.2-0.1,0.3l-0.6,0.5c0.1,0,0.2,0,0.3,0c2.7,0,4.1,1.1,4.4,3.4C115.7-130,113.8-124.5,110.3-124z
			 M106.7-128.5c0-0.3-0.3-0.4-0.5-0.4c-0.3,0-0.4,0.3-0.4,0.5c0,0.3,0.3,0.4,0.5,0.4C106.5-128,106.7-128.2,106.7-128.5z
			 M113.8-129.7c0-0.3-0.3-0.4-0.5-0.4c-0.3,0-0.4,0.3-0.4,0.5c0,0.3,0.3,0.4,0.5,0.4C113.6-129.2,113.8-129.4,113.8-129.7z
			 M110.7-128.5c0-0.2-0.2-0.3-0.4-0.3l-1,0.1c-0.2,0-0.2,0.1-0.3,0.2c0,0.1,0,0.2,0,0.2c0,0.1,0.1,0.7,0.5,1
			c0.2,0.1,0.4,0.2,0.6,0.1C110.6-127.2,110.8-127.8,110.7-128.5z"/>
		<path class="st1" d="M172.1-155.2c-0.2,0.1-0.3,0.2-0.5,0.3c-3.2,1.5-8.6-1.2-10.7-4.5c-1.9-2.8-0.6-4.9,1.6-6.7
			c-0.6-0.5-1.2-0.9-1.2-0.9c-0.1-0.1-0.1-0.2-0.1-0.3c0-0.1,0.2-0.2,0.3-0.2l1.4,0.1l-0.2-2.2c0-0.1,0.1-0.3,0.2-0.3
			c0.1,0,0.3,0,0.3,0.1l1,1.6l1.8-1.3c0.1-0.1,0.3-0.1,0.4,0c0.1,0.1,0.1,0.2,0.1,0.4l-0.4,0.8c0.1-0.1,0.2-0.1,0.3-0.2
			c2.8-1.3,4.7-0.9,6.2,1.4C174.7-164,175.4-157.4,172.1-155.2z M166.1-158c-0.2-0.3-0.5-0.3-0.8-0.2c-0.3,0.2-0.3,0.5-0.2,0.8
			c0.2,0.3,0.5,0.3,0.8,0.2C166.2-157.5,166.3-157.8,166.1-158z M172.9-162.8c-0.2-0.3-0.5-0.3-0.8-0.2c-0.3,0.2-0.3,0.5-0.2,0.8
			c0.2,0.3,0.5,0.3,0.8,0.2C173-162.2,173-162.5,172.9-162.8z M170.2-160.1c-0.1-0.2-0.4-0.2-0.6-0.1l-1,0.7
			c-0.2,0.1-0.2,0.2-0.2,0.3c0,0.1,0,0.2,0.1,0.2c0.1,0.1,0.5,0.7,1,0.8c0.2,0.1,0.5,0,0.7-0.1C170.7-158.7,170.7-159.3,170.2-160.1
			z"/>
		<path class="st1" d="M36.2-170.6c-0.2,0.1-0.3,0.2-0.5,0.3c-3.4,1.6-9.2-1.3-11.5-4.9c-2-3.1-0.6-5.3,1.8-7.2
			c-0.7-0.5-1.3-1-1.3-1c-0.1-0.1-0.2-0.2-0.1-0.4c0-0.1,0.2-0.2,0.3-0.2l1.5,0.1l-0.2-2.4c0-0.1,0.1-0.3,0.2-0.3
			c0.1,0,0.3,0,0.4,0.1l1.1,1.7l1.9-1.4c0.1-0.1,0.3-0.1,0.4,0c0.1,0.1,0.1,0.2,0.1,0.4l-0.4,0.9c0.1-0.1,0.2-0.1,0.3-0.2
			c2.9-1.4,5.1-0.9,6.7,1.5C39-180,39.8-172.9,36.2-170.6z M29.8-173.6c-0.2-0.3-0.5-0.3-0.8-0.2c-0.3,0.2-0.3,0.5-0.2,0.8
			c0.2,0.3,0.5,0.3,0.8,0.2C29.9-173,30-173.3,29.8-173.6z M37-178.7c-0.2-0.3-0.5-0.3-0.8-0.2c-0.3,0.2-0.3,0.5-0.2,0.8
			c0.2,0.3,0.5,0.3,0.8,0.2C37.1-178,37.2-178.4,37-178.7z M34.2-175.8c-0.1-0.2-0.4-0.2-0.6-0.1l-1.1,0.7c-0.2,0.1-0.2,0.3-0.2,0.3
			c0,0.1,0,0.2,0.1,0.2c0.1,0.1,0.5,0.7,1.1,0.8c0.3,0.1,0.5,0,0.7-0.1C34.7-174.3,34.7-175,34.2-175.8z"/>
		<path class="st1" d="M67.3-147.3c-1.2,1.3-2.9,1.5-3.7,1.5c-0.5,0-0.8-0.1-0.8-0.1c-0.1,0-0.2-0.1-0.2-0.2c0-0.1,0.1-0.2,0.2-0.2
			c0.6-0.1,0.9-0.5,1.1-1.2c0.1-0.4,0.1-0.7,0.1-0.9h-2.1c-3,0-4.7-1.7-4.7-4.7v-1c0-3,1.7-4.7,4.7-4.7h2.3c3,0,4.7,1.7,4.7,4.7v1
			C69.1-150.6,68.5-148.6,67.3-147.3z M65.5-151.9c-0.1-0.1-0.2-0.1-0.3,0c-0.4,0.4-1.3,0.7-2.3,0.7c-1,0-1.8-0.3-2.3-0.7
			c-0.1-0.1-0.2-0.1-0.3,0c-0.1,0.1-0.1,0.2,0,0.3c0.5,0.5,1.5,0.8,2.5,0.8c1,0,2-0.3,2.5-0.8C65.6-151.7,65.6-151.8,65.5-151.9z
			 M66.5-153c0-0.2-0.2-0.4-0.4-0.4s-0.4,0.2-0.4,0.4s0.2,0.4,0.4,0.4S66.5-152.7,66.5-153z M60.3-153c0-0.2-0.2-0.4-0.4-0.4
			c-0.2,0-0.4,0.2-0.4,0.4s0.2,0.4,0.4,0.4C60.1-152.6,60.3-152.7,60.3-153z"/>
		<path class="st1" d="M262.8-248.6c-1.6,1.7-3.8,2-4.9,2c-0.6,0-1-0.1-1-0.1c-0.2,0-0.3-0.2-0.3-0.3c0-0.2,0.1-0.3,0.3-0.3
			c0.7-0.1,1.2-0.6,1.4-1.6c0.1-0.5,0.1-0.9,0.1-1.2h-2.7c-4,0-6.3-2.3-6.3-6.3v-1.3c0-4,2.3-6.3,6.3-6.3h3c4,0,6.3,2.3,6.3,6.3v1.3
			C265.1-252.9,264.4-250.3,262.8-248.6z M260.4-254.5c-0.1-0.1-0.3-0.1-0.4,0c-0.6,0.5-1.7,0.9-3,0.9c-1.3,0-2.4-0.3-3-0.9
			c-0.1-0.1-0.3-0.1-0.4,0c-0.1,0.1-0.1,0.3,0,0.4c0.7,0.6,1.9,1,3.3,1c1.4,0,2.7-0.4,3.3-1C260.5-254.3,260.5-254.4,260.4-254.5z
			 M261.7-256c0-0.3-0.3-0.6-0.6-0.6c-0.3,0-0.6,0.3-0.6,0.6c0,0.3,0.3,0.6,0.6,0.6C261.5-255.5,261.7-255.7,261.7-256z M253.5-256
			c0-0.3-0.3-0.6-0.6-0.6c-0.3,0-0.6,0.3-0.6,0.6c0,0.3,0.3,0.6,0.6,0.6C253.3-255.5,253.5-255.7,253.5-256z"/>
		<path class="st1" d="M53.3-207c-1.5,1.6-3.5,1.8-4.5,1.8c-0.6,0-0.9-0.1-0.9-0.1c-0.1,0-0.3-0.2-0.2-0.3c0-0.1,0.1-0.3,0.3-0.3
			c0.7-0.1,1.1-0.6,1.3-1.5c0.1-0.4,0.1-0.9,0.1-1.1h-2.5c-3.7,0-5.8-2.1-5.8-5.8v-1.2c0-3.7,2.1-5.8,5.8-5.8h2.8
			c3.7,0,5.8,2.1,5.8,5.8v1.2C55.5-211,54.8-208.6,53.3-207z M51.1-212.5c-0.1-0.1-0.2-0.1-0.3,0c-0.5,0.5-1.6,0.8-2.8,0.8
			c-1.2,0-2.3-0.3-2.8-0.8c-0.1-0.1-0.2-0.1-0.3,0c-0.1,0.1-0.1,0.2,0,0.3c0.6,0.6,1.8,1,3.1,1c1.3,0,2.5-0.4,3.1-0.9
			C51.2-212.3,51.2-212.5,51.1-212.5z M52.3-213.9c0-0.3-0.2-0.5-0.5-0.5c-0.3,0-0.5,0.2-0.5,0.5c0,0.3,0.2,0.5,0.5,0.5
			C52.1-213.4,52.3-213.6,52.3-213.9z M44.7-213.9c0-0.3-0.2-0.5-0.5-0.5c-0.3,0-0.5,0.2-0.5,0.5c0,0.3,0.2,0.5,0.5,0.5
			C44.5-213.4,44.7-213.6,44.7-213.9z"/>
		<path class="st1" d="M44.3-95.4c-0.2,0.2-0.5,0.3-0.7,0.1c-0.3-0.2-7.2-5.8-7.9-6.4c-0.6-0.6-0.8-0.5-1.1-0.4
			c-0.6,0.3-0.5,0.8-0.5,0.8c0,0,0,0.1,0,0.1l-1,7.3h4.3c0.9,0,1.6,0.7,1.6,1.6v33.9c0,0.9-0.7,1.6-1.6,1.6H23.2
			c-0.9,0-1.6-0.7-1.6-1.6v-29.9c-2.9-0.3-5.2-2.8-5.2-5.7c0,0,0,0,0,0c0,0,0,0,0,0c0,0,0,0,0,0c0-3.2,2.6-5.7,5.8-5.7
			c3.2,0,5.8,2.6,5.8,5.8c0,0,0,0.1,0,0.1h4.2l1-7.4c0-0.5,0.2-1.3,1-1.8c1-0.5,1.7,0.1,2.2,0.5c0.7,0.6,7.8,6.4,7.9,6.4
			C44.5-95.9,44.5-95.6,44.3-95.4z M26.2-70.9c-0.1-0.1-0.4-0.1-0.5,0c-0.1,0.1-0.1,0.4,0,0.5c0.9,0.9,2.8,1.5,4.8,1.5
			c2,0,3.8-0.6,4.8-1.5c0.1-0.1,0.2-0.4,0-0.5c-0.1-0.1-0.4-0.2-0.5,0c-0.8,0.8-2.5,1.3-4.3,1.3C28.7-69.7,27-70.2,26.2-70.9z
			 M31.2-87.1l0.8-6h-8.8c-0.4,0-0.8,0.4-0.8,0.8v5.2H31.2z M23.9-73.2c-0.4,0-0.7,0.3-0.7,0.7c0,0.4,0.3,0.7,0.7,0.7
			c0.4,0,0.7-0.3,0.7-0.7C24.5-72.9,24.2-73.2,23.9-73.2z M27-93.9c0,0,0-0.1,0-0.1c0-0.6-0.1-1.1-0.3-1.6l-3,1.7H27z M23.9-98.6
			l-0.3,3.7l2.8-1.6C25.8-97.4,24.9-98.2,23.9-98.6z M22.2-98.9c-0.9,0-1.7,0.3-2.5,0.7l3,3.8l0.3-4.4
			C22.7-98.9,22.4-98.9,22.2-98.9z M17.3-94.5l4.3,0.2L19-97.7C18.1-96.9,17.4-95.7,17.3-94.5z M18.7-90.6c0-0.1,0-0.2,0.1-0.2
			l2.2-2.6l-3.7-0.2C17.4-92.4,18-91.4,18.7-90.6z M21.6-89.2v-3.1c0-0.1,0-0.3,0.1-0.4l-2.1,2.5c-0.1,0.1-0.1,0.1-0.2,0.1
			C20-89.6,20.7-89.3,21.6-89.2z M38.2-58.5v-0.8H22.4v0.8c0,0.4,0.4,0.8,0.8,0.8h14.2C37.9-57.7,38.2-58,38.2-58.5z M36.3-71.9
			c0.4,0,0.7-0.3,0.7-0.7c0-0.4-0.3-0.7-0.7-0.7c-0.4,0-0.7,0.3-0.7,0.7C35.6-72.2,35.9-71.9,36.3-71.9z M33-93.1l-0.8,6h6v-5.2
			c0-0.4-0.4-0.8-0.8-0.8H33z"/>
		<path class="st1" d="M169.7-239.1c-0.1,0.2-0.4,0.2-0.6,0.1c-0.2-0.2-5.6-4.6-6.2-5.1c-0.5-0.4-0.6-0.4-0.8-0.3
			c-0.4,0.2-0.4,0.6-0.4,0.7c0,0,0,0.1,0,0.1l-0.7,5.7h3.4c0.7,0,1.3,0.6,1.3,1.3v26.6c0,0.7-0.6,1.3-1.3,1.3h-11.2
			c-0.7,0-1.3-0.6-1.3-1.3v-23.4c-2.3-0.2-4.1-2.2-4.1-4.5c0,0,0,0,0,0c0,0,0,0,0,0c0,0,0,0,0,0c0-2.5,2-4.5,4.5-4.5
			c2.5,0,4.5,2,4.5,4.5c0,0,0,0.1,0,0.1h3.3l0.8-5.8c0-0.4,0.1-1,0.8-1.4c0.8-0.4,1.4,0.1,1.7,0.4c0.6,0.5,6.1,5,6.2,5
			C169.8-239.5,169.8-239.3,169.7-239.1z M155.4-219.9c-0.1-0.1-0.3-0.1-0.4,0c-0.1,0.1-0.1,0.3,0,0.4c0.7,0.7,2.2,1.2,3.8,1.2
			c1.6,0,3-0.4,3.8-1.1c0.1-0.1,0.1-0.3,0-0.4c-0.1-0.1-0.3-0.1-0.4,0c-0.6,0.6-2,1-3.4,1C157.4-218.9,156.1-219.3,155.4-219.9z
			 M159.4-232.6l0.6-4.7h-6.9c-0.3,0-0.6,0.3-0.6,0.6v4.1H159.4z M153.6-221.7c-0.3,0-0.5,0.2-0.5,0.5c0,0.3,0.2,0.5,0.5,0.5
			c0.3,0,0.5-0.2,0.5-0.5C154.1-221.5,153.9-221.7,153.6-221.7z M156.1-237.9C156.1-238,156.1-238,156.1-237.9
			c0-0.5-0.1-0.9-0.2-1.3l-2.4,1.3H156.1z M153.6-241.6l-0.2,2.9l2.2-1.2C155.1-240.7,154.5-241.3,153.6-241.6z M152.3-241.8
			c-0.7,0-1.4,0.2-1.9,0.5l2.3,3l0.3-3.5C152.7-241.8,152.5-241.8,152.3-241.8z M148.5-238.4l3.4,0.2l-2.1-2.7
			C149-240.3,148.6-239.4,148.5-238.4z M149.6-235.3c0-0.1,0-0.1,0.1-0.2l1.7-2l-2.9-0.1C148.6-236.8,149-235.9,149.6-235.3z
			 M151.8-234.2v-2.4c0-0.1,0-0.2,0-0.3l-1.7,1.9c0,0.1-0.1,0.1-0.2,0.1C150.5-234.6,151.2-234.3,151.8-234.2z M164.9-210.1v-0.6
			h-12.4v0.6c0,0.3,0.3,0.6,0.6,0.6h11.2C164.6-209.5,164.9-209.8,164.9-210.1z M163.4-220.6c0.3,0,0.5-0.2,0.5-0.5
			c0-0.3-0.2-0.5-0.5-0.5c-0.3,0-0.5,0.2-0.5,0.5C162.8-220.9,163.1-220.6,163.4-220.6z M160.8-237.3l-0.6,4.7h4.7v-4.1
			c0-0.3-0.3-0.6-0.6-0.6H160.8z"/>
		<path class="st1" d="M102.7-110C102.7-110,102.7-109.9,102.7-110l-3.3,19.2c0,0.9-0.7,1.6-1.6,1.6H83.6c-0.9,0-1.6-0.7-1.6-1.6
			l-3.4-19.1c0,0,0,0,0-0.1c0-0.9,0.7-1.6,1.6-1.6h20.9C102-111.6,102.7-110.9,102.7-110z M98.6-90.9l0.1-0.7H82.6l0.1,0.7
			c0,0,0,0,0,0.1c0,0.4,0.4,0.8,0.8,0.8h14.2C98.2-90,98.6-90.4,98.6-90.9C98.6-90.8,98.6-90.9,98.6-90.9z M84.8-98.1
			c0.4,0,0.6-0.3,0.6-0.6s-0.3-0.6-0.6-0.6c-0.4,0-0.6,0.3-0.6,0.6S84.4-98.1,84.8-98.1z M86.5-95.7c0.9,0.8,2.5,1.3,4.4,1.3
			c1.8,0,3.5-0.5,4.4-1.3c0.1-0.1,0.1-0.3,0-0.5c-0.1-0.1-0.3-0.1-0.5,0c-0.7,0.7-2.3,1.1-3.9,1.1c-1.6,0-3.2-0.5-3.9-1.2
			c-0.1-0.1-0.3-0.1-0.5,0C86.3-96.1,86.3-95.9,86.5-95.7z M97.4-98.1c0.4,0,0.6-0.3,0.6-0.6s-0.3-0.6-0.6-0.6
			c-0.4,0-0.6,0.3-0.6,0.6S97.1-98.1,97.4-98.1z M101.8-110c0-0.4-0.4-0.8-0.8-0.8H80.2c-0.4,0-0.8,0.3-0.8,0.7l0.9,5.3h20.6
			L101.8-110z"/>
		<path class="st1" d="M254-136.3C254-136.3,254-136.3,254-136.3l-3,17.5c0,0.8-0.7,1.4-1.5,1.4h-13c-0.8,0-1.4-0.6-1.5-1.4
			l-3.1-17.4c0,0,0,0,0-0.1c0-0.8,0.7-1.5,1.5-1.5h19C253.3-137.8,254-137.1,254-136.3z M250.2-118.9l0.1-0.7h-14.6l0.1,0.7
			c0,0,0,0,0,0.1c0,0.4,0.3,0.7,0.7,0.7h13C249.9-118.1,250.2-118.5,250.2-118.9C250.2-118.9,250.2-118.9,250.2-118.9z M237.6-125.4
			c0.3,0,0.6-0.3,0.6-0.6c0-0.3-0.3-0.6-0.6-0.6s-0.6,0.3-0.6,0.6C237.1-125.7,237.3-125.4,237.6-125.4z M239.2-123.3
			c0.8,0.8,2.3,1.2,4,1.2c1.7,0,3.2-0.5,4-1.2c0.1-0.1,0.1-0.3,0-0.4c-0.1-0.1-0.3-0.1-0.4,0c-0.7,0.6-2.1,1-3.5,1
			c-1.5,0-2.9-0.4-3.6-1.1c-0.1-0.1-0.3-0.1-0.4,0C239.1-123.6,239.1-123.5,239.2-123.3z M249.2-125.4c0.3,0,0.6-0.3,0.6-0.6
			c0-0.3-0.3-0.6-0.6-0.6c-0.3,0-0.6,0.3-0.6,0.6C248.6-125.7,248.8-125.4,249.2-125.4z M253.2-136.3c0-0.4-0.3-0.7-0.7-0.7h-19
			c-0.4,0-0.7,0.3-0.7,0.7l0.9,4.9h18.8L253.2-136.3z"/>
		<path class="st1" d="M17.3-262.8C17.3-262.8,17.4-262.8,17.3-262.8l8.8,15.4c0.5,0.6,0.4,1.5-0.2,2l-10,8.2
			c-0.6,0.5-1.5,0.4-2-0.2L0.4-248.8c0,0,0,0,0,0c-0.5-0.6-0.4-1.6,0.2-2.1L15.3-263C15.9-263.5,16.8-263.4,17.3-262.8z M25.5-247
			l-0.3-0.6l-11.3,9.3l0.5,0.4c0,0,0,0,0,0c0.2,0.3,0.7,0.3,1,0.1l10-8.2C25.7-246.2,25.7-246.6,25.5-247
			C25.5-247,25.5-247,25.5-247z M11.6-244.1c0.3-0.2,0.3-0.6,0.1-0.8c-0.2-0.3-0.6-0.3-0.8-0.1c-0.3,0.2-0.3,0.6-0.1,0.8
			C11-243.9,11.3-243.9,11.6-244.1z M14.1-243.4c1.1,0.1,2.6-0.5,3.9-1.6c1.3-1,2.2-2.4,2.3-3.4c0-0.2-0.1-0.3-0.3-0.3
			c-0.2,0-0.3,0.1-0.3,0.3c-0.1,0.9-0.9,2.1-2.1,3.1c-1.2,0.9-2.5,1.5-3.4,1.4c-0.2,0-0.3,0.1-0.3,0.3
			C13.8-243.6,14-243.4,14.1-243.4z M20.5-251.4c0.3-0.2,0.3-0.6,0.1-0.8c-0.2-0.3-0.6-0.3-0.8-0.1c-0.3,0.2-0.3,0.6-0.1,0.8
			C19.9-251.2,20.2-251.2,20.5-251.4z M16.7-262.3c-0.3-0.3-0.7-0.3-1-0.1L1-250.4c-0.3,0.2-0.3,0.7-0.1,1l3.7,3.2l14.5-11.9
			L16.7-262.3z"/>
		<path class="st1" d="M85.3-240C85.3-240,85.3-240,85.3-240l-3.4,33.9c0,0.9-0.7,1.6-1.6,1.6H69.2c-0.9,0-1.6-0.7-1.6-1.6L64.2-240
			c0,0,0,0,0,0c0-0.9,0.7-1.6,1.6-1.6h17.9C84.6-241.6,85.3-240.9,85.3-240z M65.1-240l0.3,2.8h18.9l0.3-2.8c0-0.4-0.4-0.8-0.8-0.8
			H65.8C65.4-240.8,65.1-240.5,65.1-240z M80.8-233.5c0,0.2,0.1,0.3,0.3,0.3c0.2,0,0.3-0.1,0.3-0.3c0-0.2-0.1-0.3-0.3-0.3
			C80.9-233.9,80.8-233.7,80.8-233.5z M81.1-235.1c0.2,0,0.3-0.1,0.3-0.3c0-0.2-0.1-0.3-0.3-0.3c-0.2,0-0.3,0.1-0.3,0.3
			C80.8-235.3,80.9-235.1,81.1-235.1z M80.6-225.9c0,0.4,0.3,0.6,0.6,0.6c0.4,0,0.6-0.3,0.6-0.6c0-0.4-0.3-0.6-0.6-0.6
			C80.9-226.5,80.6-226.2,80.6-225.9z M83.1-236.2c0-0.2-0.1-0.3-0.3-0.3c-0.2,0-0.3,0.1-0.3,0.3c0,0.2,0.1,0.3,0.3,0.3
			C83-235.9,83.1-236,83.1-236.2z M82.9-234.9c-0.2,0-0.3,0.1-0.3,0.3c0,0.2,0.1,0.3,0.3,0.3c0.2,0,0.3-0.1,0.3-0.3
			C83.2-234.8,83.1-234.9,82.9-234.9z M70.4-222.9c0.9,0.8,2.5,1.3,4.4,1.3c1.8,0,3.5-0.5,4.4-1.3c0.1-0.1,0.1-0.3,0-0.5
			c-0.1-0.1-0.3-0.1-0.5,0c-0.7,0.7-2.3,1.1-3.9,1.1c-1.6,0-3.2-0.5-3.9-1.2c-0.1-0.1-0.3-0.1-0.5,0C70.2-223.2,70.2-223,70.4-222.9
			z M70.4-235.2c0.2,0,0.3-0.1,0.3-0.3c0-0.2-0.1-0.3-0.3-0.3c-0.2,0-0.3,0.1-0.3,0.3C70-235.4,70.2-235.2,70.4-235.2z M70.8-234.3
			c0,0.2,0.1,0.3,0.3,0.3c0.2,0,0.3-0.1,0.3-0.3c0-0.2-0.1-0.3-0.3-0.3C71-234.6,70.8-234.5,70.8-234.3z M71.3-236.2
			c0.2,0,0.3-0.1,0.3-0.3c0-0.2-0.1-0.3-0.3-0.3c-0.2,0-0.3,0.1-0.3,0.3C71-236.4,71.2-236.2,71.3-236.2z M72.5-233.2
			c0,0.2,0.1,0.3,0.3,0.3c0.2,0,0.3-0.1,0.3-0.3c0-0.2-0.1-0.3-0.3-0.3C72.6-233.5,72.5-233.4,72.5-233.2z M72.8-234.8
			c0.2,0,0.3-0.1,0.3-0.3c0-0.2-0.1-0.3-0.3-0.3c-0.2,0-0.3,0.1-0.3,0.3C72.5-235,72.6-234.8,72.8-234.8z M72.5-231
			c0,0.2,0.1,0.3,0.3,0.3c0.2,0,0.3-0.1,0.3-0.3c0-0.2-0.1-0.3-0.3-0.3C72.6-231.3,72.5-231.2,72.5-231z M73.8-235.9
			c0.2,0,0.3-0.1,0.3-0.3c0-0.2-0.1-0.3-0.3-0.3c-0.2,0-0.3,0.1-0.3,0.3C73.5-236.1,73.6-235.9,73.8-235.9z M75.8-232.6
			c0-0.2-0.1-0.3-0.3-0.3c-0.2,0-0.3,0.1-0.3,0.3c0,0.2,0.1,0.3,0.3,0.3C75.6-232.3,75.8-232.4,75.8-232.6z M75.8-230.7
			c-0.2,0-0.3,0.1-0.3,0.3c0,0.2,0.1,0.3,0.3,0.3c0.2,0,0.3-0.1,0.3-0.3C76.1-230.5,76-230.7,75.8-230.7z M75.5-235.6
			c0-0.2-0.1-0.3-0.3-0.3c-0.2,0-0.3,0.1-0.3,0.3c0,0.2,0.1,0.3,0.3,0.3C75.3-235.2,75.5-235.4,75.5-235.6z M74.6-234.6
			c-0.2,0-0.3,0.1-0.3,0.3c0,0.2,0.1,0.3,0.3,0.3c0.2,0,0.3-0.1,0.3-0.3C74.9-234.5,74.8-234.6,74.6-234.6z M76.5-234.5
			c0,0.2,0.1,0.3,0.3,0.3s0.3-0.1,0.3-0.3c0-0.2-0.1-0.3-0.3-0.3S76.5-234.7,76.5-234.5z M76.8-236.1c0.2,0,0.3-0.1,0.3-0.3
			c0-0.2-0.1-0.3-0.3-0.3s-0.3,0.1-0.3,0.3C76.5-236.3,76.6-236.1,76.8-236.1z M78.3-232.3c-0.2,0-0.3,0.1-0.3,0.3
			c0,0.2,0.1,0.3,0.3,0.3c0.2,0,0.3-0.1,0.3-0.3C78.6-232.1,78.4-232.3,78.3-232.3z M78.6-235.2c0.2,0,0.3-0.1,0.3-0.3
			c0-0.2-0.1-0.3-0.3-0.3c-0.2,0-0.3,0.1-0.3,0.3C78.3-235.4,78.4-235.2,78.6-235.2z M79.4-234.3c0.2,0,0.3-0.1,0.3-0.3
			c0-0.2-0.1-0.3-0.3-0.3c-0.2,0-0.3,0.1-0.3,0.3C79.1-234.4,79.3-234.3,79.4-234.3z M79.9-236.5c0-0.2-0.1-0.3-0.3-0.3
			c-0.2,0-0.3,0.1-0.3,0.3c0,0.2,0.1,0.3,0.3,0.3C79.7-236.2,79.9-236.4,79.9-236.5z M67.2-235.6c0-0.2-0.1-0.3-0.3-0.3
			c-0.2,0-0.3,0.1-0.3,0.3c0,0.2,0.1,0.3,0.3,0.3C67.1-235.2,67.2-235.4,67.2-235.6z M66.9-233.5c0,0.2,0.1,0.3,0.3,0.3
			c0.2,0,0.3-0.1,0.3-0.3c0-0.2-0.1-0.3-0.3-0.3C67.1-233.9,66.9-233.7,66.9-233.5z M68.7-225.2c0.4,0,0.6-0.3,0.6-0.6
			c0-0.4-0.3-0.6-0.6-0.6c-0.4,0-0.6,0.3-0.6,0.6C68-225.5,68.3-225.2,68.7-225.2z M68.3-234.5c0,0.2,0.1,0.3,0.3,0.3
			s0.3-0.1,0.3-0.3c0-0.2-0.1-0.3-0.3-0.3S68.3-234.7,68.3-234.5z M68.6-236.1c0.2,0,0.3-0.1,0.3-0.3c0-0.2-0.1-0.3-0.3-0.3
			s-0.3,0.1-0.3,0.3C68.3-236.3,68.4-236.1,68.6-236.1z M69.5-232.3c0.2,0,0.3-0.1,0.3-0.3c0-0.2-0.1-0.3-0.3-0.3
			c-0.2,0-0.3,0.1-0.3,0.3C69.2-232.4,69.4-232.3,69.5-232.3z M81.1-206.2l0.1-0.7H68.3l0.1,0.7c0,0,0,0,0,0c0,0.4,0.4,0.8,0.8,0.8
			h11.1C80.8-205.4,81.1-205.7,81.1-206.2C81.1-206.2,81.1-206.2,81.1-206.2z"/>
		<path class="st1" d="M51-182.8v15.1l2.6,0.7c0,0,0,0,0,0c0.5,0.2,0.7,0.4,0.6,0.7c-0.1,0.3-0.4,0.6-1.6,0.6h-5.2
			c-1,0-1.5-0.2-1.6-0.6c-0.1-0.5,0.5-0.7,0.7-0.8c0,0,0,0,0,0l2.5-0.7v-14.8l-11.2-13.1c0,0,0,0,0,0c-0.6-0.8-0.4-1.4-0.3-1.7
			c0.3-0.6,1-0.9,1.5-0.9h22.3c0.6,0,1.3,0.3,1.5,0.9c0.2,0.4,0.2,1-0.4,1.8L51-182.8z M45.5-189.4c0.4,0,0.7-0.3,0.7-0.7
			c0-0.4-0.3-0.7-0.7-0.7c-0.4,0-0.7,0.3-0.7,0.7C44.8-189.7,45.1-189.4,45.5-189.4z M54.4-189.4c0.4,0,0.7-0.3,0.7-0.7
			c0-0.4-0.3-0.7-0.7-0.7c-0.4,0-0.7,0.3-0.7,0.7C53.7-189.7,54-189.4,54.4-189.4z M52.5-188.3c-0.1-0.1-0.3,0-0.4,0.1
			c-0.4,0.7-1.2,1.2-2.1,1.2c-0.9,0-1.7-0.5-2.1-1.2c-0.1-0.1-0.2-0.2-0.4-0.1c-0.1,0.1-0.2,0.2-0.1,0.4c0.5,0.9,1.5,1.5,2.6,1.5
			c1.1,0,2.1-0.6,2.6-1.5C52.6-188,52.6-188.2,52.5-188.3z M38.4-196.2l2.4,2.8h18.5l2.4-2.7c0.2-0.2,0.4-0.6,0.3-0.8
			c-0.1-0.2-0.5-0.4-0.7-0.4H38.9c-0.2,0-0.6,0.1-0.7,0.4C38.1-196.7,38.3-196.4,38.4-196.2z M50.3-167.1c-0.2,0-0.2-0.1-0.3-0.1
			c-0.1,0-0.1,0-0.3,0.1c0,0,0,0,0,0l-2.1,0.5h4.7L50.3-167.1z"/>
		<path class="st1" d="M197.6-34.5c0-0.1-0.1-0.1-0.2-0.1l-0.6,0c-0.1,0-0.3-0.1-0.4-0.2l-0.4-0.4c-0.1-0.1-0.1-0.1-0.2-0.1
			c-0.1,0-0.1,0.1-0.2,0.1l-0.2,0.6c0,0.1-0.2,0.3-0.3,0.3l-0.5,0.3c-0.1,0-0.1,0.1-0.1,0.2c0,0.1,0,0.1,0.1,0.2l0.5,0.4
			c0.1,0.1,0.2,0.2,0.2,0.4l0.1,0.6c0,0.1,0,0.1,0.1,0.2c0.1,0,0.2,0,0.2,0l0.5-0.3c0,0,0.1-0.1,0.2-0.1c0.1,0,0.2,0,0.2,0l0.6,0.1
			c0,0,0.1,0,0.1,0c0.1,0,0.1,0,0.1-0.1c0,0,0-0.1,0-0.2l-0.1-0.6c0-0.1,0-0.3,0-0.4l0.3-0.6C197.6-34.3,197.6-34.4,197.6-34.5z"/>
		<path class="st1" d="M176.4-9.6c0-0.1-0.1-0.1-0.2-0.1l-0.6,0c-0.1,0-0.3-0.1-0.4-0.2l-0.4-0.4c-0.1-0.1-0.1-0.1-0.2-0.1
			c-0.1,0-0.1,0.1-0.2,0.1l-0.2,0.6c0,0.1-0.2,0.3-0.3,0.3l-0.5,0.3c-0.1,0-0.1,0.1-0.1,0.2c0,0.1,0,0.1,0.1,0.2l0.5,0.4
			c0.1,0.1,0.2,0.2,0.2,0.4l0.1,0.6c0,0.1,0,0.1,0.1,0.2c0.1,0,0.2,0,0.2,0l0.5-0.3c0,0,0.1-0.1,0.2-0.1c0.1,0,0.2,0,0.2,0l0.6,0.1
			c0,0,0.1,0,0.1,0c0.1,0,0.1,0,0.1-0.1c0,0,0-0.1,0-0.2l-0.1-0.6c0-0.1,0-0.3,0-0.4l0.3-0.6C176.5-9.4,176.5-9.5,176.4-9.6z"/>
		<path class="st1" d="M257-47.4c0-0.1-0.1-0.1-0.2-0.1l-0.6,0c-0.1,0-0.3-0.1-0.4-0.2l-0.4-0.4c-0.1-0.1-0.1-0.1-0.2-0.1
			s-0.1,0.1-0.2,0.1l-0.2,0.6c0,0.1-0.2,0.3-0.3,0.3l-0.5,0.3c-0.1,0-0.1,0.1-0.1,0.2c0,0.1,0,0.1,0.1,0.2l0.5,0.4
			c0.1,0.1,0.2,0.2,0.2,0.4l0.1,0.6c0,0.1,0,0.1,0.1,0.2c0.1,0,0.2,0,0.2,0l0.5-0.3c0,0,0.1-0.1,0.2-0.1c0.1,0,0.2,0,0.2,0l0.6,0.1
			c0,0,0.1,0,0.1,0c0.1,0,0.1,0,0.1-0.1c0,0,0-0.1,0-0.2l-0.1-0.6c0-0.1,0-0.3,0-0.4l0.3-0.6C257-47.2,257-47.3,257-47.4z"/>
		<path class="st1" d="M148-20.7c-0.1,0-0.1,0.1-0.2,0.1l-0.3,0.6c-0.1,0.1-0.2,0.2-0.3,0.3l-0.5,0.3c-0.1,0-0.1,0.1-0.1,0.2
			c0,0.1,0,0.1,0.1,0.2l0.4,0.4c0.1,0.1,0.2,0.3,0.2,0.4l0.1,0.6c0,0.1,0.1,0.1,0.1,0.2c0.1,0,0.1,0,0.2,0l0.5-0.3
			c0.1-0.1,0.3-0.1,0.4-0.1l0.6,0.1c0.1,0,0.1,0,0.2,0c0.1,0,0.1-0.1,0.1-0.2l-0.1-0.6c0-0.1,0-0.1,0-0.2s0-0.2,0.1-0.2l0.3-0.5
			c0,0,0-0.1,0-0.1c0-0.1,0-0.1,0-0.2c0,0-0.1-0.1-0.2-0.1L149-20c-0.1,0-0.3-0.1-0.4-0.2l-0.4-0.4C148.1-20.7,148-20.7,148-20.7z"
			/>
		<path class="st1" d="M187.3-31.2c0.1,0.8,0.2,1.6,0.2,2.4v3.6c0,7.1-4.1,11.2-11.2,11.2h-8.4c-7.1,0-11.2-4.1-11.2-11.2v-3.6
			c0-0.8,0-1.5,0.1-2.2c-2.4-0.8-4-3-4-5.5c0-3.2,2.6-5.8,5.8-5.8c2.1,0,4,1.1,5,2.9c1.3-0.4,2.7-0.6,4.3-0.6h8.4
			c1.3,0,2.6,0.1,3.7,0.4c1-1.7,2.9-2.8,4.9-2.8c3.2,0,5.8,2.6,5.8,5.8C190.8-34.2,189.4-32.1,187.3-31.2z M158.2-33.9
			c0.6-1.5,1.6-2.7,2.8-3.6c-0.3-1.2-1.4-2-2.7-2c-1.6,0-2.8,1.3-2.8,2.8C155.6-35.2,156.8-34,158.2-33.9z M167.5-27.8l-0.3-0.7
			c-0.8-2.1-2.5-2.8-4.6-2l-1.7,0.7c-2.1,0.8-2.8,2.5-2,4.6l0.3,0.7c0.8,2.1,2.5,2.8,4.6,2l1.7-0.7C167.6-24,168.3-25.7,167.5-27.8z
			 M176.1-22.9c-0.4-0.1-0.7,0.2-0.8,0.6c0,0-0.3,1.8-3.1,1.8l-0.1,0c-0.1,0-2.7,0.3-3.4-1.9c-0.1-0.4-0.5-0.6-0.8-0.5
			c-0.4,0.1-0.6,0.5-0.5,0.8c0.7,2.3,2.8,2.9,4.2,2.9c0.2,0,0.4,0,0.5,0c3.1,0,4.2-1.9,4.4-2.9C176.7-22.5,176.4-22.8,176.1-22.9z
			 M183-30.2l-1.8-0.6c-2.2-0.7-3.9,0.1-4.6,2.3l-0.2,0.7c-0.7,2.2,0.1,3.9,2.3,4.6l1.8,0.6c2.2,0.7,3.9-0.1,4.6-2.3l0.2-0.7
			C186-27.8,185.2-29.4,183-30.2z M187.8-36.7c0-1.6-1.3-2.8-2.8-2.8c-1.3,0-2.4,0.9-2.7,2c1.2,0.9,2.2,2.1,2.8,3.6
			C186.6-34,187.8-35.2,187.8-36.7z M163.8-25.2c0,0.5-0.4,1-1,1c-0.5,0-1-0.4-1-1s0.4-1,1-1C163.3-26.2,163.8-25.7,163.8-25.2z
			 M182.1-25.2c0,0.5-0.4,1-1,1c-0.5,0-1-0.4-1-1s0.4-1,1-1C181.7-26.2,182.1-25.7,182.1-25.2z"/>
		<path class="st1" d="M204.2-59.7c0,0.4,0,0.7,0,1.1v1.9c0,5.9-3.4,9.4-9.4,9.4h-4.5c-5.9,0-9.4-3.4-9.4-9.4v-1.9
			c0-3.4,0.2-6.7,0.6-9.1c0.5-3.6,1.4-5.2,2.6-5.2c0.9,0,2.3,0.8,4.4,7.1h8.2c2.6-6.1,4-6.9,4.9-6.9c0.4,0,0.7,0.1,1,0.4
			C204.1-70.8,204.2-65.2,204.2-59.7z M185.1-55.6c0.4,0,0.8-0.3,0.8-0.8c0-0.4-0.3-0.8-0.8-0.8c-0.4,0-0.8,0.3-0.8,0.8
			C184.3-55.9,184.7-55.6,185.1-55.6z M199.3-53c-0.1-0.2-0.4-0.2-0.5,0c-1.3,1.2-3.8,2-6.6,2h0c-2.8,0-5.4-0.8-6.6-2
			c-0.2-0.1-0.4-0.1-0.5,0c-0.1,0.2-0.1,0.4,0,0.5c1.4,1.4,4.2,2.2,7.2,2.2h0c3,0,5.7-0.8,7.1-2.2C199.5-52.6,199.5-52.8,199.3-53z
			 M201.7-55.7c0-0.2-0.2-0.4-0.4-0.4l-1.8,0l1.8-1.4c0.2-0.1,0.2-0.4,0.1-0.6c-0.1-0.2-0.4-0.2-0.6-0.1l-2.7,2.2
			c-0.1,0.1-0.2,0.3-0.1,0.5c0.1,0.2,0.2,0.3,0.4,0.3l2.9,0h0C201.5-55.3,201.7-55.5,201.7-55.7z"/>
		<path class="st1" d="M205.1-16.2c0-1.1-0.1-1.9-1.5-1.9h-10.3c-1.6,0-1.7,0.9-1.7,1.9c0,0.3,0,7.5,0,7.5c-0.4-0.1-0.8-0.1-1.3,0
			c-1.8,0.2-3.1,1.6-3,3c0.2,1.4,1.8,2.4,3.7,2.1c1.6-0.2,2.8-1.3,3-2.5c0.1-0.2,0.1-8.3,0.1-8.3h8.7v4.3c-0.4-0.1-0.9-0.1-1.3,0
			c-1.8,0.2-3.1,1.6-3,3s1.8,2.4,3.7,2.1c1.6-0.2,2.8-1.3,3-2.6C205.1-7.5,205.1-16.1,205.1-16.2z"/>
		<path class="st1" d="M25.6-156.4c0.2-0.9,0.3-1.7-1-2l-9.1-2.1c-1.4-0.3-1.7,0.4-1.9,1.3c-0.1,0.2-1.6,6.6-1.6,6.6
			c-0.3-0.1-0.7-0.2-1.1-0.3c-1.7-0.2-3.1,0.8-3.2,2.1c-0.1,1.3,1.1,2.5,2.8,2.6c1.4,0.1,2.7-0.5,3.1-1.6c0.1-0.1,1.8-7.2,1.8-7.2
			l7.7,1.8l-0.9,3.7c-0.3-0.2-0.7-0.3-1.1-0.3c-1.7-0.2-3.1,0.8-3.2,2.1c-0.1,1.3,1.1,2.5,2.8,2.6c1.5,0.1,2.8-0.6,3.1-1.6
			C23.8-148.8,25.5-156.3,25.6-156.4z"/>
		<path class="st1" d="M220.3-65.8h-4c-1.4,0-1.5,0.8-1.5,1.6c0,0.2,0,0.4,0,0.6c0,0.1,0,0.2,0,0.2v5c-0.3,0-0.6-0.1-1,0
			c-1.5,0.2-2.6,1.3-2.4,2.5c0.1,1.1,1.2,1.8,2.5,1.8c0.2,0,0.3,0,0.5,0c1.2-0.2,2.2-1,2.4-1.9c0.1-0.2,0.2-0.5,0.2-0.7v-5.8h3.2
			c1.5,0,1.5-0.9,1.5-1.6C221.7-65,221.6-65.8,220.3-65.8z"/>
		<path class="st1" d="M245.6-105.2l-5.3,8.5c2.1,3.6,3.1,7.9,3.1,11.4c0,7.2-5.8,11.8-13,11.8c-7.2,0-13-4.6-13-11.8
			c0-5.2,1.8-12.2,6.4-15.8c0,0,0,0,0-0.1l-0.1-10.5c0-0.2,0.1-0.4,0.3-0.4c0.2,0,0.4,0,0.5,0.2l2.3,4.6l2.5-2.3
			c0.1-0.1,0.3-0.1,0.4-0.1c0.1,0,0.2,0.2,0.3,0.3l0.8,3.3l3.6-2.7c0.1-0.1,0.2-0.1,0.4-0.1c0.1,0,0.2,0.1,0.3,0.3l1.5,4.2l2.7-2
			c0.1-0.1,0.3-0.1,0.4-0.1c0.1,0,0.2,0.2,0.3,0.3l0.7,3l4.5-2.7c0.2-0.1,0.4-0.1,0.5,0.1C245.6-105.5,245.7-105.3,245.6-105.2z
			 M220.5-82.5c0-0.3-0.2-0.6-0.6-0.6c-0.3,0-0.6,0.2-0.6,0.6c0,0.3,0.2,0.6,0.6,0.6C220.2-81.9,220.5-82.2,220.5-82.5z M232.9-79.8
			c-0.1-0.2-0.4-0.2-0.5,0c-0.9,0.8-2.7,1.2-4.6,1.1c-1.9-0.1-3.7-0.7-4.5-1.6c-0.1-0.2-0.4-0.2-0.6,0c-0.2,0.1-0.2,0.4,0,0.6
			c1,1,2.9,1.7,5,1.9c2.1,0.1,4.1-0.4,5.2-1.3C233-79.3,233-79.6,232.9-79.8z M236.2-81.6c0-0.3-0.2-0.6-0.6-0.6
			c-0.3,0-0.6,0.2-0.6,0.6c0,0.3,0.2,0.6,0.6,0.6C235.9-81,236.2-81.3,236.2-81.6z"/>
		<path class="st1" d="M228.2-4.7c-0.6,0-1.1-0.5-1.1-1.1c0-3.3-2.7-6-6-6c-3.3,0-6,2.7-6,6c0,0.6-0.5,1.1-1.1,1.1s-1.1-0.5-1.1-1.1
			c0-4.5,3.7-8.2,8.2-8.2c4.5,0,8.2,3.7,8.2,8.2C229.2-5.2,228.7-4.7,228.2-4.7z"/>
		<path class="st1" d="M231.5-4.5c-0.7,0-1.3-0.6-1.3-1.3c0-5.1-4.1-9.2-9.2-9.2s-9.2,4.1-9.2,9.2c0,0.7-0.6,1.3-1.3,1.3
			s-1.3-0.6-1.3-1.3c0-6.5,5.3-11.7,11.7-11.7s11.7,5.3,11.7,11.7C232.8-5.1,232.2-4.5,231.5-4.5z"/>
		<path class="st1" d="M225-4.8c-0.6,0-1-0.4-1-1c0-1.6-1.3-2.9-2.9-2.9s-2.9,1.3-2.9,2.9c0,0.6-0.4,1-1,1c-0.6,0-1-0.4-1-1
			c0-2.7,2.2-4.9,4.9-4.9c2.7,0,4.9,2.2,4.9,4.9C226-5.2,225.5-4.8,225-4.8z"/>
		<path class="st1" d="M225.8-252.7c-0.5,0-1-0.4-1-1c0-3.1-2.5-5.6-5.6-5.6c-3.1,0-5.6,2.5-5.6,5.6c0,0.5-0.4,1-1,1
			c-0.5,0-1-0.4-1-1c0-4.2,3.4-7.6,7.6-7.6s7.6,3.4,7.6,7.6C226.8-253.1,226.4-252.7,225.8-252.7z"/>
		<path class="st1" d="M229-252.5c-0.7,0-1.2-0.5-1.2-1.2c0-4.7-3.8-8.5-8.5-8.5s-8.5,3.8-8.5,8.5c0,0.7-0.5,1.2-1.2,1.2
			s-1.2-0.5-1.2-1.2c0-6,4.9-10.9,10.9-10.9c6,0,10.9,4.9,10.9,10.9C230.1-253,229.6-252.5,229-252.5z"/>
		<path class="st1" d="M222.8-252.7c-0.5,0-0.9-0.4-0.9-0.9c0-1.5-1.2-2.7-2.7-2.7c-1.5,0-2.7,1.2-2.7,2.7c0,0.5-0.4,0.9-0.9,0.9
			s-0.9-0.4-0.9-0.9c0-2.5,2-4.6,4.6-4.6c2.5,0,4.6,2,4.6,4.6C223.8-253.2,223.4-252.7,222.8-252.7z"/>
		<path class="st1" d="M217.6-40.7c0.4,0.7,0.7,1.5,0.7,2.5v9.2c0,3-1.2,4.7-4.3,4.7h-8.2c-3,0-4.6-1.7-4.6-4.7v-9.2
			c0-1,0.2-1.8,0.7-2.5c-1.1-0.1-1.9-1-1.9-2.1c0-2.3,5.4-4.2,9.6-4.2c4.4-0.1,10,1.9,10,4.2C219.5-41.7,218.7-40.8,217.6-40.7z
			 M203.9-31c0-0.3-0.2-0.5-0.5-0.5s-0.5,0.2-0.5,0.5c0,0.3,0.2,0.5,0.5,0.5S203.9-30.7,203.9-31z M214.8-29.2
			c-0.1-0.1-0.4-0.2-0.5,0c-0.8,0.8-2.5,1.3-4.3,1.3c-1.8,0-3.5-0.5-4.3-1.3c-0.1-0.1-0.4-0.1-0.5,0c-0.1,0.1-0.1,0.4,0,0.5
			c1,0.9,2.8,1.5,4.9,1.5c2,0,3.9-0.6,4.8-1.5C214.9-28.8,214.9-29.1,214.8-29.2z M217.2-30.7c0-0.3-0.2-0.5-0.5-0.5
			c-0.3,0-0.5,0.2-0.5,0.5c0,0.3,0.2,0.5,0.5,0.5C216.9-30.2,217.2-30.4,217.2-30.7z"/>
		<path class="st1" d="M237.5-43.2c0.3,1.3-0.2,2.4-1.2,2.6c-0.1,0-0.2,0-0.3,0h0c-0.6,0-1.1-0.3-1.6-0.8c-0.1,0.4-0.2,0.8-0.5,1
			c-0.3,0.3-0.6,0.5-1,0.5c0,0-0.1,0-0.1,0c-0.9,0-1.5-0.7-1.8-1.4c-0.3,0.7-0.9,1.4-1.8,1.4c-0.4,0-0.7-0.2-1-0.6
			c-0.3-0.3-0.4-0.7-0.5-1.2c-0.4,0.5-0.9,0.9-1.5,0.9c-0.1,0-0.3,0-0.4-0.1c-0.9-0.3-1.4-1.5-1-2.7c0-0.1,0.1-0.2,0.1-0.3
			c-2.5-1.8-3.9-4.4-3.9-7.6c0-5.5,2.8-11.5,10.5-11.5c6.9,0,10.5,5.8,10.5,11.5C242.3-47.8,240.6-44.8,237.5-43.2z M225.8-47.9
			c0-0.3-0.3-0.6-0.6-0.6c-0.3,0-0.6,0.3-0.6,0.6c0,0.3,0.3,0.6,0.6,0.6C225.5-47.3,225.8-47.5,225.8-47.9z M238.8-47.9
			c0-0.3-0.3-0.6-0.6-0.6s-0.6,0.3-0.6,0.6c0,0.3,0.3,0.6,0.6,0.6S238.8-47.5,238.8-47.9z M236.2-46.3c-0.1-0.1-0.3-0.1-0.5,0
			c-0.7,0.7-2.3,1.1-3.9,1.1c-1.7,0-3.2-0.5-3.9-1.2c-0.1-0.1-0.3-0.1-0.5,0c-0.1,0.1-0.1,0.3,0,0.5c0.9,0.8,2.6,1.4,4.4,1.4
			c1.8,0,3.5-0.5,4.4-1.3C236.3-46,236.3-46.2,236.2-46.3z"/>
		<path class="st1" d="M235.3-34.1c0-0.6,0.5-1,1-1c0.6,0,1,0.5,1,1s-0.5,1-1,1C235.7-33.1,235.3-33.5,235.3-34.1z"/>
		<path class="st1" d="M260.6-52.2c0-0.6,0.5-1,1-1s1,0.5,1,1c0,0.6-0.5,1-1,1S260.6-51.7,260.6-52.2z"/>
		<path class="st1" d="M260.6-125.6c0-0.6,0.5-1,1-1s1,0.5,1,1s-0.5,1-1,1S260.6-125,260.6-125.6z"/>
		<path class="st1" d="M236.3-11.5c0-0.6,0.5-1,1-1c0.6,0,1,0.5,1,1c0,0.6-0.5,1-1,1C236.8-10.5,236.3-11,236.3-11.5z"/>
		<path class="st1" d="M208.9-20.6c0-0.6,0.5-1,1-1s1,0.5,1,1c0,0.6-0.5,1-1,1S208.9-20.1,208.9-20.6z"/>
		<path class="st1" d="M192.5-40.8c0-0.6,0.5-1,1-1s1,0.5,1,1c0,0.6-0.5,1-1,1S192.5-40.2,192.5-40.8z"/>
		<path class="st1" d="M174.6-55.1c0-0.6,0.5-1,1-1s1,0.5,1,1c0,0.6-0.5,1-1,1S174.6-54.5,174.6-55.1z"/>
		<path class="st1" d="M192.3-25.5c0-0.6,0.5-1,1-1s1,0.5,1,1s-0.5,1-1,1S192.3-24.9,192.3-25.5z"/>
		<path class="st1" d="M173.4-124.8c-0.1,0-0.1,0.1-0.1,0.2l0,0.6c0,0.1-0.1,0.3-0.2,0.4l-0.4,0.4c-0.1,0.1-0.1,0.1-0.1,0.2
			c0,0.1,0.1,0.1,0.1,0.2l0.6,0.2c0.1,0,0.3,0.2,0.3,0.3l0.3,0.5c0,0.1,0.1,0.1,0.2,0.1c0.1,0,0.1,0,0.2-0.1l0.4-0.5
			c0.1-0.1,0.2-0.2,0.4-0.2l0.6-0.1c0.1,0,0.1,0,0.2-0.1c0-0.1,0-0.2,0-0.2l-0.3-0.5c0,0-0.1-0.1-0.1-0.2s0-0.2,0-0.2l0.1-0.6
			c0,0,0-0.1,0-0.1c0-0.1,0-0.1-0.1-0.1c0,0-0.1,0-0.2,0l-0.6,0.1c-0.1,0-0.3,0-0.4,0l-0.6-0.3C173.5-124.8,173.5-124.8,173.4-124.8
			z"/>
		<path class="st1" d="M226-135.1c-0.1,0-0.1,0.1-0.1,0.2l0,0.6c0,0.1-0.1,0.3-0.2,0.4l-0.4,0.4c-0.1,0.1-0.1,0.1-0.1,0.2
			c0,0.1,0.1,0.1,0.1,0.2l0.6,0.2c0.1,0,0.3,0.2,0.3,0.3l0.3,0.5c0,0.1,0.1,0.1,0.2,0.1c0.1,0,0.1,0,0.2-0.1l0.4-0.5
			c0.1-0.1,0.2-0.2,0.4-0.2l0.6-0.1c0.1,0,0.1,0,0.2-0.1c0-0.1,0-0.2,0-0.2l-0.3-0.5c0,0-0.1-0.1-0.1-0.2s0-0.2,0-0.2l0.1-0.6
			c0,0,0-0.1,0-0.1c0-0.1,0-0.1-0.1-0.1c0,0-0.1,0-0.2,0l-0.6,0.1c-0.1,0-0.3,0-0.4,0l-0.6-0.3C226.1-135.1,226.1-135.1,226-135.1z"
			/>
		<path class="st1" d="M226-185.3c-0.1,0-0.1,0.1-0.1,0.2l0,0.6c0,0.1-0.1,0.3-0.2,0.4l-0.4,0.4c-0.1,0.1-0.1,0.1-0.1,0.2
			c0,0.1,0.1,0.1,0.1,0.2l0.6,0.2c0.1,0,0.3,0.2,0.3,0.3l0.3,0.5c0,0.1,0.1,0.1,0.2,0.1c0.1,0,0.1,0,0.2-0.1l0.4-0.5
			c0.1-0.1,0.2-0.2,0.4-0.2l0.6-0.1c0.1,0,0.1,0,0.2-0.1c0-0.1,0-0.2,0-0.2l-0.3-0.5c0,0-0.1-0.1-0.1-0.2s0-0.2,0-0.2l0.1-0.6
			c0,0,0-0.1,0-0.1c0-0.1,0-0.1-0.1-0.1c0,0-0.1,0-0.2,0l-0.6,0.1c-0.1,0-0.3,0-0.4,0l-0.6-0.3C226.1-185.3,226.1-185.3,226-185.3z"
			/>
		<path class="st1" d="M167.1-119.7c-0.6,0-1-0.5-1-1s0.5-1,1-1c0.6,0,1,0.5,1,1S167.7-119.7,167.1-119.7z"/>
		<path class="st1" d="M211.3-245.2c-0.6,0-1-0.5-1-1s0.5-1,1-1s1,0.5,1,1S211.8-245.2,211.3-245.2z"/>
		<path class="st1" d="M265.5-238.2c-0.6,0-1-0.5-1-1s0.5-1,1-1s1,0.5,1,1S266.1-238.2,265.5-238.2z"/>
		<path class="st1" d="M182.4-119.5c-0.6,0-1-0.5-1-1s0.5-1,1-1s1,0.5,1,1S182.9-119.5,182.4-119.5z"/>
		<path class="st1" d="M92.6-232.1c-0.6,0-1-0.5-1-1s0.5-1,1-1s1,0.5,1,1S93.2-232.1,92.6-232.1z"/>
		<path class="st1" d="M71-253.7c-0.6,0-1-0.5-1-1s0.5-1,1-1c0.6,0,1,0.5,1,1S71.6-253.7,71-253.7z"/>
		<path class="st1" d="M109.6-227.2c-0.6,0-1-0.5-1-1s0.5-1,1-1s1,0.5,1,1S110.1-227.2,109.6-227.2z"/>
		<path class="st1" d="M227.6-115c-0.6,0-1-0.5-1-1c0-0.6,0.5-1,1-1s1,0.5,1,1C228.7-115.4,228.2-115,227.6-115z"/>
		<path class="st1" d="M170.2-47.2c0,0.1-0.1,0.2-0.1,0.2l-4.3,2.4c0,0-0.1,0-0.1,0c0,0-0.1,0-0.1,0c-0.1,0-0.1-0.1-0.1-0.2v-5
			c0-0.1,0.1-0.2,0.1-0.2c0.1,0,0.2,0,0.3,0l4.3,2.5C170.2-47.3,170.2-47.3,170.2-47.2z M175.8-47.2c0,0.1-0.1,0.2-0.1,0.2l-4.3,2.4
			c0,0-0.1,0-0.1,0c0,0-0.1,0-0.1,0c-0.1,0-0.1-0.1-0.1-0.2v-5c0-0.1,0.1-0.2,0.1-0.2c0.1,0,0.2,0,0.3,0l4.3,2.5
			C175.8-47.3,175.8-47.3,175.8-47.2z"/>
		<path class="st1" d="M241-30.6v8.3c0,0.2-0.1,0.3-0.2,0.4c-0.1,0-0.2,0.1-0.2,0.1c-0.1,0-0.2,0-0.2-0.1l-7.2-4.2
			c-0.1-0.1-0.2-0.2-0.2-0.4c0-0.2,0.1-0.3,0.2-0.4l7.2-4.1c0.1-0.1,0.3-0.1,0.5,0C240.9-30.9,241-30.8,241-30.6z M231.7-30.6v8.3
			c0,0.2-0.1,0.3-0.2,0.4c-0.1,0-0.2,0.1-0.2,0.1c-0.1,0-0.2,0-0.2-0.1l-7.2-4.2c-0.1-0.1-0.2-0.2-0.2-0.4c0-0.2,0.1-0.3,0.2-0.4
			L231-31c0.1-0.1,0.3-0.1,0.5,0C231.6-30.9,231.7-30.8,231.7-30.6z"/>
		<path class="st1" d="M199.3-122c-1.2,1.3-2.8,1.5-3.7,1.5c-0.5,0-0.7-0.1-0.8-0.1c-0.1,0-0.2-0.1-0.2-0.2c0-0.1,0.1-0.2,0.2-0.2
			c0.5-0.1,0.9-0.5,1-1.2c0.1-0.4,0.1-0.7,0.1-0.9h-2c-3,0-4.7-1.7-4.7-4.7v-1c0-3,1.7-4.7,4.7-4.7h2.3c3,0,4.7,1.7,4.7,4.7v1
			C201.1-125.3,200.5-123.3,199.3-122z M197.5-126.5c-0.1-0.1-0.2-0.1-0.3,0c-0.4,0.4-1.3,0.7-2.2,0.7c-0.9,0-1.8-0.3-2.2-0.7
			c-0.1-0.1-0.2-0.1-0.3,0c-0.1,0.1-0.1,0.2,0,0.3c0.5,0.5,1.4,0.8,2.5,0.8c1,0,2-0.3,2.5-0.8C197.6-126.3,197.6-126.4,197.5-126.5z
			 M198.6-127.6c0-0.2-0.2-0.4-0.4-0.4s-0.4,0.2-0.4,0.4s0.2,0.4,0.4,0.4S198.6-127.4,198.6-127.6z M192.4-127.6
			c0-0.2-0.2-0.4-0.4-0.4c-0.2,0-0.4,0.2-0.4,0.4s0.2,0.4,0.4,0.4C192.2-127.2,192.4-127.4,192.4-127.6z"/>
		<path class="st1" d="M186.4-113.4C186.4-113.4,186.4-113.4,186.4-113.4L183-79.5c0,0.9-0.7,1.6-1.6,1.6h-11.1
			c-0.9,0-1.6-0.7-1.6-1.6l-3.4-33.8c0,0,0,0,0,0c0-0.9,0.7-1.6,1.6-1.6h17.9C185.6-115,186.4-114.3,186.4-113.4z M166.1-113.4
			l0.3,2.8h18.9l0.3-2.8c0-0.4-0.4-0.8-0.8-0.8h-17.9C166.5-114.2,166.1-113.8,166.1-113.4z M181.8-106.9c0,0.2,0.1,0.3,0.3,0.3
			c0.2,0,0.3-0.1,0.3-0.3c0-0.2-0.1-0.3-0.3-0.3C182-107.2,181.8-107.1,181.8-106.9z M182.2-108.5c0.2,0,0.3-0.1,0.3-0.3
			c0-0.2-0.1-0.3-0.3-0.3c-0.2,0-0.3,0.1-0.3,0.3C181.8-108.7,182-108.5,182.2-108.5z M181.7-99.2c0,0.4,0.3,0.6,0.6,0.6
			c0.4,0,0.6-0.3,0.6-0.6c0-0.4-0.3-0.6-0.6-0.6C182-99.9,181.7-99.6,181.7-99.2z M184.2-109.6c0-0.2-0.1-0.3-0.3-0.3
			c-0.2,0-0.3,0.1-0.3,0.3c0,0.2,0.1,0.3,0.3,0.3C184-109.3,184.2-109.4,184.2-109.6z M183.9-108.3c-0.2,0-0.3,0.1-0.3,0.3
			c0,0.2,0.1,0.3,0.3,0.3c0.2,0,0.3-0.1,0.3-0.3C184.2-108.2,184.1-108.3,183.9-108.3z M171.4-96.3c0.9,0.8,2.5,1.3,4.4,1.3
			c1.8,0,3.5-0.5,4.4-1.3c0.1-0.1,0.1-0.3,0-0.5c-0.1-0.1-0.3-0.1-0.5,0c-0.7,0.7-2.3,1.1-3.9,1.1c-1.6,0-3.2-0.5-3.9-1.2
			c-0.1-0.1-0.3-0.1-0.5,0C171.3-96.6,171.3-96.4,171.4-96.3z M171.4-108.6c0.2,0,0.3-0.1,0.3-0.3c0-0.2-0.1-0.3-0.3-0.3
			c-0.2,0-0.3,0.1-0.3,0.3C171.1-108.8,171.2-108.6,171.4-108.6z M171.9-107.7c0,0.2,0.1,0.3,0.3,0.3c0.2,0,0.3-0.1,0.3-0.3
			c0-0.2-0.1-0.3-0.3-0.3C172-108,171.9-107.8,171.9-107.7z M172.4-109.6c0.2,0,0.3-0.1,0.3-0.3c0-0.2-0.1-0.3-0.3-0.3
			c-0.2,0-0.3,0.1-0.3,0.3C172.1-109.8,172.2-109.6,172.4-109.6z M173.6-106.6c0,0.2,0.1,0.3,0.3,0.3c0.2,0,0.3-0.1,0.3-0.3
			c0-0.2-0.1-0.3-0.3-0.3C173.7-106.9,173.6-106.8,173.6-106.6z M173.9-108.2c0.2,0,0.3-0.1,0.3-0.3c0-0.2-0.1-0.3-0.3-0.3
			c-0.2,0-0.3,0.1-0.3,0.3C173.6-108.3,173.7-108.2,173.9-108.2z M173.6-104.4c0,0.2,0.1,0.3,0.3,0.3c0.2,0,0.3-0.1,0.3-0.3
			c0-0.2-0.1-0.3-0.3-0.3C173.7-104.7,173.6-104.5,173.6-104.4z M174.9-109.3c0.2,0,0.3-0.1,0.3-0.3c0-0.2-0.1-0.3-0.3-0.3
			c-0.2,0-0.3,0.1-0.3,0.3C174.6-109.4,174.7-109.3,174.9-109.3z M176.8-106c0-0.2-0.1-0.3-0.3-0.3c-0.2,0-0.3,0.1-0.3,0.3
			c0,0.2,0.1,0.3,0.3,0.3C176.7-105.6,176.8-105.8,176.8-106z M176.8-104c-0.2,0-0.3,0.1-0.3,0.3c0,0.2,0.1,0.3,0.3,0.3
			c0.2,0,0.3-0.1,0.3-0.3C177.2-103.9,177-104,176.8-104z M176.5-108.9c0-0.2-0.1-0.3-0.3-0.3c-0.2,0-0.3,0.1-0.3,0.3
			c0,0.2,0.1,0.3,0.3,0.3C176.4-108.6,176.5-108.8,176.5-108.9z M175.6-108c-0.2,0-0.3,0.1-0.3,0.3c0,0.2,0.1,0.3,0.3,0.3
			c0.2,0,0.3-0.1,0.3-0.3C176-107.8,175.8-108,175.6-108z M177.5-107.9c0,0.2,0.1,0.3,0.3,0.3c0.2,0,0.3-0.1,0.3-0.3
			s-0.1-0.3-0.3-0.3C177.7-108.2,177.5-108.1,177.5-107.9z M177.9-109.5c0.2,0,0.3-0.1,0.3-0.3c0-0.2-0.1-0.3-0.3-0.3
			c-0.2,0-0.3,0.1-0.3,0.3C177.5-109.6,177.7-109.5,177.9-109.5z M179.3-105.6c-0.2,0-0.3,0.1-0.3,0.3c0,0.2,0.1,0.3,0.3,0.3
			c0.2,0,0.3-0.1,0.3-0.3C179.6-105.5,179.5-105.6,179.3-105.6z M179.6-108.6c0.2,0,0.3-0.1,0.3-0.3c0-0.2-0.1-0.3-0.3-0.3
			c-0.2,0-0.3,0.1-0.3,0.3C179.3-108.8,179.5-108.6,179.6-108.6z M180.5-107.7c0.2,0,0.3-0.1,0.3-0.3c0-0.2-0.1-0.3-0.3-0.3
			c-0.2,0-0.3,0.1-0.3,0.3C180.2-107.8,180.3-107.7,180.5-107.7z M180.9-109.9c0-0.2-0.1-0.3-0.3-0.3c-0.2,0-0.3,0.1-0.3,0.3
			c0,0.2,0.1,0.3,0.3,0.3C180.8-109.6,180.9-109.7,180.9-109.9z M168.3-108.9c0-0.2-0.1-0.3-0.3-0.3c-0.2,0-0.3,0.1-0.3,0.3
			c0,0.2,0.1,0.3,0.3,0.3C168.1-108.6,168.3-108.8,168.3-108.9z M168-106.9c0,0.2,0.1,0.3,0.3,0.3c0.2,0,0.3-0.1,0.3-0.3
			c0-0.2-0.1-0.3-0.3-0.3C168.1-107.2,168-107.1,168-106.9z M169.7-98.6c0.4,0,0.6-0.3,0.6-0.6c0-0.4-0.3-0.6-0.6-0.6
			s-0.6,0.3-0.6,0.6C169.1-98.9,169.3-98.6,169.7-98.6z M169.3-107.9c0,0.2,0.1,0.3,0.3,0.3c0.2,0,0.3-0.1,0.3-0.3s-0.1-0.3-0.3-0.3
			C169.5-108.2,169.3-108.1,169.3-107.9z M169.6-109.5c0.2,0,0.3-0.1,0.3-0.3c0-0.2-0.1-0.3-0.3-0.3c-0.2,0-0.3,0.1-0.3,0.3
			C169.3-109.6,169.5-109.5,169.6-109.5z M170.6-105.6c0.2,0,0.3-0.1,0.3-0.3c0-0.2-0.1-0.3-0.3-0.3c-0.2,0-0.3,0.1-0.3,0.3
			C170.3-105.8,170.4-105.6,170.6-105.6z M182.2-79.6l0.1-0.7h-12.8l0.1,0.7c0,0,0,0,0,0c0,0.4,0.4,0.8,0.8,0.8h11.1
			C181.8-78.7,182.2-79.1,182.2-79.6C182.2-79.5,182.2-79.6,182.2-79.6z"/>
		<path class="st1" d="M255.3-20v14.9l2.5,0.7c0,0,0,0,0,0c0.5,0.2,0.7,0.4,0.6,0.7c-0.1,0.3-0.4,0.6-1.6,0.6h-5.2
			c-1,0-1.5-0.2-1.6-0.6c-0.1-0.5,0.5-0.7,0.7-0.7c0,0,0,0,0,0l2.5-0.7v-14.7l-11.1-13c0,0,0,0,0,0c-0.6-0.8-0.4-1.4-0.3-1.7
			c0.3-0.6,1-0.9,1.5-0.9h22.1c0.5,0,1.2,0.3,1.5,0.9c0.2,0.4,0.2,1-0.4,1.8L255.3-20z M249.9-26.5c0.4,0,0.7-0.3,0.7-0.7
			c0-0.4-0.3-0.7-0.7-0.7c-0.4,0-0.7,0.3-0.7,0.7C249.2-26.8,249.5-26.5,249.9-26.5z M258.7-26.5c0.4,0,0.7-0.3,0.7-0.7
			c0-0.4-0.3-0.7-0.7-0.7c-0.4,0-0.7,0.3-0.7,0.7C258-26.8,258.3-26.5,258.7-26.5z M256.8-25.4c-0.1-0.1-0.3,0-0.4,0.1
			c-0.4,0.7-1.2,1.2-2.1,1.2c-0.9,0-1.7-0.5-2.1-1.2c-0.1-0.1-0.2-0.2-0.4-0.1c-0.1,0.1-0.2,0.2-0.1,0.4c0.5,0.9,1.5,1.5,2.6,1.5
			c1.1,0,2.1-0.6,2.6-1.4C257-25.1,256.9-25.3,256.8-25.4z M242.9-33.2l2.3,2.7h18.3l2.4-2.7c0.2-0.2,0.4-0.6,0.3-0.8
			c-0.1-0.2-0.5-0.4-0.7-0.4h-22.1c-0.2,0-0.6,0.1-0.7,0.4C242.6-33.7,242.7-33.4,242.9-33.2z M254.7-4.4c-0.2,0-0.2-0.1-0.3-0.1
			c-0.1,0-0.1,0-0.3,0.1c0,0,0,0,0,0L252-3.8h4.7L254.7-4.4z"/>
		<path class="st1" d="M196.1-195.8l-0.8,21.4c0,0.9-0.2,1.8-0.3,2.1c0,0,0,0-0.3,0c0,0,0,0,0,0c0,0-0.7,0-1.6,0l-1.6,0
			c-0.9,0-2-0.7-2.4-1.5c0,0-0.7-1.3-2.3-1.3c-1.5,0-2.3,1.2-2.3,1.2c-0.5,0.8-1.6,1.4-2.5,1.4l-20.4-0.5c-0.9,0-1.9-0.1-2-0.3
			c-0.1-0.1-0.2-0.9-0.2-1.8l-1.3-20.5c-0.1-0.9,0.6-1.6,1.5-1.6l34.7,0c0.9,0,1.6,0,1.6,0C196.1-197.4,196.1-196.7,196.1-195.8z
			 M164.6-187.6c1.7,0,3.2-1.4,3.2-3.2c0-1.7-1.4-3.2-3.2-3.2c-1.7,0-3.2,1.4-3.2,3.2C161.4-189,162.9-187.6,164.6-187.6z
			 M166.3-180c0.3,0,0.6-0.2,0.6-0.6c0-0.3-0.2-0.6-0.6-0.6s-0.6,0.3-0.6,0.6C165.8-180.2,166-180,166.3-180z M175-178.3
			c-0.1-0.1-0.3-0.1-0.5,0c-0.7,0.7-2.2,1.1-3.8,1.1c-1.6,0-3.1-0.4-3.8-1.1c-0.1-0.1-0.3-0.1-0.5,0c-0.1,0.1-0.1,0.3,0,0.5
			c0.8,0.8,2.5,1.3,4.2,1.3c1.8,0,3.4-0.5,4.2-1.3C175.1-178,175.1-178.2,175-178.3z M175.9-180.6c0-0.3-0.2-0.6-0.6-0.6
			c-0.3,0-0.6,0.3-0.6,0.6c0,0.3,0.2,0.6,0.6,0.6S175.9-180.2,175.9-180.6z M179.9-187.2c0-1.2-0.9-2.1-2.1-2.1
			c-1.2,0-2.1,0.9-2.1,2.1c0,1.2,0.9,2.1,2.1,2.1S179.9-186,179.9-187.2z M192.8-191.4c0-2.7-2.2-4.9-4.9-4.9
			c-2.7,0-4.9,2.2-4.9,4.9c0,2.7,2.2,4.9,4.9,4.9C190.6-186.5,192.8-188.7,192.8-191.4z M160.6-199.3l23.5-7.1
			c0.9-0.3,1.8-0.5,1.8-0.5c0.1,0,0.7,0.5,1.4,1.1l7.1,5.9c0.7,0.6,0.5,1-0.4,1l-16,0c-0.9,0-1.9-0.7-2.3-1.5c0,0-0.7-1.6-2.5-1.6
			c-1.7,0-2.5,1.6-2.5,1.6c-0.4,0.8-1.4,1.5-2.3,1.5l-7.9,0C159.7-198.8,159.7-199.1,160.6-199.3z M183.7-202.3
			c0,1.1,0.9,2.1,2.1,2.1s2.1-0.9,2.1-2.1c0-1.1-0.9-2.1-2.1-2.1S183.7-203.4,183.7-202.3z"/>
		<path class="st1" d="M49.4-43.6l-0.6,15.4c0,0.6-0.1,1.3-0.2,1.5c0,0,0,0-0.2,0c0,0,0,0,0,0c0,0-0.5,0-1.2,0l-1.1,0
			c-0.6,0-1.4-0.5-1.7-1.1c0,0-0.5-1-1.7-1c-1.1,0-1.6,0.9-1.6,0.9c-0.3,0.6-1.1,1-1.8,1l-14.7-0.4c-0.6,0-1.4-0.1-1.4-0.2
			c0-0.1-0.1-0.7-0.1-1.3l-0.9-14.7c0-0.6,0.5-1.2,1.1-1.2l25,0c0.6,0,1.2,0,1.2,0C49.4-44.8,49.4-44.3,49.4-43.6z M26.7-37.7
			c1.2,0,2.3-1,2.3-2.3c0-1.2-1-2.3-2.3-2.3c-1.2,0-2.3,1-2.3,2.3C24.5-38.8,25.5-37.7,26.7-37.7z M28-32.3c0.2,0,0.4-0.2,0.4-0.4
			c0-0.2-0.2-0.4-0.4-0.4s-0.4,0.2-0.4,0.4C27.6-32.4,27.8-32.3,28-32.3z M34.2-31c-0.1-0.1-0.2-0.1-0.3,0c-0.5,0.5-1.6,0.8-2.7,0.8
			c-1.1,0-2.2-0.3-2.7-0.8c-0.1-0.1-0.2-0.1-0.3,0c-0.1,0.1-0.1,0.2,0,0.3c0.6,0.6,1.8,0.9,3.1,0.9c1.3,0,2.4-0.4,3-0.9
			C34.3-30.8,34.3-31,34.2-31z M34.9-32.7c0-0.2-0.2-0.4-0.4-0.4s-0.4,0.2-0.4,0.4s0.2,0.4,0.4,0.4S34.9-32.4,34.9-32.7z M37.8-37.4
			c0-0.8-0.7-1.5-1.5-1.5c-0.8,0-1.5,0.7-1.5,1.5c0,0.8,0.7,1.5,1.5,1.5C37.1-35.9,37.8-36.6,37.8-37.4z M47-40.5
			c0-1.9-1.6-3.5-3.5-3.5c-1.9,0-3.5,1.6-3.5,3.5c0,1.9,1.6,3.5,3.5,3.5C45.5-37,47-38.5,47-40.5z M23.8-46.2l16.9-5.1
			c0.6-0.2,1.3-0.4,1.3-0.3c0.1,0,0.5,0.4,1,0.8l5.1,4.3c0.5,0.4,0.4,0.7-0.3,0.7l-11.5,0c-0.6,0-1.4-0.5-1.7-1.1
			c0,0-0.5-1.2-1.8-1.2c-1.2,0-1.8,1.2-1.8,1.2c-0.3,0.6-1,1.1-1.7,1.1l-5.7,0C23.3-45.8,23.2-46,23.8-46.2z M40.5-48.3
			c0,0.8,0.7,1.5,1.5,1.5c0.8,0,1.5-0.7,1.5-1.5c0-0.8-0.7-1.5-1.5-1.5S40.5-49.1,40.5-48.3z"/>
	</g>
</pattern>
<pattern  id="SVGID_1_" xlink:href="#New_Pattern_3" patternTransform="matrix(1 0 0 1 -1392.0662 104)">
</pattern>
<rect class="st2" width="1033.6" height="321.5"/>
</svg>
