<?xml version="1.0" encoding="utf-8"?>
<!-- Generator: Adobe Illustrator 19.0.0, SVG Export Plug-In . SVG Version: 6.00 Build 0)  -->
<svg version="1.1" id="Layer_1" xmlns="http://www.w3.org/2000/svg" xmlns:xlink="http://www.w3.org/1999/xlink" x="0px" y="0px"
	 viewBox="0 0 1033.4 592" style="enable-background:new 0 0 1033.4 592;" xml:space="preserve">
<style type="text/css">
	.st0{fill:none;}
	.st1{fill:#333333;}
	.st2{opacity:0.5;fill:url(#SVGID_1_);}
</style>
<pattern  x="17.4" y="-204" width="1314" height="825.1" patternUnits="userSpaceOnUse" id="New_Pattern_9" viewBox="634.2 -825.1 1314 825.1" style="overflow:visible;">
	<g>
		<polygon class="st0" points="634.2,-825.1 1948.2,-825.1 1948.2,0 634.2,0 		"/>
		<g>
			<polygon class="st1" points="1647.5,0 1615.7,0 2273.8,-825.1 2305.6,-825.1 			"/>
			<polygon class="st1" points="1707.1,0 1675.3,0 2333.4,-825.1 2365.2,-825.1 			"/>
			<polygon class="st1" points="1766.6,0 1734.8,0 2392.9,-825.1 2424.7,-825.1 			"/>
			<polygon class="st1" points="1826.2,0 1794.4,0 2452.5,-825.1 2484.3,-825.1 			"/>
			<polygon class="st1" points="1885.7,0 1853.9,0 2512,-825.1 2543.8,-825.1 			"/>
			<polygon class="st1" points="1945.3,0 1913.5,0 2571.5,-825.1 2603.4,-825.1 			"/>
		</g>
		<g>
			<polygon class="st1" points="333.5,0 301.7,0 959.8,-825.1 991.6,-825.1 			"/>
			<polygon class="st1" points="393.1,0 361.3,0 1019.4,-825.1 1051.2,-825.1 			"/>
			<polygon class="st1" points="452.6,0 420.8,0 1078.9,-825.1 1110.7,-825.1 			"/>
			<polygon class="st1" points="512.2,0 480.4,0 1138.5,-825.1 1170.3,-825.1 			"/>
			<polygon class="st1" points="571.7,0 539.9,0 1198,-825.1 1229.8,-825.1 			"/>
			<polygon class="st1" points="631.3,0 599.5,0 1257.5,-825.1 1289.4,-825.1 			"/>
			<polygon class="st1" points="690.8,0 659,0 1317.1,-825.1 1348.9,-825.1 			"/>
			<polygon class="st1" points="750.4,0 718.5,0 1376.6,-825.1 1408.4,-825.1 			"/>
			<polygon class="st1" points="809.9,0 778.1,0 1436.2,-825.1 1468,-825.1 			"/>
			<polygon class="st1" points="869.4,0 837.6,0 1495.7,-825.1 1527.5,-825.1 			"/>
			<polygon class="st1" points="929,0 897.2,0 1555.3,-825.1 1587.1,-825.1 			"/>
			<polygon class="st1" points="988.5,0 956.7,0 1614.8,-825.1 1646.6,-825.1 			"/>
			<polygon class="st1" points="1107.6,0 1075.8,0 1733.9,-825.1 1765.7,-825.1 			"/>
			<polygon class="st1" points="1048.1,0 1016.3,0 1674.4,-825.1 1706.2,-825.1 			"/>
			<polygon class="st1" points="1167.2,0 1135.4,0 1793.5,-825.1 1825.3,-825.1 			"/>
			<polygon class="st1" points="1226.7,0 1194.9,0 1853,-825.1 1884.8,-825.1 			"/>
			<polygon class="st1" points="1286.3,0 1254.5,0 1912.5,-825.1 1944.4,-825.1 			"/>
			<polygon class="st1" points="1345.8,0 1314,0 1972.1,-825.1 2003.9,-825.1 			"/>
			<polygon class="st1" points="1405.4,0 1373.5,0 2031.6,-825.1 2063.4,-825.1 			"/>
			<polygon class="st1" points="1464.9,0 1433.1,0 2091.2,-825.1 2123,-825.1 			"/>
			<polygon class="st1" points="1524.4,0 1492.6,0 2150.7,-825.1 2182.5,-825.1 			"/>
			<polygon class="st1" points="1584,0 1552.2,0 2210.3,-825.1 2242.1,-825.1 			"/>
			<polygon class="st1" points="1643.5,0 1611.7,0 2269.8,-825.1 2301.6,-825.1 			"/>
		</g>
		<g>
			<polygon class="st1" points="31.8,0 0,0 658.1,-825.1 689.9,-825.1 			"/>
			<polygon class="st1" points="91.4,0 59.5,0 717.6,-825.1 749.4,-825.1 			"/>
			<polygon class="st1" points="150.9,0 119.1,0 777.2,-825.1 809,-825.1 			"/>
			<polygon class="st1" points="210.4,0 178.6,0 836.7,-825.1 868.5,-825.1 			"/>
			<polygon class="st1" points="270,0 238.2,0 896.3,-825.1 928.1,-825.1 			"/>
			<polygon class="st1" points="329.5,0 297.7,0 955.8,-825.1 987.6,-825.1 			"/>
		</g>
	</g>
</pattern>
<pattern  id="SVGID_1_" xlink:href="#New_Pattern_9" patternTransform="matrix(1 0 0 1 1595.8846 104)">
</pattern>
<rect class="st2" width="1033.4" height="592"/>
</svg>
