<?xml version="1.0" encoding="utf-8"?>
<!-- Generator: Adobe Illustrator 19.0.0, SVG Export Plug-In . SVG Version: 6.00 Build 0)  -->
<svg version="1.1" id="Layer_1" xmlns="http://www.w3.org/2000/svg" xmlns:xlink="http://www.w3.org/1999/xlink" x="0px" y="0px"
	 viewBox="0 0 37.5 37.5" style="enable-background:new 0 0 37.5 37.5;" xml:space="preserve">
<style type="text/css">
	.st0{fill:none;}
	.st1{fill:#FFFFFF;}
</style>
<g id="XMLID_55_">
	<path id="XMLID_58_" class="st0" d="M24.4,8.9h-9.8c-2.7,0-4.9,2.2-4.9,4.9v1.4h7.2c0.8-0.5,1.7-0.9,2.7-0.9c1,0,1.9,0.3,2.7,0.9h7
		v-1.4C29.3,11.1,27.1,8.9,24.4,8.9z M26.3,13.5c0,0.3-0.2,0.5-0.5,0.5h-1.7c-0.3,0-0.5-0.2-0.5-0.5v-1.7c0-0.3,0.2-0.5,0.5-0.5h1.7
		c0.3,0,0.5,0.2,0.5,0.5V13.5z"/>
	<path id="XMLID_57_" class="st0" d="M29.3,23.6c0,2.7-2.2,4.9-4.9,4.9h-9.8c-2.7,0-4.9-2.2-4.9-4.9V17h5.7c-0.3,0.6-0.4,1.3-0.4,2
		c0,2.6,2.1,4.6,4.6,4.6c2.6,0,4.6-2.1,4.6-4.6c0-0.7-0.2-1.4-0.4-2h5.5V23.6z"/>
	<path id="XMLID_56_" class="st0" d="M17.7,18.9c0-1.1,0.9-1.9,1.9-1.9c1.1,0,1.9,0.9,1.9,1.9c0,1.1-0.9,1.9-1.9,1.9
		C18.5,20.9,17.7,20,17.7,18.9z"/>
</g>
<g id="XMLID_54_">
	<path id="XMLID_63_" class="st0" d="M24.4,8.9h-9.8c-2.7,0-4.9,2.2-4.9,4.9v1.4h7.2c0.8-0.5,1.7-0.9,2.7-0.9c1,0,1.9,0.3,2.7,0.9h7
		v-1.4C29.3,11.1,27.1,8.9,24.4,8.9z M26.3,13.5c0,0.3-0.2,0.5-0.5,0.5h-1.7c-0.3,0-0.5-0.2-0.5-0.5v-1.7c0-0.3,0.2-0.5,0.5-0.5h1.7
		c0.3,0,0.5,0.2,0.5,0.5V13.5z"/>
	<path id="XMLID_62_" class="st0" d="M29.3,23.6c0,2.7-2.2,4.9-4.9,4.9h-9.8c-2.7,0-4.9-2.2-4.9-4.9V17h5.7c-0.3,0.6-0.4,1.3-0.4,2
		c0,2.6,2.1,4.6,4.6,4.6c2.6,0,4.6-2.1,4.6-4.6c0-0.7-0.2-1.4-0.4-2h5.5V23.6z"/>
	<path id="XMLID_61_" class="st0" d="M17.7,18.9c0-1.1,0.9-1.9,1.9-1.9c1.1,0,1.9,0.9,1.9,1.9c0,1.1-0.9,1.9-1.9,1.9
		C18.5,20.9,17.7,20,17.7,18.9z"/>
</g>
<g id="XMLID_66_">
</g>
<path id="XMLID_73_" class="st1" d="M26.1,11.6c0-0.3-0.2-0.5-0.5-0.5h-1.9c-0.3,0-0.5,0.2-0.5,0.5v1.9c0,0.3,0.2,0.5,0.5,0.5h1.9
	c0.3,0,0.5-0.2,0.5-0.5V11.6z"/>
<path id="XMLID_76_" class="st1" d="M18.7,0C8.4,0,0,8.4,0,18.7c0,10.4,8.4,18.7,18.7,18.7c10.4,0,18.7-8.4,18.7-18.7
	C37.5,8.4,29.1,0,18.7,0z M28.1,23.6c0,2.7-1.5,4.5-4.2,4.5h-9.8c-2.7,0-5-1.8-5-4.5v-6.5h5.8c-0.3,0-0.4,1.2-0.4,1.9
	c0,2.6,2.1,4.6,4.6,4.6c2.6,0,4.6-2,4.6-4.6c0-0.7-0.2-1.9-0.4-1.9h4.8V23.6z M17.2,18.9c0-1.1,0.9-1.9,1.9-1.9
	c1.1,0,1.9,0.9,1.9,1.9c0,1.1-0.9,1.9-1.9,1.9C18,20.8,17.2,19.9,17.2,18.9z M28.1,15.1h-6.3c-0.8,0-1.7-0.9-2.7-0.9
	c-1,0-1.9,0.9-2.7,0.9H9.1v-1.4c0-2.7,2.3-4.6,5-4.6h9.8c2.7,0,4.2,1.9,4.2,4.6V15.1z"/>
</svg>
