<?xml version="1.0" encoding="utf-8"?>
<!-- Generator: Adobe Illustrator 19.0.0, SVG Export Plug-In . SVG Version: 6.00 Build 0)  -->
<svg version="1.1" id="Layer_1" xmlns="http://www.w3.org/2000/svg" xmlns:xlink="http://www.w3.org/1999/xlink" x="0px" y="0px"
	 viewBox="0 0 85.1 201" style="enable-background:new 0 0 85.1 201;" xml:space="preserve">
<style type="text/css">
	.st0{fill:#FFFFFF;}
</style>
<path class="st0" d="M23.5,47.5c-0.1-0.2-0.3-0.3-0.5-0.3L21.1,47c-0.4,0-0.9-0.3-1.1-0.5l-1.3-1.3C18.5,45,18.3,45,18.1,45
	s-0.4,0.2-0.5,0.4l-0.7,1.7c-0.1,0.3-0.5,0.7-0.8,0.9l-1.6,0.8c-0.2,0.1-0.4,0.3-0.4,0.5c0,0.2,0.1,0.4,0.2,0.6l1.4,1.2
	c0.3,0.2,0.5,0.7,0.6,1.1l0.3,1.8c0,0.2,0.1,0.4,0.3,0.5c0.2,0.1,0.5,0.1,0.7,0l1.6-0.9c0.1-0.1,0.4-0.2,0.6-0.2
	c0.2,0,0.5-0.1,0.6,0l1.8,0.3c0.1,0,0.2,0,0.3,0c0.2,0,0.3-0.1,0.4-0.3c0.1-0.1,0.1-0.3,0.1-0.5L22.5,51c-0.1-0.3,0-0.9,0.1-1.2
	l0.8-1.6C23.5,47.9,23.6,47.7,23.5,47.5z"/>
<path class="st0" d="M39,140.5c-0.1-0.2-0.3-0.3-0.5-0.3l-1.8-0.2c-0.4,0-0.9-0.3-1.1-0.5l-1.3-1.3c-0.2-0.2-0.4-0.2-0.6-0.2
	c-0.2,0-0.4,0.2-0.5,0.4l-0.7,1.7c-0.1,0.3-0.5,0.7-0.8,0.9l-1.6,0.8c-0.2,0.1-0.4,0.3-0.4,0.5c0,0.2,0.1,0.4,0.2,0.6l1.4,1.2
	c0.3,0.2,0.5,0.7,0.6,1.1l0.3,1.8c0,0.2,0.1,0.4,0.3,0.5c0.2,0.1,0.5,0.1,0.7,0l1.6-0.9c0.1-0.1,0.4-0.2,0.6-0.2
	c0.2,0,0.5-0.1,0.6,0l1.8,0.3c0.1,0,0.2,0,0.3,0c0.2,0,0.3-0.1,0.4-0.3c0.1-0.1,0.1-0.3,0.1-0.5l-0.4-1.8c-0.1-0.3,0-0.9,0.1-1.2
	l0.8-1.6C39.1,140.9,39.1,140.7,39,140.5z"/>
<circle class="st0" cx="82.5" cy="2.5" r="2.5"/>
<circle class="st0" cx="8.6" cy="101.5" r="2.5"/>
<circle class="st0" cx="2.5" cy="198.5" r="2.5"/>
</svg>
