<?xml version="1.0" encoding="utf-8"?>
<!-- Generator: Adobe Illustrator 19.0.0, SVG Export Plug-In . SVG Version: 6.00 Build 0)  -->
<svg version="1.1" id="Layer_1" xmlns="http://www.w3.org/2000/svg" xmlns:xlink="http://www.w3.org/1999/xlink" x="0px" y="0px"
	 viewBox="0 0 151.7 167.8" style="enable-background:new 0 0 151.7 167.8;" xml:space="preserve">
<style type="text/css">
	.st0{opacity:0.22;fill:#FFFFFF;}
</style>
<path class="st0" d="M117.5,1.3c-2-1.2-4.2-1.6-6.3-1.1C106,1.5,99.2,8.1,92.8,47.6l-48.1,12C22.9,26.1,13.8,23.3,8.4,24.6
	c-7.3,1.8-9.8,12.7-7.7,34.3c1.4,14.7,5.1,34.5,10,54.2l2.8,11.1c8.7,34.8,33.6,49.8,68.5,41.2l26.2-6.5
	c34.8-8.7,49.8-33.6,41.2-68.5l-2.8-11.1c-0.5-1.9-1-4-1.5-6.3C137,40.3,128.3,7.8,117.5,1.3z M33.4,121.4c-0.6-2.5,0.9-5,3.4-5.7
	c2.5-0.6,5,0.9,5.7,3.4c0.6,2.5-0.9,5-3.4,5.7C36.6,125.5,34,124,33.4,121.4z M126.8,122.6c-6.4,9.9-21.2,18.7-38.7,23.1l0,0
	c-17.7,4.4-35,3.5-45.2-2.4c-1.1-0.6-1.5-2-0.9-3.1c0.6-1.1,2-1.5,3.1-0.9c9.1,5.2,25.5,6,41.8,1.9l0,0
	c16.4-4.1,30.1-12.2,35.9-21.1c0.7-1.1,2.1-1.4,3.2-0.7C127.1,120.1,127.4,121.6,126.8,122.6z M133.9,103L133.9,103l-17.2,4
	c-1,0.2-2.1-0.2-2.7-1.1c-0.6-0.9-0.5-2,0.1-2.9L127,86.4c0.8-1.1,2.4-1.3,3.5-0.5c1.1,0.8,1.3,2.4,0.5,3.5l-8.5,11.1l10.3-2.4
	c1.3-0.3,2.7,0.5,3,1.9C136.1,101.4,135.3,102.7,133.9,103z"/>
</svg>
